/* XPM */
static char *result[] = {
/* columns rows colors chars-per-pixel */
"50 50 16 1 ",
"  c black",
". c #11090B",
"X c #140808",
"o c #361414",
"O c #652A2A",
"+ c #424043",
"@ c #5A5B42",
"# c #696A6A",
"$ c #AC3232",
"% c #8F563B",
"& c #954C64",
"* c #711395",
"= c #847E87",
"- c #9D6F9F",
"; c #929DA4",
": c #CBDBFC",
/* pixels */
"..................................................",
"..................................................",
"..................................................",
"..................................................",
"..................................................",
"..................................................",
"..................................................",
"..................................................",
"............................X..X.%................",
".................................$................",
"..........................XX%.X.X%................",
"........................X$XXXXXXXX................",
"........................%X$XXXXXXX................",
".........................X%XXXX%X.................",
"......................%XX%$%X%X$X.................",
".......................%$XXXX;::..................",
".........................%XX%O;;............*.....",
".........................X%$XOOO...........**.....",
".....................oo===XOOooo..........*.......",
"...................ooOO===OOo=...........*........",
"...................OOOO=;=oOo==.........**........",
"..................oOOOO;;;;;;;&O.......*..........",
".................oOOOOo;;;;;;;OO......*...........",
".................oOOoO&:;;;=;:O&.....**...........",
".................oOO&o#-:::#;OO&....**............",
".................oOO&o#####:#OO&...*..............",
".................oOO&o#;;;:#;OO&..**..............",
"..................oO&##;#####OOo.**...............",
"..................O&o#;;:=#=:Oo.*.................",
"..................OO&#;#####O&o*..................",
"..................Oo&#;===#OOo**..................",
"..................OOo##:#:#OO**...................",
"...................OOo#===O#*.....................",
"................... O&o++ #::.....................",
"................   +OOo+  ::#.....................",
"..............      ++Oo#:  @@  ..................",
".............  @@@@@  Oo##+  @@@ .................",
"............. @@    ++OOo  ++   @  ...............",
"........... @  @@    ......  +  ++++..............",
"..........  @@@    ..........   OOO...............",
"...........OOO     .............oOO...............",
"...........ooO.   ..............oOO...............",
"..........OOOo..................oOO...............",
"..........OOO...................OooO..............",
"..........OOo...................OOOO..............",
".........OOOO......................oooO...........",
".........OOo......................................",
".........OoO......................................",
"......OOOOooo.....................................",
"......Oooo........................................"
};
