/* XPM */
static char *result[] = {
/* columns rows colors chars-per-pixel */
"50 50 9 1 ",
"  c #11090B",
". c #181818",
"X c #696A6A",
"o c #C87808",
"O c #BDA632",
"+ c #847E87",
"@ c #5FCDE4",
"# c #9BADB7",
"$ c #CBDBFC",
/* pixels */
"                                                  ",
"                                                  ",
"                                                  ",
"                                                  ",
"                                                  ",
"                                                  ",
"                      ooooo                       ",
"                    oo..O..ooo                    ",
"                  oo..O.O.OO..oo                  ",
"                oo..O.++++++.O..oo                ",
"               o..O.++++++++++.O..o               ",
"              ooO.+++++####+++++.Ooo              ",
"             o..O++++##@@@@##++++O..o             ",
"            ooO.+++##@@@@@@@@##+++.Ooo            ",
"           o..O++##@@@@@@@@@@@@##++O..o           ",
"          ooO.++#@@@@@@@@@@@@@@@@#++.Ooo          ",
"         o..O++#@@@@@@$$$$$$@@@@@@#++O..o         ",
"         oO.++#@@@@@$$      $@@@@@@#++.Oo         ",
"        ooO+++#@@@@$         $$@@@@#+++Ooo        ",
"       o..O++#@@@@$            $@@@@#++O..o       ",
"       oo.+++#@@@$              $@@@#+++.oo       ",
"       oO.++#@@@$                $@@@#++.Oo       ",
"       oO+++#@@@$                $@@@#+++Oo       ",
"      o.O++#@@@$                  $@@@#++O.o      ",
"      o.+++#@@@$                  $@@@#+++.o      ",
"      oO+++#@@$                    $@@#+++Oo      ",
"      o.++#@@@$                    $@@@#++.o      ",
"      o.++#@@@$                    $@@@#++.o      ",
"      oO++#@@@$                    $@@@#++Oo      ",
"      o.++#@@@$                    $@@@#++.o      ",
"      o.++#@@@$                    $@@@#++.o      ",
"      oO++#@@@$                   $@@@@#++Oo      ",
"      o.+++#@@@$                  $@@@#+++.o      ",
"      o.+++#@@@$                  $@@@#+++.o      ",
"      oO+++#@@@$                 $@@@@#+++Oo      ",
"      oO.++#@@@@$                $@@@@#++.Oo      ",
"       o.+++#@@@$                $@@@#+++.o       ",
"       o.O++#@@@@$              $@@@@#++O.o       ",
"        oO+++#@@@@$            $@@@@#+++Oo        ",
"        oO.++#@@@@@$          $@@@@@#++.Oo        ",
"         o.+++#@@@@@$$      $$@@@@@#+++.o         ",
"         o.O++#@@@@@@@$$$$$$@@@@@@@#++O.o         ",
"          oO.++##@@@@@@@@@@@@@@@@##++.Oo          ",
"           o.O+++##@@@@@@@@@@@@##+++O.o           ",
"            oO.++++#@@@@@@@@@@#++++.Oo            ",
"             o.O+++############+++O.o             ",
"              oO.O++++++++++++++O.Oo              ",
"               ooO++XXXXXXXXXX++O                 ",
"                 XXXXXXXXXXXXXXXX                 ",
"                                                  "
};
