/* XPM */
static char *result[] = {
/* columns rows colors chars-per-pixel */
"50 50 16 1 ",
"  c #2C012C",
". c #680100",
"X c #254225",
"o c #424200",
"O c #426842",
"+ c #9E1F00",
"@ c #963400",
"# c #DF2D00",
"$ c #EF7000",
"% c #7F9E7F",
"& c #17F76F",
"* c #8F8F00",
"= c #F8BF00",
"- c #FE11DC",
"; c #9FBF9F",
": c #F8DFA6",
/* pixels */
"--------------------------------------------------",
"--------------------------------------------------",
"--------------------------------------------------",
"--------------------------------------------------",
"--------------------------------------------------",
"--------------------------------------------------",
"--------------------------------------------------",
"--------------------------------------------------",
"--------------------------------------------------",
"--------------------------------------------------",
"--------------------------------------------------",
"--------------------------------------------------",
"--------------------------------------------------",
"--------------------------------------------------",
"-------------------------...+---------------------",
"-----------------------..+.#:+--------------------",
"----------------------.XXX..#.+-------------------",
"---------------------  @@@X. &.-------------------",
"--------------------  @$:$$X &&-------------------",
"-------------------X @$@=@=$@.&-------------------",
"-------------------O @@@$@$$@;+-------------------",
"-------------------X @  X@@@@# -------------------",
"-------------------    X%;O @##-------------------",
"--------------------  X O@$=@@+#------------------",
"--------------------     ==:$ .+------------------",
"-------------------- X   $==$   ..$@--------------",
"--------------------- o* @$$@  OX$@=@ X  ---------",
"---------------------  o* @  O ;%.X@.X%X% --------",
"---------------------   o  @X %%;O%;;X;X; --------",
"----------------------oooo $@ %%OXOOO O O --------",
"---------------------o$$$@ @$ XOX XXX X X --------",
"---------------------@$==@o  - X         ---------",
"---------------------@$==@o@o---------------------",
"---------------------@$==$@@o---------------------",
"----------------------o=$$@@o---------------------",
"-----------------------@=$@o----------------------",
"-----------------------o@ oo----------------------",
"----------------------@@  @o----------------------",
"--------------------o@== $=o----------------------",
"--------------------o$==$= o----------------------",
"-------------------o@$$@  o-----------------------",
"-------------------o@@@ @@o-----------------------",
"------------------o@@@  @@o-----------------------",
"----------------- @@$$$ @o------------------------",
"----------------- @oo@  @o------------------------",
"------------------ @$$ @@o------------------------",
"------------------- o   @o------------------------",
"-------------------- @$$o@oo----------------------",
"--------------------    o@@@ ---------------------",
"--------------------         ---------------------"
};
