/* XPM */
static char *result[] = {
/* columns rows colors chars-per-pixel */
"50 50 8 1 ",
"  c #181818",
". c #2C303B",
"X c #363E52",
"o c #404A60",
"O c #FE11DC",
"+ c #75889C",
"@ c #88A5B5",
"# c #D9EEF2",
/* pixels */
"         OOOOOOOOOOOOOOOOOOOOOOOOOOOOOOOO         ",
" ooooooX     OOOOOOOOOOOOOOOOOOOOOOOOO    ooooooo ",
" ooooooX oo  OOOOOOOOOOOOOOOOOOOOOOOOO oo Xoooooo ",
" oooooXX oo                            oo Xoooooo ",
" oooooXX oo  +++@@@###########@@@+++++ oo XXooooo ",
" oooooX. oo  +++@@@@#########@@@@+++++ oo .XXoooo ",
" ooooXX. XX  +++++@@@@@@@@@@@@@+++++++ XX .XXoooo ",
" oooXXX. XX  ++++++@@@@@@@@@@@++++++++ XX .XXoooo ",
" oXXXX.. ..                            XX .XXXooo ",
" XXXX...     OOOOOOOOOOOOOOOOOOOOOOOOO .. ..XXXXX ",
" X......     OOOOOOOOOOOOOOOOOOOOOOOOO    ...XXXX ",
" ....... OOOOOOOOOOOOOOOOOOOOOOOOOOOOOOOO ......X ",
"         OOOOOOOOOOOOOOOOOOOOOOOOOOOOOOOO         ",
"         OOOOOOOOOOOOOOOOOOOOOOOOOOOOOOOO         ",
"OO ++++ OOOOOOOOOOOOOOOOOOOOOOOOOOOOOOOOOOO ++++ O",
"OO ++++ OOOOOOOOOOOOOOOOOOOOOOOOOOOOOOOOOOO ++++ O",
"OO @+++ OOOOOOOOOOOOOOOOOOOOOOOOOOOOOOOOOOO +++@ O",
"OO @+++ OOOOOOOOOOOOOOOOOOOOOOOOOOOOOOOOOOO ++@# O",
"OO @@++ OOOOOOOOOOOOOOOOOOOOOOOOOOOOOOOOOOO ++@# O",
"OO @@++ OOOOOOOOOOOOOOOOOOOOOOOOOOOOOOOOOOO +@@# O",
"OO #@@+ OOOOOOOOOOOOOOOOOOOOOOOOOOOOOOOOOOO +@@# O",
"OO #@@+ OOOOOOOOOOOOOOOOOOOOOOOOOOOOOOOOOOO +@@# O",
"OO #@@+ OOOOOOOOOOOOOOOOOOOOOOOOOOOOOOOOOOO +@@# O",
"OO #@@+ OOOOOOOOOOOOOOOOOOOOOOOOOOOOOOOOOOO @@## O",
"OO #@@+ OOOOOOOOOOOOOOOOOOOOOOOOOOOOOOOOOOO @@## O",
"OO ##@+ OOOOOOOOOOOOOOOOOOOOOOOOOOOOOOOOOOO @@## O",
"OO ##@+ OOOOOOOOOOOOOOOOOOOOOOOOOOOOOOOOOOO @### O",
"OO ##@+ OOOOOOOOOOOOOOOOOOOOOOOOOOOOOOOOOOO @### O",
"OO ##@+                                     @### O",
"OO ##@+ +++@@@@@###################@@@@@+++ @### O",
"OO ##@+ +++++@@@@@###############@@@@@@@+++ @### O",
"OO ##@+ ++++++@@@@@@@@######@@@@@@@++++++++ @### O",
"OO ##@+ ++++++++@@@@@@@@@@@@@@@@@@+++++++++ @### O",
"OO ##@+ +++++++++++++++++++++++++++++++++++ @### O",
"OO ##@+                                     @### O",
"OO ##@+ OOOOOOOOOOOOOOOOOOOOOOOOOOOOOOOOOOO @### O",
"OO ##@+ OOOOOOOOOOOOOOOOOOOOOOOOOOOOOOOOOOO @### O",
"OO ##@+ OOOOOOOOOOOOOOOOOOOOOOOOOOOOOOOOOOO @### O",
"OO ##@+ OOOOOOOOOOOOOOOOOOOOOOOOOOOOOOOOOOO @### O",
"OO ##@+ OOOOOOOOOOOOOOOOOOOOOOOOOOOOOOOOOOO @### O",
"OO ##@+ OOOOOOOOOOOOOOOOOOOOOOOOOOOOOOOOOOO @### O",
"OO ##@+ OOOOOOOOOOOOOOOOOOOOOOOOOOOOOOOOOOO @### O",
"OO ##@+ OOOOOOOOOOOOOOOOOOOOOOOOOOOOOOOOOOO @### O",
"OO ##@+ OOOOOOOOOOOOOOOOOOOOOOOOOOOOOOOOOOO @@## O",
"OO ##@+ OOOOOOOOOOOOOOOOOOOOOOOOOOOOOOOOOOO @@## O",
"OO ##@+ OOOOOOOOOOOOOOOOOOOOOOOOOOOOOOOOOOO +@## O",
"OO ##@+ OOOOOOOOOOOOOOOOOOOOOOOOOOOOOOOOOOO +@## O",
"OO #@@+ OOOOOOOOOOOOOOOOOOOOOOOOOOOOOOOOOOO +@## O",
"OO @@++ OOOOOOOOOOOOOOOOOOOOOOOOOOOOOOOOOOO +@@# O",
"OO @@++ OOOOOOOOOOOOOOOOOOOOOOOOOOOOOOOOOOO ++@@ O"
};
