/* XPM */
static char *result[] = {
/* columns rows colors chars-per-pixel */
"80 80 8 1 ",
"  c black",
". c #391B1B",
"X c #652E2E",
"o c #444245",
"O c #701B94",
"+ c #FE11DC",
"@ c #919CA3",
"# c #F288F5",
/* pixels */
"++++++++++++++++++++++++++++++++++++++++++++++++++++++++++++++++++++++++++++++++",
"++++++++++++++++++++++++++++++++++++++++++++++++++++++++++++++++++++++++++++++++",
"++++++++++++++++++++++++++++++++++++++++++++++++++++++++++++++++++++++++++++++++",
"++++++++++++++++++++++++++++++++++++++++++++++++++++++++++++++++++++++++++++++++",
"++++++++++++++++++++++++++++++++++++++++++++++++++++++++++++++++++++++++++++++++",
"++++++++++++++++++++++++++++++++++++++++++++++++++++++++++++++++++++++++++++++++",
"++++++++++++++++++++++++++++++++++++++++++++++++++++++++++++++++++++++++++++++++",
"++++++++++++++++++++++++++++++++++++++++++++++++++++++++++++++++++++++++++++++++",
"++++++++++++++++++++++++++++++++++++++++++++++++++++++++++++++++++++++++++++++++",
"++++++++++++++++++++++++++++++++++++++++++++++++++++++++++++++++++++++++++++++++",
"++++++++++++++++++++++++++++++++++++++++++++++++++++++++++++++++++++++++++++++++",
"++++++++++++++++++++++++++++++++++++++++++++++++++++++++++++++++++++++++++++++++",
"++++++++++++++++++++++++++++++++++++++++++++++++++++++++++++++++++++++++++++++++",
"++++++++++++++++++++++++++++++++++++++++++++++++++++++++++++++++++++++++++++++++",
"++++++++++++++++++++++++++++++++++++++++++++++++++++++++++++++++++++++++++++++++",
"++++++++++++++++++++++++++++++++++++++++++++++++++++++++++++++++++++++++++++++++",
"++++++++++++++++++++++++++++++++++++++++++++++++++++++++++++++++++++++++++++++++",
"++++++++++++++++++++++++++++++++++++++++++++++++++++++++++++++++++++++++++++++++",
"++++++++++++++++++++++++++++++++++++++++++++++++++++++++++++++++++++++++++++++++",
"++++++++++++++++++++++++++++++++++++++++++++++++++++++++++++++++++++++++++++++++",
"++++++++++++++++++++++++++++++++++++++++++++++++++++++++++++++++++++++++++++++++",
"++++++++++++++++++++++++++++++++++++++++++++++++++++++++++++++++++++++++++++++++",
"++++++++++++++++++++++++++++++++++++++++++++++++++++++++++++++++++++++++++++++++",
"++++++++++++++++++++++++++++++++++++++++++++++++++++++++++++++++++++++++++++++++",
"++++++++++++++++++++++++++++++++++++++++++++++++++++++++++++++++++++++++++++++++",
"++++++++++++++++++++++++++++++++++++++++++++++++++++++++++++++++++++++++++++++++",
"++++++++++++++++++++++++++++++++++++++++++++++++++++++++++++++++++++++++++++++++",
"++++++++++++++++++++++++++++++++++++++++++++++++++++++++++++++++++++++++++++++++",
"++++++++++++++++++++++++++++++++++++++++++++++++++++++++++++++++++++++++++++++++",
"++++++++++++++++++++++++++++++++++++++++++++++++++++++++++++++++++++++++++++++++",
"+++++++++++++++++++++++++++++++++++++++++++++++++++++++++++++++++ ++++++++++++++",
"+++++++++++++++++++++++++++++++++++++++++++++++++++++++++++++ +++   ++++++++++++",
"++++++++++++++++++++++++++++++++++++++++++++++++++++++++++++++        ++++++++++",
"+++++++++++++++++++++++++++++++++++++++++++++++++++++++++++++++          +++++++",
"+++++++++++++++++++++++++++++++++++++++++++++++++++++++++++++            +++++++",
"++++++++++++++++++++++++++++++++++++++++++++++++++++++++++++++            ++++++",
"++++++++++++++++++++++++++++++++++++++++++++++++++++++++++++  ++          ++++++",
"+++++++++++++++++++++++++++++++++++++++++++++++++++++++XXX+++             ++++++",
"++++++++++++++++++++++++++++++++++++++++++++++++++++XXXXXXXX+@            ++++++",
"++++++++++++++++++++++++++++++++++++++++++++++XXXXXXXXXXXXXXX      XX  XX ++++++",
"+++++++++++++++++++++++++++++++++++++++++++XXXXXXXXXXXXXXXXXX   X XXXXXXXX++++++",
"++++++++++++++++++++++++++++++++++++++++++XXXXXXXXXXXXXXXXXXX@@ XXXXXXXXX+++++++",
"+++++++++++++++++++++++++++++++++++++++++XXXXXXXXXXXXXXXXXXX@@@@XXXXXXXX++++++++",
"+++++++++++++++++++++++++++++++++++++++XXXXXXXXXXXXXXXXXXXXX@@@@XXXXXXXX++++++++",
"+++++++++++++++++++++++++++++++++++++XXXXXX++++++++++XXXXXX@@@@@@XXXXXXX++++++++",
"+++++++++++++++++++++++++++++++++++XXXXX++++++++++++@@@@@@@@@@@@@@XXXXX+++++++++",
"+++++++++++++++++++++++++++++++++OOXXXX++++++++++++@@@@@@@@@@@@@@@@XXX++++++++++",
"+++++++++++++++++++++++++++++++OO##XXX++++++++++++@@@@@@@@@@@@@@@@++++++++++++++",
"+++++++++++++++++++++++++++++OO##OO++++++++++++++@@@@@@@@@@@@@@@@.++++++++++++++",
"+++++++++++++++++++++++++++OO##OO+++++++++++++++@@@@@@@@@@@@@@@..+.+++++++++++++",
"+++++++++++++++++++++++++OO##OO+++++++++++++++++@@@@@@@@@++++++.++++++++++++++++",
"+++++++++++++++++++++++OO##OO++++++++++++++++++oo@@@@@@@++++++++++++++++++++++++",
"+++++++++++++++++++++OO##OO+++++++++++++++++++ooooo@@@@@++++++++++++++++++++++++",
"+++++++++++++++++++OO##OO+++++++++++++++++++++oooooooooo++++++++++++++++++++++++",
"+++++++++++++++++OO##OO++++++++++++++++++++++ooooooooooo++++++++++++++++++++++++",
"+++++++++++++++OO##OO++++++++++++++++++++++++ooooooooooo++++++++++++++++++++++++",
"+++++++++++++OO##OO++++++++++++++++++++++++++oooooooooo  +++++++++++++++++++++++",
"+++++++++++OO##OO++++++++++++++++++++++++++++oooooooooo   ++++++++++++++++++++++",
"+++++++++OO##OO+++++++++++++++++++++++++++++oooooooooo     +++++++++++++++++++++",
"+++++++OO##OO+++++++++++++++++++++++++++++++oooooooooo      ++++++++++++++++++++",
"+++++OO##OO+++++++++++++++++++++++++++++++++ooooooooo        +++++++++++++++++++",
"++++O##OO++++++++++++++++++++++++++++++++++oooooooooo         ++++++++++++++++++",
"+++++OO++++++++++++++++++++++++++++++++++++oooooooooo         ++++++++++++++++++",
"++++++++++++++++++++++++++++++++++++++++++oooooooooo+          +++++++++++++++++",
"++++++++++++++++++++++++++++++++++++++++XXXXoooooooo++         +++++++++++++++++",
"++++++++++++++++++++++++++++++++++++++++XXXXXoooooo+++          ++++++++++++++++",
"++++++++++++++++++++++++++++XXXXXXXXXXXXXXXXXoooooo+++          ++++++++++++++++",
"++++++++++++++++++++++++++++XXXXXXXXXXXXXXXXXXooooo+++       .   +++++++++++++++",
"++++++++++++++++++++++++++++XXXXXXXXXXXXXXXXXooooo++++    .....+++++++++++++++++",
"++++++++++++++++++++++++++++XXXX+++XXXXXXXXXX+oooo++++  +++....+++++++++++++++++",
"++++++++++++++++++++++++++++XXX++++++XXX+XXX++oo++++++++++++....++++++++++++++++",
"++++++++++++++++++++++++++++XX+++++++++++++++++o+++++++++++++...++++++++++++++++",
"++++++++++++++++++++++++++++XX++++++++++++++++++++++++++++++++...+++++++++++++++",
"++++++++++++++++++++++++++++X+++++++++++++++++++++++++++++++++...+++++++++++++++",
"+++++++++++++++++++++++++++++++++++++++++++++++++++++++++++++++...++++++++++++++",
"++++++++++++++++++++++++++++++++++++++++++++++++++++++++++++++++..++++++++++++++",
"++++++++++++++++++++++++++++++++++++++++++++++++++++++++++++++++...+++++++++++++",
"++++++++++++++++++++++++++++++++++++++++++++++++++++++++++++++++....++++++++++++",
"++++++++++++++++++++++++++++++++++++++++++++++++++++++++++++++++........++++++++",
"++++++++++++++++++++++++++++++++++++++++++++++++++++++++++++++++......++++++++++"
};
