/* XPM */
static char *result[] = {
/* columns rows colors chars-per-pixel */
"80 80 8 1 ",
"  c black",
". c #361414",
"X c #652A2A",
"o c #424043",
"O c #711395",
"+ c #FE11DC",
"@ c #929DA4",
"# c #F389F5",
/* pixels */
"++++++++++++++++++++++++++++++++++++++++++++++++++++++++++++++++++++++++++++++++",
"++++++++++++++++++++++++++++++++++++++++++++++++++++++++++++++++++++++++++++++++",
"++++++++++++++++++++++++++++++++++++++++++++++++++++++++++++++++++++++++++++++++",
"++++++++++++++++++++++++++++++++++++++++++++++++++++++++++++++++++++++++++++++++",
"++++++++++++++++++++++++++++++++++++++++++++++++++++++++++++++++++++++++++++++++",
"++++++++++++++++++++++++++++++++++++++++++++++++++++++++++++++++++++++++++++++++",
"++++++++++++++++++++++++++++++++++++++++++++++++++++++++++++++++++++++++++++++++",
"++++++++++++++++++++++++++++++++++++++++++++++++++++++++++++++++++++++++++++++++",
"++++++++++++++++++++++++++++++++++++++++++++++++++++++++++++++++++++++++++++++++",
"++++++++++++++++++++++++++++++++++++++++++++++++++++++++++++++++++++++++++++++++",
"++++++++++++++++++++++++++++++++++++++++++++++++++++++++++++++++++++++++++++++++",
"++++++++++++++++++++++++++++++++++++++++++++++++++++++++++++++++++++++++++++++++",
"++++++++++++++++++++++++++++++++++++++++++++++++++++++++++++++++++++++++++++++++",
"++++++++++++++++++++++++++++++++++++++++++++++++++++++++++++++++++++++++++++++++",
"++++++++++++++++++++++++++++++++++++++++++++++++++++++++++++++++++++++++++++++++",
"++++++++++++++++++++++++++++++++++++++++++++++++++++++++++++++++++++++++++++++++",
"++++++++OO++++++++++++++++++++++++++++++++++++++++++++++++++++++++++++++++++++++",
"+++++++O##OO++++++++++++++++++++++++++++++++++++++++++++++++++++++++++++++++++++",
"++++++++OO##OOO+++++++++++++++++++++++++++++++++++++++++++++++++++++++++++++++++",
"++++++++++OO###OOO++++++++++++++++++++++++++++++++++++++++++++++++++++++++++++++",
"+++++++++++++OO###OO++++++++++++++++++++++++++++++++++++++++++++++++++++++++++++",
"+++++++++++++++OOO##OOO+++++++++++++++++++++++++++++++++++++++++++++++++++++++++",
"++++++++++++++++++OO###OO+++++++++++++++++++++++++++++++++++++++++++++++++++++++",
"++++++++++++++++++++OOO##OOO++++++++++++++++++++++++++++++++++++++++++++++++++++",
"+++++++++++++++++++++++OO###OO++++++++++++++++++++++++++++++++++++++++++++++++++",
"++++++++++++++++++++++++++OO##OOO+++++++++++++++++++++++++++++++++++++++++++++++",
"++++++++++++++++++++++++++++OO###OOO++++++++++++++++++++++++++++++++++++++++++++",
"+++++++++++++++++++++++++++++++OO###OO++++++++++++++++++++++++++++++++++++++++++",
"+++++++++++++++++++++++++++++++++OOO##OO++++++++++++++++++++++++++++++++++++++++",
"+++++++++++++++++++++++++++++++ + ++OO#..+++++++++++++++++++++++++++++++++++++++",
"+++++++++++++++++++++++++++++ +   + ++O....+++++++++++++++++++++++++++++++++++++",
"+++++++++++++++++++++++++++ +       + +++..+++++++++++++++++++++++++++++++++++++",
"+++++++++++++++++++++++++++            ++...++++++++++++++++++++++++++++++++++++",
"+++++++++++++++++++++++++++     X     ++++...+++++++++++++++++++++++++++++++++++",
"+++++++++++++++++++++++++++    XXXX   ++.....+++++++++++++++++++++++++++++++++++",
"++++++++++++++++++++++..++++  XXXXXXX ......++++++++++++++++++++++++++++++++++++",
"+++++++++++++++++++++.+++++++ XXXXXXX@@.....++++++++++++++++++++++++++++++++++++",
"++++++++++++++++++++...++++++XXXXXXX@@@@..++++++++++++++++++++++++++++++++++++++",
"++++++++++++++++++++.....++++XXXXXXX@@@@@+++++++++++++++++++++++++++++++++++++++",
"++++++++++++++++++++.....+++++XXXXXX@@@@@@++++++++++++++++++++++++++++++++++++++",
"++++++++++++++++++++....++++++XXXXXX@@@@@@++++++++++++++++++++++++++++++++++++++",
"++++++++++++++++++++...+++++++XXXXXXX@@@@@++++++++++++++++++++++++++++++++++++++",
"++++++++++++++++++++...+++++XXXXXXXXX@@@@@++++++++++++++++++++++++++++++++++++++",
"++++++++++++++++++++X...+++XXXXXXXXXX@@@@@@+++++++++++++++++++++++++++++++++++++",
"++++++++++++++++++++XXXXXXXXXXXXXXXX@@@@@@@+++++++++++++++++++++++++++++++++++++",
"+++++++++++++++++++++XXXXXXXXXXXXXX@@@@@@@@+++++++++++++++++++++++++++++++++++++",
"+++++++++++++++++++++XXXXXXXXX+++@@@@@@@@@@+++++++++++++++++++++++++++++++++++++",
"+++++++++++++++++++++++XXXX+++++++@@@@@@@@@+++++++++++++++++++++++++++++++++++++",
"++++++++++++++++++++++++++++++++++@@@@@@@@++++++++++++++++++++++++++++++++++++++",
"+++++++++++++++++++++++++++++++++++@@@@@@@++++++++++++++++++++++++++++++++++++++",
"+++++++++++++++++++++++++++++++++++ ooooooo+++++++++++++++++++++++++++++++++++++",
"+++++++++++++++++++++++++++++++++++  ooooooo++++++++++++++++++++++++++++++++++++",
"++++++++++++++++++++++++++++++++++  oooooooo++++++++++++++++++++++++++++++++++++",
"+++++++++++++++++++++++++++++++    ooooooooo++++++++++++++++++++++++++++++++++++",
"++++++++++++++++++++++++++++++    oooooooooo++++++++++++++++++++++++++++++++++++",
"++++++++++++++++++++++++++++      oooooooooo++++++++++++++++++++++++++++++++++++",
"++++++++++++++++++++++++++      ooooooooooo+++++++++++++++++++++++++++++++++++++",
"++++++++++++++++++++++++++      oooooooooo++++++++++++++++++++++++++++++++++++++",
"+++++++++++++++++++++++++++   oooooooooooo++++++++++++++++++++++++++++++++++++++",
"++++++++++++++++++++++++++++  ooooooooooo+++++++++++++++++++++++++++++++++++++++",
"+++++++++++++++++++++++++++++ XXXoooooooo+++++++++++++++++++++++++++++++++++++++",
"+++++++++++++++++++++++++++++XXXXXXoooooo+++++++++++++++++++++++++++++++++++++++",
"+++++++++++++++++++++++++++++XXXXXXXoooo++++++++++++++++++++++++++++++++++++++++",
"+++++++++++++++++++++++++++++XXXXXX...oo++++++++++++++++++++++++++++++++++++++++",
"+++++++++++++++++++++++++++++XXXXXXX...o++++++++++++++++++++++++++++++++++++++++",
"+++++++++++++++++++++++++++++++XXXXXX..+++++++++++++++++++++++++++++++++++++++++",
"+++++++++++++++++++++++++++++++++XXX...+++++++++++++++++++++++++++++++++++++++++",
"+++++++++++++++++++++++++++++++++XXX+..+++++++++++++++++++++++++++++++++++++++++",
"+++++++++++++++++++++++++++++++++XX++..+++++++++++++++++++++++++++++++++++++++++",
"+++++++++++++++++++++++++++++++++++++.++++++++++++++++++++++++++++++++++++++++++",
"++++++++++++++++++++++++++++++++++++++++++++++++++++++++++++++++++++++++++++++++",
"++++++++++++++++++++++++++++++++++++++++++++++++++++++++++++++++++++++++++++++++",
"++++++++++++++++++++++++++++++++++++++++++++++++++++++++++++++++++++++++++++++++",
"++++++++++++++++++++++++++++++++++++++++++++++++++++++++++++++++++++++++++++++++",
"++++++++++++++++++++++++++++++++++++++++++++++++++++++++++++++++++++++++++++++++",
"++++++++++++++++++++++++++++++++++++++++++++++++++++++++++++++++++++++++++++++++",
"++++++++++++++++++++++++++++++++++++++++++++++++++++++++++++++++++++++++++++++++",
"++++++++++++++++++++++++++++++++++++++++++++++++++++++++++++++++++++++++++++++++",
"++++++++++++++++++++++++++++++++++++++++++++++++++++++++++++++++++++++++++++++++",
"++++++++++++++++++++++++++++++++++++++++++++++++++++++++++++++++++++++++++++++++"
};
