/* XPM */
static char *result[] = {
/* columns rows colors chars-per-pixel */
"80 80 10 1 ",
"  c black",
". c #391B1B",
"X c #152322",
"o c #652E2E",
"O c #46403E",
"+ c #444245",
"@ c #701B94",
"# c #FE11DC",
"$ c #919CA3",
"% c #F288F5",
/* pixels */
"################################################################################",
"################################################################################",
"################################################################################",
"################################################################################",
"################################################################################",
"################################################################################",
"################################################################################",
"################################################################################",
"################################################################################",
"################################################################################",
"################################################################################",
"################################################################################",
"################################################################################",
"################################################################################",
"################################################################################",
"################################################################################",
"################################################################################",
"################################################################################",
"################################################################################",
"################################################################################",
"################################################################################",
"################################################################################",
"################################################################################",
"################################################################################",
"################################################################################",
"################################################################################",
"################################################################################",
"################################################################################",
"################################################################################",
"################################################################################",
"################################################################################",
"################################################################# ##############",
"############################################################# ###   ############",
"##############################################################        ##########",
"###############################################################          #######",
"#############################################################            #######",
"##############################################################            ######",
"####################################################ooooo###  ##          ######",
"###################################################oooooooo#$             ######",
"################################################ooooooooooo$$$            ######",
"#############################################oooooooooooooo$$      oo  oo ######",
"##########################################ooooooooooooooooo$$   o oooooooo######",
"#########################################ooooooooooooooooo$$$$$ ooooooooo#######",
"########################################oooooooooooooooooo$$$$$$oooooooo########",
"######################################oooooooooo###ooooo$$$$$$$$oooooooo########",
"####################################oooooo#########$$$$$$$$$$$$$$ooooooo########",
"##################################ooooo############$$$$$$$$$$$$$$$ooooo#########",
"################################@@oooo############$$$$$$$$$$$$$$$$#ooo##########",
"##############################@@%%ooo############$$$$$$$$$$$$$$$$###############",
"############################@@%%@@##############$$$$$$$$$$$$$$$....#############",
"##########################@@%%@@################$$$$$$$$$######.....############",
"########################@@%%@@##################$$$$$$$$########.#.#.###########",
"######################@@%%@@###################$$$$$$$$##########.##############",
"####################@@%%@@#####################$$$$$$$$#########################",
"##################@@%%@@######################+++++++++#########################",
"################@@%%@@########################++++++++++########################",
"##############@@%%@@#########################++++++++++O #######################",
"############@@%%@@###########################++++++++++  #######################",
"##########@@%%@@#############################+++++++++    ######################",
"########@@%%@@###############################+++++++++     #####################",
"######@@%%@@################################+++++++++       ####################",
"####@@%%@@##################################+++++++++        ###################",
"###@%%@@####################################+++++++++         ##################",
"####@@#####################################+++O++++++          #################",
"##########################################+++++++++++          #################",
"#########################################oo+++OO+++++#         #################",
"#########################################oooo+++++++###  ....X##################",
"######################################oooooooo++++++### #....###################",
"####################################oooooooooo+++++######....###################",
"##################################oooooooooooo##+++######....###################",
"#############################oooooooooooooooo####++######...####################",
"#############################oooooooooooo################...####################",
"#############################ooooo#######################...####################",
"#############################oooo########################..#####################",
"#############################ooo#########################..#####################",
"#############################oo##########################..#####################",
"#############################oo##########################...####################",
"#############################o###########################....###################",
"#########################################################.....##################",
"###########################################################.....################"
};
