/* XPM */
static char *result[] = {
/* columns rows colors chars-per-pixel */
"80 80 8 1 ",
"  c black",
". c #361414",
"X c #652A2A",
"o c #424043",
"O c #711395",
"+ c #FE11DC",
"@ c #929DA4",
"# c #F389F5",
/* pixels */
"++++++++++++++++++++++++++++++++++++++++++++++++++++++++++++++++++++++++++++++++",
"++++++++++++++++++++++++++++++++++++++++++++++++++++++++++++++++++++++++++++++++",
"++++++++++++++++++++++++++++++++++++++++++++++++++++++++++++++++++++++++++++++++",
"++++++++++++++++++++++++++++++++++++++++++++++++++++++++++++++++++++++++++++++++",
"++++++++++++++++++++++++++++++++++++++++++++++++++++++++++++++++++++++++++++++++",
"++++++++++++++++++++++++++++++++++++++++++++++++++++++++++++++++++++++++++++++++",
"++++++++++++++++++++++++++++++++++++++++++++++++++++++++++++++++++++++++++++++++",
"++++++++++++++++++++++++++++++++++++++++++++++++++++++++++++++++++++++++++++++++",
"++++++++++++++++++++++++++++++++++++++++++++++++++++++++++++++++++++++++++++++++",
"++++++++++++++++++++++++++++++++++++++++++++++++++++++++++++++++++++++++++++++++",
"++++++++++++++++++++++++++++++++++++++++++++++++++++++++++++++++++++++++++++++++",
"++++++++++++++++++++++++++++++++++++++++++++++++++++++++++++++++++++++++++++++++",
"++++++++++++++++++++++++++++++++++++++++++++++++++++++++++++++++++++++++++++++++",
"++++++++++++++++++++++++++++++++++++++++++++++++++++++++++++++++++++++++++++++++",
"++++++++++++++++++++++++++++++++++++++++++++++++++++++++++++++++++++++++++++++++",
"++++++++++++++++++++++++++++++++++++++++++++++++++++++++++++++++++++++++++++++++",
"++++++++++++++++++++++++++++++++++++++++++++++++++++++++++++++++++++++++++++++++",
"++++++++++++++++++++++++++++++++++++++++++++++++++++++++++++++++++++++++++++++++",
"++++++++++++++++++++++++++++++++++++++++++++++++++++++++++++++++++++++++++++++++",
"++++++++++++++++++++++++++++++++++++++++++++++++++++++++++++++++++++++++++++++++",
"++++++++++++++++++++++++++++++++++++++++++++++++++++++++++++++++++++++++++++++++",
"++++++++++++++++++++++++++++++++++++++++++++++++++++++++++++++++++++++++++++++++",
"++++++++++++++++++++++++++++++++++++++++++++++++++++++++++++++++++++++++++++++++",
"++++++++++++++++++++++++++++++++++++++++++++++++++++++++++++++++++++++++++++++++",
"++++++++++++++++++++++++++++++++++++++++++++++++++++++++++++++++++++++++++++++++",
"++++++++++++++++++++++++++++++++++++++++++++++++++++++++++++++++++++++++++++++++",
"++++++++++++++++++++++++++++++++++++++++++++++++++++++++++++++++++++++++++++++++",
"++++++++++++++++++++++++++++++++++++++++++++++++++++++++++++++++++++++++++++++++",
"++++++++++++++++++++++++++++++++++++++++++++++++++++++++++++++++++++++++++++++++",
"++++++++++++++++++++++++++++++++++++++++++++++++++++++++++++++++++++++++++++++++",
"+++++++++++++++++++++++++++++++++++++++++++++++++++++++++++++++ ++++++++++++++++",
"+++++++++++++++++++++++++++++++++++++++++++++++++++++++++++ +++   ++++++++++++++",
"++++++++++++++++++++++++++++++++++++++++++++++++++++++++++++        ++++++++++++",
"+++++++++++++++++++++++++++++++++++++++++++++++++++++++++++++          +++++++++",
"+++++++++++++++++++++++++++++++++++++++++++++++++++++++++++            +++++++++",
"++++++++++++++++++++++++++++++++++++++++++++++++++++++++++++            ++++++++",
"++++++++++++++++++++++++++++++++++++++++++++++++++++++++++  ++          ++++++++",
"++++++++++++++++++++++++++++++++++++++++++++++++++++XXX++@+             ++++++++",
"+++++++++++++++++++++++++++++++++++++++++++++++++XXXXXXXX+@@            ++++++++",
"+++++++++++++++++++++++++++++++++++++++++++XXXXXXXXXXXXXXX@      XX  XX ++++++++",
"++++++++++++++++++++++++++++++++++++++++XXXXXXXXXXXXXXXXXX@   X XXXXXXXX++++++++",
"+++++++++++++++++++++++++++++++++++++++XXXXXXXXXXXXXXXXXXX@@@ XXXXXXXXX+++++++++",
"++++++++++++++++++++++++++++++++++++++XXXXXXXXXXXXXXXXXXX@@@@@XXXXXXXX++++++++++",
"++++++++++++++++++++++++++++++++++++XXXXXXXXXXXXXXXXXXXXX@@@@@XXXXXXXX++++++++++",
"++++++++++++++++++++++++++++++++++XXXXXX++++++++++XXXXXX@@@@@@@XXXXXXX++++++++++",
"++++++++++++++++++++++++++++++++XXXXX+++++++++++++@@@@@@@@@@@@@@XXXXX+++++++++++",
"++++++++++++++++++++++++++++++OOXXXX++++++++++++++@@@@@@@@@@@@@@@XXX++++++++++++",
"++++++++++++++++++++++++++++OO##XXX++++++++++++++@@@@@@@@@@@@@@+.....+++++++++++",
"++++++++++++++++++++++++++OO##OO++++++++++++++++@@@@@@@@@++++++++.+.+.++++++++++",
"++++++++++++++++++++++++OO##OO++++++++++++++++++@@@@@@@@++++++++++.+++++++++++++",
"++++++++++++++++++++++OO##OO++++++++++++++++++++@@@@@@@@++++++++++++++++++++++++",
"++++++++++++++++++++OO##OO+++++++++++++++++++++@@@@@@@@+++++++++++++++++++++++++",
"++++++++++++++++++OO##OO+++++++++++++++++++++++ooooo@@@+++++++++++++++++++++++++",
"++++++++++++++++OO##OO+++++++++++++++++++++++++ ooooooo+++++++++++++++++++++++++",
"++++++++++++++OO##OO+++++++++++++++++++++++++++ ooooooo+++++++++++++++++++++++++",
"++++++++++++OO##OO+++++++++++++++++++++++++++++ oooooooo++++++++++++++++++++++++",
"++++++++++OO##OO+++++++++++++++++++++++++++++++ oooooooo++++++++++++++++++++++++",
"++++++++OO##OO++++++++++++++++++++++++++++++++  ooooooooo+++++++++++++++++++++++",
"++++++OO##OO++++++++++++++++++++++++++++++++++  ooooooooo+++++++++++++++++++++++",
"++++OO##OO++++++++++++++++++++++++++++++++++++  oooooooooo++++++++++++++++++++++",
"+++O##OO++++++++++++++++++++++++++++++++++++++  oooooooooo++++++++++++++++++++++",
"++++OO++++++++++++++++++++++++++++++++++++++++  ooooooooooo+++++++++++++++++++++",
"+++++++++++++++++++++++++++++++++++++++++++++   ooooooooooo+++++++++++++++++++++",
"+++++++++++++++++++++++++++++++++++++++++++++   ooooooooooo+++++++++++++++++++++",
"+++++++++++++++++++++++++++++++++++++++XXXXXXXXXXXoXooooooo+++++++++++++++++++++",
"+++++++++++++++++++++++++++++++++++++++XXXXXXXXXXXXXooooooo+++++++++++++++++++++",
"+++++++++++++++++++++++++++++++++++++++XXXXXXXXXXXXXXooooo++++++++++++++++++++++",
"+++++++++++++++++++++++++++++++++++++++XXXX+++..XXXXXXoooo++++++++++++++++++++++",
"+++++++++++++++++++++++++++++++++++++++XXX++++.....++++ooo++++++++++++++++++++++",
"+++++++++++++++++++++++++++++++++++++++XX+++++....++++++++++++++++++++++++++++++",
"+++++++++++++++++++++++++++++++++++++++XX+++++....++++++++++++++++++++++++++++++",
"+++++++++++++++++++++++++++++++++++++++X++++++....++++++++++++++++++++++++++++++",
"+++++++++++++++++++++++++++++++++++++++++++++++...++++++++++++++++++++++++++++++",
"+++++++++++++++++++++++++++++++++++++++++++++++...++++++++++++++++++++++++++++++",
"+++++++++++++++++++++++++++++++++++++++++++++++...++++++++++++++++++++++++++++++",
"++++++++++++++++++++++++++++++++++++++++++++++++..++++++++++++++++++++++++++++++",
"++++++++++++++++++++++++++++++++++++++++++++++++...+++++++++++++++++++++++++++++",
"++++++++++++++++++++++++++++++++++++++++++++++++....++++++++++++++++++++++++++++",
"++++++++++++++++++++++++++++++++++++++++++++++++.....+++++++++++++++++++++++++++",
"++++++++++++++++++++++++++++++++++++++++++++++++........++++++++++++++++++++++++"
};
