/* XPM */
static char *result[] = {
/* columns rows colors chars-per-pixel */
"50 50 8 1 ",
"  c black",
". c #11090B",
"X c #BC77B6",
"o c #B587C3",
"O c #A0B7EA",
"+ c #D698C2",
"@ c #CBDBFC",
"# c white",
/* pixels */
"..................................................",
"..................................................",
"..................................................",
"..................................................",
"..................................................",
"..................................................",
"..................................................",
"..................................................",
"..................................................",
"..................................................",
"..................................................",
"..................................................",
"..................................................",
"..................................................",
".........................     ....................",
"........................ @#### ...................",
"....................... @###### ..................",
"...................... @##@##@O# .................",
"...................... @#@@#@O @ .................",
"..................... @##@@#@  @@ ................",
"..................... @#@O##@ OO@ ................",
".................... @##@O#@@ OO@ ................",
".................... @#@O@#@@ OO@@ ...............",
"................... @##@O@#@ OOOO@ ...............",
"................... @#@OO@#@ oooO@ ...............",
".................. @##@O@#@@ oooo++ ..............",
".................. @#@OO@#@   OOo++ ..............",
"................. @##@O@#@@ ..  O@@ ..............",
"................. @#@OX++o@ ....    ..............",
"................ @##@XX++oo ......................",
"................ +##oX@##@o ......................",
"............... ++++oO@  @@ ......................",
"............... @+++OO .. @ ......................",
".............. @##@OO ....  ......................",
"..............   #@O .............................",
".................   ..............................",
"..................................................",
"..................................................",
"..................................................",
"..................................................",
"..................................................",
"..................................................",
"..................................................",
"..................................................",
"..................................................",
"..................................................",
"..................................................",
"..................................................",
"..................................................",
".................................................."
};
