/* XPM */
static char *result[] = {
/* columns rows colors chars-per-pixel */
"48 48 8 1 ",
"  c black",
". c #BC77B6",
"X c #FE11DC",
"o c #B587C3",
"O c #A0B7EA",
"+ c #D698C2",
"@ c #CBDBFC",
"# c white",
/* pixels */
"XXXXXXXXXXXXXXXXXXXXXXXXXXXXXXXXXXXXXXXXXXXXXXXX",
"XXXXXXXXXXXXXXXXXXXXXXXXXXXXXXXXXXXXXXXXXXXXXXXX",
"XXXXXXXXXXXXXXXXXXXXXXXXXXXXXXXXXXXXXXXXXXXXXXXX",
"XXXXXXXXXXXXXXXXXXXXXXXXXXXXXXXXXXXXXXXXXXXXXXXX",
"XXXXXXXXXXXXXXXXXXXXXXXXXXXXXXXXXXXXXXXXXXXXXXXX",
"XXXXXXXXXXXXXXXXXXXXXXXXXXXXXXXXXXXXXXXXXXXXXXXX",
"XXXXXXXXXXXXXXXXXXXXXXXXXXXXXXXXXXXXXXXXXXXXXXXX",
"XXXXXXXXXXXXXXXXXXXXXXXXXXXXXXXXXXXXXXXXXXXXXXXX",
"XXXXXXXXXXXXXXXXXXXXXXXXXXXXXXXXXXXXXXXXXXXXXXXX",
"XXXXXXXXXXXXXXXXXXXXXXXXXXXXXXXXXXXXXXXXXXXXXXXX",
"XXXXXXXXXXXXXXXXXXXXXXXXXXXXXXXXXXXXXXXXXXXXXXXX",
"XXXXXXXXXXXXXXXXXXXXXXXXXXXXXXXXXXXXXXXXXXXXXXXX",
"XXXXXXXXXXXXXXXXXXXXXXXXXXXXXXXXXXXXXXXXXXXXXXXX",
"XXXXXXXXXXXXXXXXXXXXXXXX     XXXXXXXXXXXXXXXXXXX",
"XXXXXXXXXXXXXXXXXXXXXXX @#### XXXXXXXXXXXXXXXXXX",
"XXXXXXXXXXXXXXXXXXXXXX @###### XXXXXXXXXXXXXXXXX",
"XXXXXXXXXXXXXXXXXXXXX @##@##@O# XXXXXXXXXXXXXXXX",
"XXXXXXXXXXXXXXXXXXXXX @#@@#@O @ XXXXXXXXXXXXXXXX",
"XXXXXXXXXXXXXXXXXXXX @##@@#@  @@ XXXXXXXXXXXXXXX",
"XXXXXXXXXXXXXXXXXXXX @#@O##@ OO@ XXXXXXXXXXXXXXX",
"XXXXXXXXXXXXXXXXXXX @##@O#@@ OO@ XXXXXXXXXXXXXXX",
"XXXXXXXXXXXXXXXXXXX @#@O@#@@ OO@@ XXXXXXXXXXXXXX",
"XXXXXXXXXXXXXXXXXX @##@O@#@ OOOO@ XXXXXXXXXXXXXX",
"XXXXXXXXXXXXXXXXXX @#@OO@#@ oooO@ XXXXXXXXXXXXXX",
"XXXXXXXXXXXXXXXXX @##@O@#@@ oooo++ XXXXXXXXXXXXX",
"XXXXXXXXXXXXXXXXX @#@OO@#@   OOo++ XXXXXXXXXXXXX",
"XXXXXXXXXXXXXXXX @##@O@#@@ XX  O@@ XXXXXXXXXXXXX",
"XXXXXXXXXXXXXXXX @#@O.++o@ XXXX    XXXXXXXXXXXXX",
"XXXXXXXXXXXXXXX @##@..++oo XXXXXXXXXXXXXXXXXXXXX",
"XXXXXXXXXXXXXXX +##o.@##@o XXXXXXXXXXXXXXXXXXXXX",
"XXXXXXXXXXXXXX ++++oO@  @@ XXXXXXXXXXXXXXXXXXXXX",
"XXXXXXXXXXXXXX @+++OO XX @ XXXXXXXXXXXXXXXXXXXXX",
"XXXXXXXXXXXXX @##@OO XXXX  XXXXXXXXXXXXXXXXXXXXX",
"XXXXXXXXXXXXX   #@O XXXXXXXXXXXXXXXXXXXXXXXXXXXX",
"XXXXXXXXXXXXXXXX   XXXXXXXXXXXXXXXXXXXXXXXXXXXXX",
"XXXXXXXXXXXXXXXXXXXXXXXXXXXXXXXXXXXXXXXXXXXXXXXX",
"XXXXXXXXXXXXXXXXXXXXXXXXXXXXXXXXXXXXXXXXXXXXXXXX",
"XXXXXXXXXXXXXXXXXXXXXXXXXXXXXXXXXXXXXXXXXXXXXXXX",
"XXXXXXXXXXXXXXXXXXXXXXXXXXXXXXXXXXXXXXXXXXXXXXXX",
"XXXXXXXXXXXXXXXXXXXXXXXXXXXXXXXXXXXXXXXXXXXXXXXX",
"XXXXXXXXXXXXXXXXXXXXXXXXXXXXXXXXXXXXXXXXXXXXXXXX",
"XXXXXXXXXXXXXXXXXXXXXXXXXXXXXXXXXXXXXXXXXXXXXXXX",
"XXXXXXXXXXXXXXXXXXXXXXXXXXXXXXXXXXXXXXXXXXXXXXXX",
"XXXXXXXXXXXXXXXXXXXXXXXXXXXXXXXXXXXXXXXXXXXXXXXX",
"XXXXXXXXXXXXXXXXXXXXXXXXXXXXXXXXXXXXXXXXXXXXXXXX",
"XXXXXXXXXXXXXXXXXXXXXXXXXXXXXXXXXXXXXXXXXXXXXXXX",
"XXXXXXXXXXXXXXXXXXXXXXXXXXXXXXXXXXXXXXXXXXXXXXXX",
"XXXXXXXXXXXXXXXXXXXXXXXXXXXXXXXXXXXXXXXXXXXXXXXX"
};
