/* XPM */
static char *result[] = {
/* columns rows colors chars-per-pixel */
"80 80 3 1 ",
"  c black",
". c #76428A",
"X c #FE11DC",
/* pixels */
"XXXXXXXXXXXXXXXXXXXXXXXXXXXXXXXX                XXXXXXXXXXXXXXXXXXXXXXXXXXXXXXXX",
"XXXXXXXXXXXXXXXXXXXXXXXXXXXXXXXX .............. XXXXXXXXXXXXXXXXXXXXXXXXXXXXXXXX",
"XXXXXXXXXXXXXXXXXXXXXXXXXXXXXXXX .............. XXXXXXXXXXXXXXXXXXXXXXXXXXXXXXXX",
"XXXXXXXXXXXXXXXXXXXXXXXXXXXXXXXX .............. XXXXXXXXXXXXXXXXXXXXXXXXXXXXXXXX",
"XXXXXXXXXXXXXXXXXXXXXXXXXXXXXXXX .............. XXXXXXXXXXXXXXXXXXXXXXXXXXXXXXXX",
"XXXXXXXXXXXXXXXXXXXXXXXXXXXXXXXX .............. XXXXXXXXXXXXXXXXXXXXXXXXXXXXXXXX",
"XXXXXXXXXXXXXXXXXXXXXXXXXXXXXXXX .............. XXXXXXXXXXXXXXXXXXXXXXXXXXXXXXXX",
"XXXXXXXXXXXXXXXXXXXXXXXXXXXXXXXX .............. XXXXXXXXXXXXXXXXXXXXXXXXXXXXXXXX",
"XXXXXXXXXXXXXXXXXXXXXXXXXXXXXXXX .............. XXXXXXXXXXXXXXXXXXXXXXXXXXXXXXXX",
"XXXXXXXXXXXXXXXXXXXXXXXXXXXXXXXX .............. XXXXXXXXXXXXXXXXXXXXXXXXXXXXXXXX",
"XXXXXXXXXXXXXXXXXXXXXXXXXXXXXXXX .............. XXXXXXXXXXXXXXXXXXXXXXXXXXXXXXXX",
"XXXXXXXXXXXXXXXXXXXXXXXXXXXXXXXX .............. XXXXXXXXXXXXXXXXXXXXXXXXXXXXXXXX",
"XXXXXXXXXXXXXXXXXXXXXXXXXXXXXXXX .............. XXXXXXXXXXXXXXXXXXXXXXXXXXXXXXXX",
"XXXXXXXXXXXXXXXXXXXXXXXXXXXXXXXX .............. XXXXXXXXXXXXXXXXXXXXXXXXXXXXXXXX",
"XXXXXXXXXXXXXXXXXXXXXXXXXXXXXXXX .............. XXXXXXXXXXXXXXXXXXXXXXXXXXXXXXXX",
"XXXXXXXXXXXXXXXXXXXXXXXXXXXXXXXX                XXXXXXXXXXXXXXXXXXXXXXXXXXXXXXXX",
"XXXXXXXXXXXXXXXX                XXXXXXXXXXXXXXXX                XXXXXXXXXXXXXXXX",
"XXXXXXXXXXXXXXXX .............. XXXXXXXXXXXXXXXX .............. XXXXXXXXXXXXXXXX",
"XXXXXXXXXXXXXXXX .............. XXXXXXXXXXXXXXXX .............. XXXXXXXXXXXXXXXX",
"XXXXXXXXXXXXXXXX .............. XXXXXXXXXXXXXXXX .............. XXXXXXXXXXXXXXXX",
"XXXXXXXXXXXXXXXX .............. XXXXXXXXXXXXXXXX .............. XXXXXXXXXXXXXXXX",
"XXXXXXXXXXXXXXXX .............. XXXXXXXXXXXXXXXX .............. XXXXXXXXXXXXXXXX",
"XXXXXXXXXXXXXXXX .............. XXXXXXXXXXXXXXXX .............. XXXXXXXXXXXXXXXX",
"XXXXXXXXXXXXXXXX .............. XXXXXXXXXXXXXXXX .............. XXXXXXXXXXXXXXXX",
"XXXXXXXXXXXXXXXX .............. XXXXXXXXXXXXXXXX .............. XXXXXXXXXXXXXXXX",
"XXXXXXXXXXXXXXXX .............. XXXXXXXXXXXXXXXX .............. XXXXXXXXXXXXXXXX",
"XXXXXXXXXXXXXXXX .............. XXXXXXXXXXXXXXXX .............. XXXXXXXXXXXXXXXX",
"XXXXXXXXXXXXXXXX .............. XXXXXXXXXXXXXXXX .............. XXXXXXXXXXXXXXXX",
"XXXXXXXXXXXXXXXX .............. XXXXXXXXXXXXXXXX .............. XXXXXXXXXXXXXXXX",
"XXXXXXXXXXXXXXXX .............. XXXXXXXXXXXXXXXX .............. XXXXXXXXXXXXXXXX",
"XXXXXXXXXXXXXXXX .............. XXXXXXXXXXXXXXXX .............. XXXXXXXXXXXXXXXX",
"XXXXXXXXXXXXXXXX                XXXXXXXXXXXXXXXX                XXXXXXXXXXXXXXXX",
"XXXXXXXXXXXXXXXXXXXXXXXXXXXXXXXX                XXXXXXXXXXXXXXXXXXXXXXXXXXXXXXXX",
"XXXXXXXXXXXXXXXXXXXXXXXXXXXXXXXX .............. XXXXXXXXXXXXXXXXXXXXXXXXXXXXXXXX",
"XXXXXXXXXXXXXXXXXXXXXXXXXXXXXXXX .............. XXXXXXXXXXXXXXXXXXXXXXXXXXXXXXXX",
"XXXXXXXXXXXXXXXXXXXXXXXXXXXXXXXX .............. XXXXXXXXXXXXXXXXXXXXXXXXXXXXXXXX",
"XXXXXXXXXXXXXXXXXXXXXXXXXXXXXXXX .............. XXXXXXXXXXXXXXXXXXXXXXXXXXXXXXXX",
"XXXXXXXXXXXXXXXXXXXXXXXXXXXXXXXX .............. XXXXXXXXXXXXXXXXXXXXXXXXXXXXXXXX",
"XXXXXXXXXXXXXXXXXXXXXXXXXXXXXXXX .............. XXXXXXXXXXXXXXXXXXXXXXXXXXXXXXXX",
"XXXXXXXXXXXXXXXXXXXXXXXXXXXXXXXX .............. XXXXXXXXXXXXXXXXXXXXXXXXXXXXXXXX",
"XXXXXXXXXXXXXXXXXXXXXXXXXXXXXXXX .............. XXXXXXXXXXXXXXXXXXXXXXXXXXXXXXXX",
"XXXXXXXXXXXXXXXXXXXXXXXXXXXXXXXX .............. XXXXXXXXXXXXXXXXXXXXXXXXXXXXXXXX",
"XXXXXXXXXXXXXXXXXXXXXXXXXXXXXXXX .............. XXXXXXXXXXXXXXXXXXXXXXXXXXXXXXXX",
"XXXXXXXXXXXXXXXXXXXXXXXXXXXXXXXX .............. XXXXXXXXXXXXXXXXXXXXXXXXXXXXXXXX",
"XXXXXXXXXXXXXXXXXXXXXXXXXXXXXXXX .............. XXXXXXXXXXXXXXXXXXXXXXXXXXXXXXXX",
"XXXXXXXXXXXXXXXXXXXXXXXXXXXXXXXX .............. XXXXXXXXXXXXXXXXXXXXXXXXXXXXXXXX",
"XXXXXXXXXXXXXXXXXXXXXXXXXXXXXXXX .............. XXXXXXXXXXXXXXXXXXXXXXXXXXXXXXXX",
"XXXXXXXXXXXXXXXXXXXXXXXXXXXXXXXX                XXXXXXXXXXXXXXXXXXXXXXXXXXXXXXXX",
"XXXXXXXXXXXXXXXX                XXXXXXXXXXXXXXXX                XXXXXXXXXXXXXXXX",
"XXXXXXXXXXXXXXXX .............. XXXXXXXXXXXXXXXX .............. XXXXXXXXXXXXXXXX",
"XXXXXXXXXXXXXXXX .............. XXXXXXXXXXXXXXXX .............. XXXXXXXXXXXXXXXX",
"XXXXXXXXXXXXXXXX .............. XXXXXXXXXXXXXXXX .............. XXXXXXXXXXXXXXXX",
"XXXXXXXXXXXXXXXX .............. XXXXXXXXXXXXXXXX .............. XXXXXXXXXXXXXXXX",
"XXXXXXXXXXXXXXXX .............. XXXXXXXXXXXXXXXX .............. XXXXXXXXXXXXXXXX",
"XXXXXXXXXXXXXXXX .............. XXXXXXXXXXXXXXXX .............. XXXXXXXXXXXXXXXX",
"XXXXXXXXXXXXXXXX .............. XXXXXXXXXXXXXXXX .............. XXXXXXXXXXXXXXXX",
"XXXXXXXXXXXXXXXX .............. XXXXXXXXXXXXXXXX .............. XXXXXXXXXXXXXXXX",
"XXXXXXXXXXXXXXXX .............. XXXXXXXXXXXXXXXX .............. XXXXXXXXXXXXXXXX",
"XXXXXXXXXXXXXXXX .............. XXXXXXXXXXXXXXXX .............. XXXXXXXXXXXXXXXX",
"XXXXXXXXXXXXXXXX .............. XXXXXXXXXXXXXXXX .............. XXXXXXXXXXXXXXXX",
"XXXXXXXXXXXXXXXX .............. XXXXXXXXXXXXXXXX .............. XXXXXXXXXXXXXXXX",
"XXXXXXXXXXXXXXXX .............. XXXXXXXXXXXXXXXX .............. XXXXXXXXXXXXXXXX",
"XXXXXXXXXXXXXXXX .............. XXXXXXXXXXXXXXXX .............. XXXXXXXXXXXXXXXX",
"XXXXXXXXXXXXXXXX                XXXXXXXXXXXXXXXX                XXXXXXXXXXXXXXXX",
"XXXXXXXXXXXXXXXXXXXXXXXXXXXXXXXX                XXXXXXXXXXXXXXXXXXXXXXXXXXXXXXXX",
"XXXXXXXXXXXXXXXXXXXXXXXXXXXXXXXX .............. XXXXXXXXXXXXXXXXXXXXXXXXXXXXXXXX",
"XXXXXXXXXXXXXXXXXXXXXXXXXXXXXXXX .............. XXXXXXXXXXXXXXXXXXXXXXXXXXXXXXXX",
"XXXXXXXXXXXXXXXXXXXXXXXXXXXXXXXX .............. XXXXXXXXXXXXXXXXXXXXXXXXXXXXXXXX",
"XXXXXXXXXXXXXXXXXXXXXXXXXXXXXXXX .............. XXXXXXXXXXXXXXXXXXXXXXXXXXXXXXXX",
"XXXXXXXXXXXXXXXXXXXXXXXXXXXXXXXX .............. XXXXXXXXXXXXXXXXXXXXXXXXXXXXXXXX",
"XXXXXXXXXXXXXXXXXXXXXXXXXXXXXXXX .............. XXXXXXXXXXXXXXXXXXXXXXXXXXXXXXXX",
"XXXXXXXXXXXXXXXXXXXXXXXXXXXXXXXX .............. XXXXXXXXXXXXXXXXXXXXXXXXXXXXXXXX",
"XXXXXXXXXXXXXXXXXXXXXXXXXXXXXXXX .............. XXXXXXXXXXXXXXXXXXXXXXXXXXXXXXXX",
"XXXXXXXXXXXXXXXXXXXXXXXXXXXXXXXX .............. XXXXXXXXXXXXXXXXXXXXXXXXXXXXXXXX",
"XXXXXXXXXXXXXXXXXXXXXXXXXXXXXXXX .............. XXXXXXXXXXXXXXXXXXXXXXXXXXXXXXXX",
"XXXXXXXXXXXXXXXXXXXXXXXXXXXXXXXX .............. XXXXXXXXXXXXXXXXXXXXXXXXXXXXXXXX",
"XXXXXXXXXXXXXXXXXXXXXXXXXXXXXXXX .............. XXXXXXXXXXXXXXXXXXXXXXXXXXXXXXXX",
"XXXXXXXXXXXXXXXXXXXXXXXXXXXXXXXX .............. XXXXXXXXXXXXXXXXXXXXXXXXXXXXXXXX",
"XXXXXXXXXXXXXXXXXXXXXXXXXXXXXXXX .............. XXXXXXXXXXXXXXXXXXXXXXXXXXXXXXXX",
"XXXXXXXXXXXXXXXXXXXXXXXXXXXXXXXX                XXXXXXXXXXXXXXXXXXXXXXXXXXXXXXXX"
};
