/* XPM */
static char *result[] = {
/* columns rows colors chars-per-pixel */
"80 80 8 1 ",
"  c black",
". c #361414",
"X c #652A2A",
"o c #424043",
"O c #711395",
"+ c #FE11DC",
"@ c #929DA4",
"# c #F389F5",
/* pixels */
"++++++++++++++++++++++++++++++++++++++++++++++++++++++++++++++++++++++++++++++++",
"++++++++++++++++++++++++++++++++++++++++++++++++++++++++++++++++++++++++++++++++",
"++++++++++++++++++++++++++++++++++++++++++++++++++++++++++++++++++++++++++++++++",
"++++++++++++++++++++++++++++++++++++++++++++++++++++++++++++++++++++++++++++++++",
"++++++++++++++++++++++++++++++++++++++++++++++++++++++++++++++++++++++++++++++++",
"++++++++++++++++++++++++++++++++++++++++++++++++++++++++++++++++++++++++++++++++",
"++++++++++++++++++++++++++++++++++++++++++++++++++++++++++++++++++++++++++++++++",
"++++++++++++++++++++++++++++++++++++++++++++++++++++++++++++++++++++++++++++++++",
"++++++++++++++++++++++++++++++++++++++++++++++++++++++++++++++++++++++++++++++++",
"++++++++++++++++++++++++++++++++++++++++++++++++++++++++++++++++++++++++++++++++",
"++++++++++++++++++++++++++++++++++++++++++++++++++++++++++++++++++++++++++++++++",
"++++++++++++++++++++++++++++++++++++++++++++++++++++++++++++++++++++++++++++++++",
"++++++++++++++++++++++++++++++++++++++++++++++++++++++++++++++++++++++++++++++++",
"++++++++++++++++++++++++++++++++++++++++++++++++++++++++++++++++++++++++++++++++",
"++++++++++++++++++++++++++++++++++++++++++++++++++++++++++++++++++++++++++++++++",
"++++++++++++++++++++++++++++++++++++++++++++++++++++++++++++OO++++++++++++++++++",
"++++++++++++++++++++++++++++++++++++++++++++++++++++++++++OO##O+++++++++++++++++",
"++++++++++++++++++++++++++++++++++++++++++++++++++++++++OO##OO++++++++++++++++++",
"++++++++++++++++++++++++++++++++++++++++++++++++++++++OO##OO++++++++++++++++++++",
"+++++++++++++++++++++++++++++++++++++++++++++++++++OOO##OO++++++++++++++++++++++",
"+++++++++++++++++++++++++++++++++++++++++++++++++OO###OO++++++++++++++++++++++++",
"+++++++++++++++++++++++++++++++++++++++++++++++OO##OO+++++++++++++++++++++++++++",
"++++++++++++++++++++++++++++++++++++++++++++OOO##OO+++++++++++++++++++++++++++++",
"++++++++++++++++++++++++++++++++++++++++++OO###OO+++++++++++++++++++++++++++++++",
"++++++++++++++++++++++++++++++++++++++++OO##OOO+++++++++++++++++++++++++++++++++",
"++++++++++++++++++++++++++++++++++++++OO##OO++++++++++++++++++++++++++++++++++++",
"+++++++++++++++++++++++++++++++..+..OO##OO+ + + ++++++++++++++++++++++++++++++++",
"++++++++++++++++++++++++++++++++....##OO+ +     + ++++++++++++++++++++++++++++++",
"++++++++++++++++++++++++++++++++....OO++++         +++++++++++++++++++++++++++++",
"+++++++++++++++++++++++++++++++....+++++++         +++++++.+++++++++++++++++++++",
"+++++++++++++++++++++++++++++++....+++++++   XX   ++++.+..++++++++++++++++++++++",
"+++++++++++++++++++++++++++++++....++++++++ XXXX  ++++......++++++++++++++++++++",
"+++++++++++++++++++++++++++++++.....+++++++XXXXXXX++++....++++++++++++++++++++++",
"+++++++++++++++++++++++++++++++........@@@@@XXXXX+++++.....+++++++++++++++++++++",
"++++++++++++++++++++++++++++++++.......@@@@XXXXXX++++....++.++++++++++++++++++++",
"+++++++++++++++++++++++++++++++++....@@@@@XXXXXXX+++....++++++++++++++++++++++++",
"++++++++++++++++++++++++++++++++++..@@@@@@XXXXXXXXX....+++++++++++++++++++++++++",
"+++++++++++++++++++++++++++++++++++@@@@@@@XXXXXXXXXXXX.+++++++++++++++++++++++++",
"+++++++++++++++++++++++++++++++++++@@@@@@@XXXXXXXXXXXXX+++++++++++++++++++++++++",
"+++++++++++++++++++++++++++++++++++@@@@@@@XXXXXX+++XXX++++++++++++++++++++++++++",
"+++++++++++++++++++++++++++++++++++@@@@@@@@@XX++++++++++++++++++++++++++++++++++",
"+++++++++++++++++++++++++++++++++++@@@@@@@@@@@++++++++++++++++++++++++++++++++++",
"+++++++++++++++++++++++++++++++++++@@@@@@@@@@@++++++++++++++++++++++++++++++++++",
"+++++++++++++++++++++++++++++++++++@@@@@@@@@@+++++++++++++++++++++++++++++++++++",
"++++++++++++++++++++++++++++++++++@@@@@@@@@@++++++++++++++++++++++++++++++++++++",
"++++++++++++++++++++++++++++++++++@@@@@@@@@+++++++++++++++++++++++++++++++++++++",
"++++++++++++++++++++++++++++++++++@@@@@@@@@+++++++++++++++++++++++++++++++++++++",
"+++++++++++++++++++++++++++++++++@@@@@@@@@@+++++++++++++++++++++++++++++++++++++",
"+++++++++++++++++++++++++++++++++@@@@@@@@@@+++++++++++++++++++++++++++++++++++++",
"++++++++++++++++++++++++++++++++++ooooooo  +++++++++++++++++++++++++++++++++++++",
"++++++++++++++++++++++++++++++++++oooooooo   +++++++++++++++++++++++++++++++++++",
"++++++++++++++++++++++++++++++++++ooooooooo   ++++++++++++++++++++++++++++++++++",
"++++++++++++++++++++++++++++++++++oooooooooo    ++++++++++++++++++++++++++++++++",
"+++++++++++++++++++++++++++++++++++oooooooooo    +++++++++++++++++++++++++++++++",
"++++++++++++++++++++++++++++++++++++ooooooooo     ++++++++++++++++++++++++++++++",
"++++++++++++++++++++++++++++++++++++oooooooooo     +++++++++++++++++++++++++++++",
"++++++++++++++++++++++++++++++++++++ooooooooooo     ++++++++++++++++++++++++++++",
"++++++++++++++++++++++++++++++++++++oooooooooooo     +++++++++++++++++++++++++++",
"+++++++++++++++++++++++++++++++++++.oooooooooooo...  +++++++++++++++++++++++++++",
"+++++++++++++++++++++++++++++++++++..oooooooooooo...  ++++++++++++++++++++++++++",
"+++++++++++++++++++++++++++++++++++...ooooooooooo+++++++++++++++++++++++++++++++",
"++++++++++++++++++++++++++++++++++...+oooooooooooo++++++++++++++++++++++++++++++",
"++++++++++++++++++++++++++++++++++..+++ooXXXoooooo++++++++++++++++++++++++++++++",
"++++++++++++++++++++++++++++++++++.+++XXXXXXXXXoo+++++++++++++++++++++++++++++++",
"++++++++++++++++++++++++++++++++++.+XXXXXXXXXXX+++++++++++++++++++++++++++++++++",
"++++++++++++++++++++++++++++++++++XXXXXXXXXXXX++++++++++++++++++++++++++++++++++",
"+++++++++++++++++++++++++++++XXXXXXXXXXXXXXXX+++++++++++++++++++++++++++++++++++",
"+++++++++++++++++++++++++++++XXXXXXXXXXXX+++++++++++++++++++++++++++++++++++++++",
"+++++++++++++++++++++++++++++XXXXX++++++++++++++++++++++++++++++++++++++++++++++",
"+++++++++++++++++++++++++++++XXXX+++++++++++++++++++++++++++++++++++++++++++++++",
"+++++++++++++++++++++++++++++XXX++++++++++++++++++++++++++++++++++++++++++++++++",
"+++++++++++++++++++++++++++++XXX++++++++++++++++++++++++++++++++++++++++++++++++",
"+++++++++++++++++++++++++++++XXX++++++++++++++++++++++++++++++++++++++++++++++++",
"+++++++++++++++++++++++++++++XX+++++++++++++++++++++++++++++++++++++++++++++++++",
"++++++++++++++++++++++++++++++++++++++++++++++++++++++++++++++++++++++++++++++++",
"++++++++++++++++++++++++++++++++++++++++++++++++++++++++++++++++++++++++++++++++",
"++++++++++++++++++++++++++++++++++++++++++++++++++++++++++++++++++++++++++++++++",
"++++++++++++++++++++++++++++++++++++++++++++++++++++++++++++++++++++++++++++++++",
"++++++++++++++++++++++++++++++++++++++++++++++++++++++++++++++++++++++++++++++++",
"++++++++++++++++++++++++++++++++++++++++++++++++++++++++++++++++++++++++++++++++"
};
