/* XPM */
static char *result[] = {
/* columns rows colors chars-per-pixel */
"80 80 13 1 ",
"  c black",
". c #361414",
"X c #332030",
"o c #652A2A",
"O c #46403E",
"+ c #613141",
"@ c #424043",
"# c #711395",
"$ c #FE11DC",
"% c #929DA4",
"& c #F389F5",
"* c #F6F3D8",
"= c #FCFCFB",
/* pixels */
"$$$$$$$$$$$$$$$$$$$$$$$$$$$$$$$$$$$$$$$$$$$$$$$$$$$$$$$$$$$$$$$$$$$$$$$$$$$$$$$$",
"$$$$$$$$$$$$$$$$$$$$$$$$$$$$$$$$$$$$$$$$$$$$$$$$$$$$$$$$$$$$$$$$$$$$$$$$$$$$$$$$",
"$$$$$$$$$$$$$$$$$$$$$$$$$$$$$$$$$$$$$$$$$$$$$$$$$$$$$$$$$$$$$$$$$$$$$$$$$$$$$$$$",
"$$$$$$$$$$$$$$$$$$$$$$$$$$$$$$$$$$$$$$$$$$$$$$$$$$$$$$$$$$$$$$$$$$$$$$$$$$$$$$$$",
"$$$$$$$$$$$$$$$$$$$$$$$$$$$$$$$$$$$$$$$$$$$$$$$$$$$$$$$$$$$$$$$$$$$$$$$$$$$$$$$$",
"$$$$$$$$$$$$$$$$$$$$$$$$$$$$$$$$$$$$$$$$$$$$$$$$$$$$$$$$$$$$$$$$$$$$$$$$$$$$$$$$",
"$$$$$$$$$$$$$$$$$$$$$$$$$$$$$$$$$$$$$$$$$$$$$$$$$$$$$$$$$$$$$$$$$$$$$$$$$$$$$$$$",
"$$$$$$$$$$$$$$$$$$$$$$$$$$$$$$$$$$$$$$$$=$$$$$$$$$$$$$$$$$$$$$$$$$$$$$$$$$$$$$$$",
"$$$$$$$$$$$$$$$$$$$$$$$$$$$$$$$$$$$$$$$$=$$$$$$$$$$$$$$$$$$$$$$$$$$$$$$$$$$$$$$$",
"$$$$$$$$$$$$$$$$$$$$$$$$$$$$$$$$$$$$$$$$=$$$$$$$$$$$$$$$$$$$$$$$$$$$$$$$$$$$$$$$",
"$$$$$$$$$$$$$$$$$$$$$$$$$$$$$$$$$$$$$$$$=$$$$$$$$$$$$$$$$=$$$$$$$$$$$$$$$$$$$$$$",
"$$$$$$$$$$$$$$$$$$$$$$$$$$$$$$$$$$$$$$$$=$$$$$$$$$$$$$$$$=$$$$$$$$$$$$$$$$$$$$$$",
"$$$$$$$$$$$$$$$$$$$$$$$$$$$$$$$$$$$$$$$$=$$$$$$$$$$$$$$$=$$$$$$$$$$$$$$$$$$$$$$$",
"$$$$$$$$$$$$$$$$$$$$$$$$$$$$$$$$$$$$$$$$=$$$$$$$$$$$$$$=$$$$$$$$$$$$$$$$$$$$$$$$",
"$$$$$$$$$$$$$$$$$$$$$$$$$$$$$$$$$$$$$$$$=$$$$$$$$$$$$$$=$$$$$$$$$$$$$$$$$$$$$$$$",
"$$$$$$$$$$$$$$$$$$$$$$$$$$$$$$$$$$$$$$$$=$$$$$$$$$$$$$=$$$$$$$$$$$$$$$$$$$$$$$$$",
"$$$$$$$$$$$$$$$$$$$$$$$$$$$$$$$$$$============$$$$$$$$=$$$$$$$$$$$$$$$$$$$$$$$$$",
"$$$$$$$$$$$$$$$$$$$$$$$$$$$$$$$$======$==$$=$=====$$$=$$$$$$$$$$$$$$$$$$$$$$$$$$",
"$$$$$$$$$$$$$$$$$$$$$$$$$$$$$====$$$$=$$=$$$$=$$$====$$$$$$$$$$$$$$$$$$$$$$$$$$$",
"$$$$$$$$$$$$$$$$$$$$$$$$$$$=====$$$$$$$$=$$$$=$$$$$===$$$$$$$$$$$$$$$$$$$$$$$$$$",
"$$$$$$$$$$$$$$$$$$$$$$$$$$==$$$$$$$$$$$$=$$$$$$$$$$=$==$$$$$$$$$$$$$$$$$$$$$$$$$",
"$$$$$$$$$$$$$$$$$$$*$$$$$==$$$$$$$$$$$$$=$$$$$$$$$=$$$==$$$$$$$$$$$$$$$$$$$$$$$$",
"$$$$$$$$$$$$$$$$$$$$*$$$==$$$$$$$$$$$$$$=$$$$$$$$$=$$$$==$$$$$$$$$$$$$$$$$$$$$$$",
"$$$$$$$$$$$$$$$$$$$$$*$==$$$$$$$$$$$$$$$=$$$$$$$$=$$$$$$==$$$$$$$$$$$$$$$$$$$$$$",
"$$$$$$$$$$$$$$$$$$$$$$===$$$$$$$$$$$$$$$=$$$$$$$$=$$$$$$$==$$$$$$$$$$$$$$$$$$$$$",
"$$$$$$$$$$$$$$$$$$$$$====$$$=$$=$$$$$$$$=$$$$$$$=$$$$$$$$$=$$$$$$$$$$$$$$$$$$$$$",
"$$$$$$$$$$$$$$$$$$$$==$$=$$$=$$=$$$$$$$$=$$$$$$$=$$$$$$$$$$$$$$$$$$$$$$$$$$$$$$$",
"$$$$$$$$$$$$$$$$$$$$=$$$===$=$$=$$$$$$$$=$$$$$$=$$$$$$$$$$$$$$$$$$$$$$$$$$$$$$$$",
"$$$$$$$$$$$$$$$$$$$==$=$=$=$=$$=$$=$$=$$==$$$$$$$$$$$$$$$$$$$$$$$$$$$$$$$$$$$$$$",
"$$$$$$$$$$$$$$$$$$$=$$=$=$======$==$===$=$$$$$$$$$$$$$$$$$$$$=$$$$$$$$$$$$$$$$$$",
"$$$$$$$$$$$$$$$$$$==$$=$=$==....== == =$=$$=$$$$=$$$$$$$$$$$$==$$$$$$$$$$$$$$$$$",
"$$$$$$$$$$$$$$$$$$=$$$=====......     ===$$=$$$$=$$$$$$$$$$$$$=$$$$$$$$$$$$$$$$$",
"$$$$$$$$$$$$$$$$$$=$====...... .      = =$$=$$$$=$$$$$$$$$$$$$=$$$$$$$$$$$$$$$$$",
"$$$$$$$$$$$$$$$$$$====........          =====$$$=$$$=$$$$$$$$$=$$$$$$$$$$$$$$$$$",
"$$$$$$$$$$$$$$$$$===X..........         %%%===$$=$$$=$$$$$$$$$==$$$$$$$$$$$$$$$$",
"$$$$$$$$$$$$$$$$$=$=.....====..   ooo   %oo..====$$$=$$$$$$$$$$=$$$$$$$$$$$$$$$$",
"$$$$$$$$$$$$$$$$$=$=....=$===..% ooooo %oooo..===$$$=$$$$$$$$$$=$$$$***$$$$$$$$$",
"$$$$$$$$$$$$$$$$$=$===..=$$$==.%ooooooo%oooo....=====$$$$$$$$$======$$$$$$$$$$$$",
"$$$$$$$$$$========$$$===$$$$$==%%oooooo%oooooo.....==$$$$*****$=$$$$$$$$$$$$$$$$",
"$$$$$$$$$$$$$$$$$======$$$$$$$=%%ooooo%%o#&+oooooXoo==$$$$$$$$$=$$$$$$$$$$$$$$$$",
"$$$$$$$$$$$$$$$$$=$$$$$$$$$$$$=%%%oooo%%%#&#ooooooooo=$$$$$$$$$=$$$$$$$$$$$$$$$$",
"$$$$$$$$$$$$$$$$$=$$$$$$$$$$$$=%%%%oo%%%%#&#%oooooooo=$$$$$$$$$=$$$$$$$$$$$$$$$$",
"$$$$$$$$$$$$$$$$$=$$$$$$$$$$$$==%%%%%%%%%#&#%%Xooooo==$$$$$$$$$=$$$$$$$$$$$$$$$$",
"$$$$$$$$$$$$$$$$$$$$$$$$$$$$$$$==%%%%%%%%#&#%%XXXoo=$$$$$$$$$$$=$$$$$$$$$$$$$$$$",
"$$$$$$$$$$$$$$$$$$$$$$$$$$$$$$$$==%%%%%%%#&#%%=====$$$$$$$$$$$==$$$$$$$$$$$$$$$$",
"$$$$$$$$$$$$$$$$$$$$$$$$$$$$$$$$$===%%%%%#&#%==$$$$$$$$$$$$$$$=$$$$$$$$$$$$$$$$$",
"$$$$$$$$$$$$$$$$$$$$$$$$$$$$$$$$$$$==%%%%#&#%=$$$$$$$$$$$$$$$$=$$$$$$$$$$$$$$$$$",
"$$$$$$$$$$$$$$$$$$=$$$$$$$$$$$$$$$==  %%%#&#%=$$$$$$$$$$$$$$$$=$$$$$$$$$$$$$$$$$",
"$$$$$$$$$$$$$$$$$$==$$$$$$=$$$$$$$=    %%#&#%=====$$$$$**$$$$==$$$$$$$$$$$$$$$$$",
"$$$$$$$$$$$$$$$$$$$=$$$$==$$$$$$$==      #&#@@@@@====$$$$**$$=$$$$$$$$$$$$$$$$$$",
"$$$$$$$$$$$$$$$$$$$==$==$$$$=$$$==       #&#@@@@@@@===$$$$$===$$$$$$$$$$$$$$$$$$",
"$$$$$$$$$$$$$$$$$$$$==$$$$$$=$$==        #&#@@@@@@@@@==$$$$$===$$$$$$$$$$$$$$$$$",
"$$$$$$$$$$$$$$$$$$$===$$$$=$=$==         #&#@@@@@@@@@@==$$$==$$**$$$$$$$$$$$$$$$",
"$$$$$$$$$$$$$$$$$$=$$==$$$=$===          #&#@@@@@@@@@@O=$$==$$$$$**$$$$$$$$$$$$$",
"$$$$$$$$$$$$$$$$==$$$$==$$=$===          #&#@@@@@@@@@@@=$==$$$$$$$$*$$$$$$$$$$$$",
"$$$$$$$$$$$$$$$=$$$$$$$==$====           #&#@@@@@@@oo@@===$$$$$$$$$$$$$$$$$$$$$$",
"$$$$$$$$$$$$$==$$$$$$$$$==== =          =#&#=@@@@@ooooo==$$$$$$$$$$$$$$$$$$$$$$$",
"$$$$$$$$$$$$=$$$$$$$$$$$===            ==#&#==@@..ooooo==$$$$$$$$$$$$$$$$$$$$$$$",
"$$$$$$$$$$$$$$$$$$$$$$$$=.==...       =$=#&#===@...ooo.=$$$$$$$$$$$$$$$$$$$$$$$$",
"$$$$$$$$$$$$$$$$$$$$$$$$=..===...=   $$$=#&#====......=$$$$$$$$$$$$$$$$$$$$$$$$$",
"$$$$$$$$$$$$$$$$$$$$$$$$=....===..==$$$$=#&#=........=$$$$$$$$$$$$$$$$$$$$$$$$$$",
"$$$$$$$$$$$$$$$$$$$$$$$$=X.....======$$$=#&#=......==$$$$$$$$$$$$$$$$$$$$$$$$$$$",
"$$$$$$$$$$$$$$$$$$$$$$$$==..........=====#&#=...===$$$$$$$$$$$$$$$$$$$$$$$$$$$$$",
"$$$$$$$$$$$$$$$$$$$$$$$$====...........==#&#...==$$$$$$$$$$$$$$$$$$$$$$$$$$$$$$$",
"$$$$$$$$$$$$$$$$$$$$$$$$=$$======.......=#&#...=$$$$$$$$$$$$$$$$$$$$$$$$$$$$$$$$",
"$$$$$$$$$$$$$$$$$$$$$$$$$$$$$$$$====....=#&#..==$$$$$$$$$$$$$$$$$$$$$$$$$$$$$$$$",
"$$$$$$$$$$$$$$$$$$$$$$$$$$$$$$$$$$$==...=#&#=.=$$$$$$$$$$$$$$$$$$$$$$$$$$$$$$$$$",
"$$$$$$$$$$$$$$$$$$$$$$$$$$$$$$$$$$$$==..=#&#===$$$$$$$$$$$$$$$$$$$$$$$$$$$$$$$$$",
"$$$$$$$$$$$$$$$$$$$$$$$$$$$$$$$$$$$$$=..=#&#=$$$$$$$$$$$$$$$$$$$$$$$$$$$$$$$$$$$",
"$$$$$$$$$$$$$$$$$$$$$$$$$$$$$$$$$$$$$=.==#&#=$$$$$$$$$$$$$$$$$$$$$$$$$$$$$$$$$$$",
"$$$$$$$$$$$$$$$$$$$$$$$$$$$$$$$$$$$$$====#&#=$$$$$$$$$$$$$$$$$$$$$$$$$$$$$$$$$$$",
"$$$$$$$$$$$$$$$$$$$$$$$$$$$$$$$$$$$$$$$$=#&#=$$$$$$$$$$$$$$$$$$$$$$$$$$$$$$$$$$$",
"$$$$$$$$$$$$$$$$$$$$$$$$$$$$$$$$$$$$$$$$=#&#=$$$$$$$$$$$$$$$$$$$$$$$$$$$$$$$$$$$",
"$$$$$$$$$$$$$$$$$$$$$$$$$$$$$$$$$$$$$$$$=#&#=$$$$$$$$$$$$$$$$$$$$$$$$$$$$$$$$$$$",
"$$$$$$$$$$$$$$$$$$$$$$$$$$$$$$$$$$$$$$$$==#=$$$$$$$$$$$$$$$$$$$$$$$$$$$$$$$$$$$$",
"$$$$$$$$$$$$$$$$$$$$$$$$$$$$$$$$$$$$$$$$$$=$$$$$$$$$$$$$$$$$$$$$$$$$$$$$$$$$$$$$",
"$$$$$$$$$$$$$$$$$$$$$$$$$$$$$$$$$$$$$$$$$$$$$$$$$$$$$$$$$$$$$$$$$$$$$$$$$$$$$$$$",
"$$$$$$$$$$$$$$$$$$$$$$$$$$$$$$$$$$$$$$$$$$$$$$$$$$$$$$$$$$$$$$$$$$$$$$$$$$$$$$$$",
"$$$$$$$$$$$$$$$$$$$$$$$$$$$$$$$$$$$$$$$$$$$$$$$$$$$$$$$$$$$$$$$$$$$$$$$$$$$$$$$$",
"$$$$$$$$$$$$$$$$$$$$$$$$$$$$$$$$$$$$$$$$$$$$$$$$$$$$$$$$$$$$$$$$$$$$$$$$$$$$$$$$"
};
