/* XPM */
static char *result[] = {
/* columns rows colors chars-per-pixel */
"80 80 26 1 ",
"  c #1C1817",
". c #152322",
"X c #152F33",
"o c #332030",
"O c #46403E",
"+ c #5E3440",
"@ c #613141",
"# c #1E5557",
"$ c #2E4B4D",
"% c #3A4D4F",
"& c #5A7475",
"* c #991531",
"= c #DD160F",
"- c #984754",
"; c #E27C57",
": c #907E8A",
"> c #FE11DC",
", c #5D848C",
"< c #6A8285",
"1 c #728C8B",
"2 c #89A3A2",
"3 c #9EBAB9",
"4 c #A7BFAE",
"5 c #DDCFBA",
"6 c #F6F3D8",
"7 c #FCFCFB",
/* pixels */
">>>>>>>>>>>>>>>>>>>>>>>>>>>>>>>>>>>>>>>>>>>>>>>>>>>>>>>>>>>>>>>>>>>>>>>>>>>>>>>>",
">>>>>>>>>>>>>>>>>>>>>>>>>>>>>>>>>>>>>>>>>>>>>>>>>>>>>>>>>>>>>>>>>>>>>>>>>>>>>>>>",
">>>>>>>>>>>>>>>>>>>>>>>>>>>>>>>>>>7>7>>>>>>>>>>>>>>>>>>>>>>>>>>>>>>>>>>>>>>>>>>>",
">>>>>>>>>>>>>>>>>>>>>>>>>>>>>>>>>>7>7>>>>>>>>>>>>>>>>>>>>>>>>>>>>>>>>>>>>>>>>>>>",
">>>>>>>>>>>>>>>>>>>>>>>>>>>>>>>>>>7>7>>>>7>>>>>>>>>>>>>>>>>>>>>>>>>>>>>>>>>>>>>>",
">>>>>>>>>>>>>>>>>>>>>>>>>>>>>>>>>7777>>>>7>>>>>>>>>>>>>>>>>>>>>>>>>>>>>>>>>>>>>>",
">>>>>>>>>>>>>>>>>>>>>>>>>>>>>>>>>7277>>>>7>>>>>>>>>>>>>>>>>>>>>>>>>>>>>>>>>>>>>>",
">>>>>>>>>>>>>>>>>>>>>>>>>>>>>>>>>7277>>>>7>>7>>>>>>>>>>>>>>>>>>>>>>>>>>>>>>>>>>>",
">>>>>>>>>>>>>>>>>>>>>>>>>>>>>>>>77277>>>>7>>7>>>>>>>>>>>>>7>>>>>>>>>>>>>>>>>>>>>",
">>>>>>>>>>>>>>>>>>>>>>>>>>>>>>>77%277>>7>7>>7>>>>>>>>>>>>>7>>>>>>>>>>>>>>>>>>>>>",
">>>>>>>>>>>>>>>>>>>>>>>>>>>>>>>7%%&77>>7>7>777>7>>>>>>>>>7>>>>>>>>>>>>>>>>>>>>>>",
">>>>>>>>>>>>>>>>>>>>>>>>>>>>>>>77X2&7>>7>7>757>7>>>>>>>>7>>>>>>>>>>>>>>>>>>>>>>>",
">>>>>>>>>>>>>>>>>>>>>>>>>>>>>>>>7%2&7>>7777757>7>>>>>>>>7>>>>>>>>>>>>>>>>>>>>>>>",
">>>>>>>>>>>>>>>>>>>>>>>>>>>>>>>77%2&7>>7757:77>7>>>>>>>7>>>>>>>>>>>>>>>>>>>>>>>>",
">>>>>>>>>>>>>>>>>>>>>>>>>>>>>>>7%X2&7>777777777>>>>>>>>7>>>>>>>>>>>>>>>>>>>>>>>>",
">>>>>>>>>>>>>>>>>>>>>>>>>>>>>>>77%%2777:7:::7>77777>>>7>>>>>>>>>>>>>>>>>>>>>>>>>",
">>>>>>>>>>>>>>>>>>>>>>>>>>>>>>7>7%%2&77:::::7>7>>>7777>>>>>>>>>>>>>>>>>>>>>>>>>>",
">>>>>>>>>>>>>>>>>>>>>>>>>>>>777>7%%2&:::::::7>7>>>>>777>>>>>>>>>>>>>>>>>>>>>>>>>",
">>>>>>>>>>>>>>>>>>>>>>>>>>>77>>>7%&2&:::::::77>>>>>>7>77>>>>>>>>>>>>>>>>>>>>>>>>",
">>>>>>>>>>>>>>>>>>>>6>>>>>77>>>>7%&2&:::::::77>>>>>7>>>77>>>>>>>>>>>>>>>>>>>>>>>",
">>>>>>>>>>>>>>>>>>>>>6>>>77>>>>>7%%2&:::::::77>>>>>7>>>>77>>>>>>>>>>>>>>>>>>>>>>",
">>>>>>>>>>>>>>>>>>>>>>6>77>>>>>>7%%&%&:::5:77>>>>>7>>>>>>77>>>>>>>>>>>>>>>>>>>>>",
">>>>>>>>>>>>>>>>>>>>>>>777>>>>>>7%X%2&::5::7>>>>>>7>>>>>>>77>>>>>>>>>>>>>>>>>>>>",
">>>>>>>>>>>>>>>>>>>>>>7777>>>7>>7X%&%&555:77>>>>>7>>>>>>>>>7>>>>>>>>>>>>>>>>>>>>",
">>>>>>>>>>>>>>>>>>>>>77>>7>>>7>>7%%&2&55::777>>>>7>>>>>>>>>>>>>>>>>>>>>>>>>>>>>>",
">>>>>>>>>>>>>>>>>>>>>7>>>777>7>>7%%%&2&:::7#7>>>7>7>>>>>>>>>>>>>>>>>>>>>>>>>>>>>",
">>>>>>>>>>>>>>>>>>>>77>7>7>7>7>>7%%%&2&::77#77>>>>7>>>>>>>>>>>>>>>>>>>>>>>>>>>>>",
">>>>>>>>>>>>>>>>>>>>7>>7>7>777777%%&&2&O:7X##7>>>>7>>>>>>>>>>>7>>>>>>>>>>>>>>>>>",
">>>>>>>>>>>>>>>>>>>77>>7>7>77;;OO%%%&2&::7XXX7>>>>7>>7>>>>>>>>77>>>>>>>>>>>>>>>>",
">>>>>>>>>>>>>>>>>>>7>>>77777-@O:O%%%22&::7X#7777>>77>7>>>>>>>>>7>>>>>>>>>>>>>>>>",
">>>>>>>>>>>>>>>>>>>7>7777----O::.%.XX&&6%7XX7%<77777>7>>>>>>>>>7>>>>>>>>>>>>>>>>",
">>>>>>>>>>>>>>>>>>>7777---@@@O:.& X.....<<-X%<33<<77>7>>>>>>>>>7>>>>>>>>>>>>>>>>",
">>>>>>>>>>>>>>>>>>777o-@@@@@@@@..&XXXX..36o-<36663<7>7>>>>>>>>>77>>>>>>>>>>>>>>>",
">>>>>>>>>>>>>>>>>>7>7@oOo@7777..X%X%%%XX.@-;-<3336<7777>7>>>>>>>7>>>>>>>>>>>>>>>",
">>>>>>>>>>>>>>>>>>7>7@@o@oo777..&X..%..X@@@;;%<<<<<%377>7>>>>>>>7>>>>666>>>>>>>>",
">>>>>>>>>>>>>>>>>>7>777@@oooo7 .X.&&2&&.oo@-;X%%%%%%777>7>>>>>>777777>>>>>>>>>>>",
">>>>>>>>>>>77777777>>>777@@oooo ..X&.&X#.@@@--;XX%<3%:777>66666>7>>>>>>>>>>>>>>>",
">>>>>>>>>>>>>>>>>>777777777@@ooo ......X#o##@--;-;oX:::77>>>>>>>7>>>>>>>>>>>>>>>",
">>>>>>>>>>>>>>>>>>7>>>>>>>777@@o.. .%. .XXX##@@@-;oOO:::7>>>>>>>7>>>>>>>>>>>>>>>",
">>>>>>>>>>>>>>>>>>7>>>>>>>>>777@.XX.....XX,,XX@@o@oOooo:7>>>>>>>7>>>>>>>>>>>>>>>",
">>>>>>>>>>>>>>>>>>7>>>>>>>>>>>777.XXX.XXXX##X..o@oOOOOoo7>>>>>>>7>>>>>>>>>>>>>>>",
">>>>>>>>>>>>>>>>>>>>>>>>>>>>>>>>77..XX..XX,,.#.ooo*ooo777>>>>>>>7>>>>>>>>>>>>>>>",
">>>>>>>>>>>>>>>>>>>>>>>>>>>>>>>>>77.......11#.o=**77777>>>>>>>>77>>>>>>>>>>>>>>>",
">>>>>>>>>>>>>>>>>>>>>>>>>>>>>>>>>>777OOOoo##oo=o*o7>>>>>>>>>>>>7>>>>>>>>>>>>>>>>",
">>>>>>>>>>>>>>>>>>>>>>>>>>>>>>>>>>>>77OOO*,1OO*oo77777>>>>>>>>>7>>>>>>>>>>>>>>>>",
">>>>>>>>>>>>>>>>>>>7>>>>>>>>>>>>>>>77+oO**,4o*=oooooo777>>>>>>>7>>>>>>>>>>>>>>>>",
">>>>>>>>>>>>>>>>>>>77>>>>>>7>>>>>>>7+Ooo=*,4=oooooo @7>>66>>>>77>>>>>>>>>>>>>>>>",
">>>>>>>>>>>>>>>>>>>>7>>>>77>>>>>>>77::oooo,4oOOOO:o -7>>>>66>>7>>>>>>>>>>>>>>>>>",
">>>>>>>>>>>>>>>>>>>>77>77>>>>7>>>77:OOoooo,4ooOoO:::777>>>>>777>>>>>>>>>>>>>>>>>",
">>>>>>>>>>>>>>>>>>>>>77>>>>>>7>>77:OOOoooo,4OoooOO::::77>>>>>777>>>>>>>>>>>>>>>>",
">>>>>>>>>>>>>>>>>>>>777>>>>7>7>77::OOooooo14oooO:O:::::77>>>77>>66>>>>>>>>>>>>>>",
">>>>>>>>>>>>>>>>>>>7>>77>>>7>777:OOOoooooo14ooOO::O::OOO7>>77>>>>>66>>>>>>>>>>>>",
">>>>>>>>>>>>>>>>>77>>>>77>>7>777:OOooOOooo14oooOO:::OooO7>77>>>>>>>>6>>>>>>>>>>>",
">>>>>>>>>>>>>>>>7>>>>>>>77>7777O::oOOooooo,4oooooO:Oo62O777>>>>>>>>>>>>>>>>>>>>>",
">>>>>>>>>>>>>>77>>>>>>>>>7777O7OOOOoooooo7,477ooOOOo&26277>>>>>>>>>>>>>>>>>>>>>>",
">>>>>>>>>>>>>7>>>>>>>>>>>777$62OOoooooo777,4777oooo&&22777>>>>>>>>>>>>>>>>>>>>>>",
">>>>>>>>>>>>>>>>>>>>>>>>>7$77&oOooooo777>7,47>77ooooo&77o7>>>>>>>>>>>>>>>>>>>>>>",
">>>>>>>>>>>>>>>>>>>>>>>>>7.$777ooo7777>>>7,177777ooooo7777>>>>>>>>>>>>>>>>>>>>>>",
">>>>>>>>>>>>>>>>>>>>>>>>>7.6XX777oo77>>>>7,477@@@ooooo77>>>>>>>>>>>>>>>>>>>>>>>>",
">>>>>>>>>>>>>>>>>>>>>>>>>7o6..oo777777>>>7,477@ooooo777>>>>>>>>>>>>>>>>>>>>>>>>>",
">>>>>>>>>>>>>>>>>>>>>>>>>77oooooooooo77777,477@oo7777>>>>>>>>>>>>>>>>>>>>>>>>>>>",
">>>>>>>>>>>>>>>>>>>>>>>>>7777ooooooooooo77,47@@@77>>>>>>>>>>>>>>>>>>>>>>>>>>>>>>",
">>>>>>>>>>>>>>>>>>>>>>>>>7>>777777ooooooo7147@oo7>>>>>>>>>>>>>>>>>>>>>>>>>>>>>>>",
">>>>>>>>>>>>>>>>>>>>>>>>>>>>>>>>>7777oooo7147oo77>>>>>>>>>>>>>>>>>>>>>>>>>>>>>>>",
">>>>>>>>>>>>>>>>>>>>>>>>>>>>>>>>>>>>77oo@7,177o7>>>>>>>>>>>>>>>>>>>>>>>>>>>>>>>>",
">>>>>>>>>>>>>>>>>>>>>>>>>>>>>>>>>>>>>77@@7,17777>>>>>>>>>>>>>>>>>>>>>>>>>>>>>>>>",
">>>>>>>>>>>>>>>>>>>>>>>>>>>>>>>>>>>>>>7@@7,47>>>>>>>>>>>>>>>>>>>>>>>>>>>>>>>>>>>",
">>>>>>>>>>>>>>>>>>>>>>>>>>>>>>>>>>>>>>7@77,47>>>>>>>>>>>>>>>>>>>>>>>>>>>>>>>>>>>",
">>>>>>>>>>>>>>>>>>>>>>>>>>>>>>>>>>>>>>7777147>>>>>>>>>>>>>>>>>>>>>>>>>>>>>>>>>>>",
">>>>>>>>>>>>>>>>>>>>>>>>>>>>>>>>>>>>>>>>>71,7>>>>>>>>>>>>>>>>>>>>>>>>>>>>>>>>>>>",
">>>>>>>>>>>>>>>>>>>>>>>>>>>>>>>>>>>>>>>>>71,7>>>>>>>>>>>>>>>>>>>>>>>>>>>>>>>>>>>",
">>>>>>>>>>>>>>>>>>>>>>>>>>>>>>>>>>>>>>>>>7,77>>>>>>>>>>>>>>>>>>>>>>>>>>>>>>>>>>>",
">>>>>>>>>>>>>>>>>>>>>>>>>>>>>>>>>>>>>>>>>777>>>>>>>>>>>>>>>>>>>>>>>>>>>>>>>>>>>>",
">>>>>>>>>>>>>>>>>>>>>>>>>>>>>>>>>>>>>>>>>>>>>>>>>>>>>>>>>>>>>>>>>>>>>>>>>>>>>>>>",
">>>>>>>>>>>>>>>>>>>>>>>>>>>>>>>>>>>>>>>>>>>>>>>>>>>>>>>>>>>>>>>>>>>>>>>>>>>>>>>>",
">>>>>>>>>>>>>>>>>>>>>>>>>>>>>>>>>>>>>>>>>>>>>>>>>>>>>>>>>>>>>>>>>>>>>>>>>>>>>>>>",
">>>>>>>>>>>>>>>>>>>>>>>>>>>>>>>>>>>>>>>>>>>>>>>>>>>>>>>>>>>>>>>>>>>>>>>>>>>>>>>>",
">>>>>>>>>>>>>>>>>>>>>>>>>>>>>>>>>>>>>>>>>>>>>>>>>>>>>>>>>>>>>>>>>>>>>>>>>>>>>>>>",
">>>>>>>>>>>>>>>>>>>>>>>>>>>>>>>>>>>>>>>>>>>>>>>>>>>>>>>>>>>>>>>>>>>>>>>>>>>>>>>>",
">>>>>>>>>>>>>>>>>>>>>>>>>>>>>>>>>>>>>>>>>>>>>>>>>>>>>>>>>>>>>>>>>>>>>>>>>>>>>>>>"
};
