/* XPM */
static char *result[] = {
/* columns rows colors chars-per-pixel */
"80 80 10 1 ",
"  c black",
". c #361414",
"X c #652A2A",
"o c #424043",
"O c #711395",
"+ c #FE11DC",
"@ c #929DA4",
"# c #A7BFAE",
"$ c #F389F5",
"% c None",
/* pixels */
"++++++++++++++++++++++++++++++++++++++++++++++++++++++++++++++++++++++++++++++++",
"++++++++++++++++++++++++++++++++++++++++++++++++++++++++++++++++++++++++++++++++",
"++++++++++++++++++++++++++++++++++++++++++++++++++++++++++++++++++++++++++++++++",
"++++++++++++++++++++++++++++++++++++++++++++++++++++++++++++++++++++++++++++++++",
"+++++++++++++++++++++++++++++++++++++++++++++++++++O++++++++++++++++++++++++++++",
"++++++++++++++++++++++++++++++++++++++++++++++++++O$O+++++++++++++++++++++++++++",
"++++++++++++++++++++++++++++++++++++++++++++++++++O$O+++++++++++++++++++++++++++",
"+++++++++++++++++++++++++++++++++++++++++++++++++O$O++++++++++++++++++++++++++++",
"++++++++++++++++++++++++++++++++++++++++++++++++#O$O++++++++++++++++++++++++++++",
"++++++++++++++++++++++++++++++++++++++++++++++++O$O+++++++++++++++++++++++++++++",
"++++++++++++++++++++++++++++++++++++++++++++++++O$O+++++++++++++++++++++++++++++",
"+++++++++++++++++++++++++++++++++++++++++++++++O$O++++++++++++++++++++++++++++++",
"++++++++++++++++++++++++++++++++++++++++++++++O$$O++++++++++++++++++++++++++++++",
"++++++++++++++++++++++++++++++++++++++++++++++O$O+++++++++++++++++++++++++++++++",
"+++++++++++++++++++++++++++++++++++++++++++++O$O++++++++++++++++++++++++++++++++",
"+++++++++++++++++++++++++++++++++++++++++++++O$O++++++++++++++++++++++++++++++++",
"++++++++++++++++++++++++++++++++++++++++++++O$O+++++++++++++++++++++++++++++++++",
"++++++++++++++++++++++++++++++++++++++++++++O$O+++++++++++++++++++++++++++++++++",
"+++++++++++++++++++++++++++++++++++++++++++O$O++++++++++++++++++++++++++++++++++",
"+++++++++++++++++++++++++++++++++++++++++++O$O++++++++++++++++++++++++++++++++++",
"++++++++++++++++++++++++++++++++++++++++++O$O+++++++++++++++++++++++++++++++++++",
"+++++++++++++++++++++++++++++++++++++++++O$O++++++++++++++++++++++++++++++++++++",
"+++++++++++++++++++++++++++++++++++++++++O$O++++++++++++++++++++++++++++++++++++",
"++++++++++++++++++++++++++++++++++++++++O$O+++++++++++++++++++++++++++++++++++++",
"++++++++++++++++++++++++++++++++++++++++O$O+++++++++++++++++++++++++++++++++++++",
"+++++++++++++++++++++++++++++++++++++++O$O++++++++++++++++++++++++++++++++++++++",
"+++++++++++++++++++++++++++++++++++++++O$O++++++++++++++++++++++++++++++++++++++",
"++++++++++++++++++++++++++++++++++++++O$O+++++++++++++++++++++++++++++++++++++++",
"++++++++++++++++++++++++++++++++++++++O$O+++++++++++++++++++++++++++++++++++++++",
"+++++++++++++++++++++++++++++++++++++O$O++++++++++++++++++++++++++++++++++++++++",
"++++++++++++++++++++++++++++++++++ +  $O++++++++++++++++++++++++++++++++++++++++",
"+++++++++++++++++++++++++++++++++    $  ++++++++++++++++++++++++++++++++++++++++",
"+++++++++++++++++++++++++++++++++      +++++++++++++++++++++++++++++++++++++++++",
"+++++++++++++++++++++++++++++++++      +++++++++++++++++++++++++++++++++++++++++",
"+++++++++++++++++++++++++++++++++ X      +++...+++++++++++++++++++++++++++++++++",
"+++++++++++++++++++++++++++++++..XXX    ++++++...+++++++++++++++++++++++++++++++",
"+++++++++++++++++++++++++++++....XXXX %%@XXX+XXXX.++++++++++++++++++++++++++++++",
"++++++++++++++++++++++++++++...XXXXXXXX@@XXXXXXXXX++++++++++++++++++++++++++++++",
"+++++++++++++++++++++++++++....XXXXXXXX@@@@XXXXXX+++++++++++++++++++++++++++++++",
"+++++++++++++++++++++++++....XXXXXXX@@@@@@@@XXX+++++++++++++++++++++++++++++++++",
"++++++++++++++++++++++++XXXXXXXXXXXX@@@@@@@@++++++++++++++++++++++++++++++++++++",
"+++++++++++++++++++++++XXXXXXXXX+XX@@@@@@@@@++++++++++++++++++++++++++++++++++++",
"+++++++++++++++++++++++XXXXXXX+++@@@@@@@@@@@++++++++++++++++++++++++++++++++++++",
"++++++++++++++++++++++++XXXX+++++@@@@@@@@@@+++++++++++++++++++++++++++++++++++++",
"++++++++++++++++++++++++++++++++++@@@@@@@@@+++++++++++++++++++++++++++++++++++++",
"++++++++++++++++++++++++++++++++++@@@@@@@@@+++++++++++++++++++++++++++++++++++++",
"+++++++++++++++++++++++++++++++++++@@@@@@@@+++++++++++++++++++++++++++++++++++++",
"++++++++++++++++++++++++++++++++++++@@@@@@++++++++++++++++++++++++++++++++++++++",
"+++++++++++++++++++++++++++++++++++@@@@@@@++++++++++++++++++++++++++++++++++++++",
"++++++++++++++++++++++++++++++++++ooo@@@@@o+++++++++++++++++++++++++++++++++++++",
"+++++++++++++++++++++++++++++++++ooooooooooo++++++++++++++++++++++++++++++++++++",
"++++++++++++++++++++++++++++++++oooooooooooo++++++++++++++++++++++++++++++++++++",
"+++++++++++++++++++++++++++++++o ooooooooo o +++++++++++++++++++++++++++++++++++",
"++++++++++++++++++++++++++++++o o ooooooooo o+++++++++++++++++++++++++++++++++++",
"++++++++++++++++++++++++++++     o o oooo  o +++++++++++++++++++++++++++++++++++",
"++++++++++++++++++++++++++++        ++++ o    ++++++++++++++++++++++++++++++++++",
"++++++++++++++++++++++++++         +++++      ++++++++++++++++++++++++++++++++++",
"++++++++++++++++++++++++++        +++++++..X.+++++++++++++++++++++++++++++++++++",
"+++++++++++++++++++++++++   .... +++++++++XXX+++++++++++++++++++++++++++++++++++",
"++++++++++++++++++++++++++...XXX.+++++++++XXX+++++++++++++++++++++++++++++++++++",
"+++++++++++++++++++++++++++.XXXXXX+++++++++XX+++++++++++++++++++++++++++++++++++",
"++++++++++++++++++++++++++++XXXXXXXX+++++++XXX++++++++++++++++++++++++++++++++++",
"++++++++++++++++++++++++++++++XXXXXX+++++++XXX++++++++++++++++++++++++++++++++++",
"++++++++++++++++++++++++++++++++XXXXX++++++XXX++++++++++++++++++++++++++++++++++",
"+++++++++++++++++++++++++++++++++XXXX++++++XXX++++++++++++++++++++++++++++++++++",
"++++++++++++++++++++++++++++++++++XXX++++++XXX++++++++++++++++++++++++++++++++++",
"++++++++++++++++++++++++++++++++++XXX++++++XXX++++++++++++++++++++++++++++++++++",
"+++++++++++++++++++++++++++++++++++XX+++++++XX++++++++++++++++++++++++++++++++++",
"+++++++++++++++++++++++++++++++++++XX+++++++++++++++++++++++++++++++++++++++++++",
"+++++++++++++++++++++++++++++++++++X++++++++++++++++++++++++++++++++++++++++++++",
"++++++++++++++++++++++++++++++++++++++++++++++++++++++++++++++++++++++++++++++++",
"++++++++++++++++++++++++++++++++++++++++++++++++++++++++++++++++++++++++++++++++",
"++++++++++++++++++++++++++++++++++++++++++++++++++++++++++++++++++++++++++++++++",
"++++++++++++++++++++++++++++++++++++++++++++++++++++++++++++++++++++++++++++++++",
"++++++++++++++++++++++++++++++++++++++++++++++++++++++++++++++++++++++++++++++++",
"++++++++++++++++++++++++++++++++++++++++++++++++++++++++++++++++++++++++++++++++",
"++++++++++++++++++++++++++++++++++++++++++++++++++++++++++++++++++++++++++++++++",
"++++++++++++++++++++++++++++++++++++++++++++++++++++++++++++++++++++++++++++++++",
"++++++++++++++++++++++++++++++++++++++++++++++++++++++++++++++++++++++++++++++++",
"++++++++++++++++++++++++++++++++++++++++++++++++++++++++++++++++++++++++++++++++"
};
