/* XPM */
static char *result[] = {
/* columns rows colors chars-per-pixel */
"80 80 26 1 ",
"  c #1C1817",
". c #152322",
"X c #152F33",
"o c #332030",
"O c #46403E",
"+ c #613141",
"@ c #1A495A",
"# c #1E5557",
"$ c #2E4B4D",
"% c #3A4D4F",
"& c #5A7475",
"* c #991531",
"= c #DD160F",
"- c #984754",
"; c #E27C57",
": c #907E8A",
"> c #FE11DC",
", c #25B19F",
"< c #5D848C",
"1 c #6A8285",
"2 c #728C8B",
"3 c #89A3A2",
"4 c #9EBAB9",
"5 c #A7BFAE",
"6 c #DDCFBA",
"7 c #F6F3D8",
/* pixels */
">>>>>>>>>>>>>>>>>>>>>>>>>>>>>>>>>>>>>>>>>>>>>>>>>>>>>>>>>>>>>>>>>>>>>>>>>>>>>>>>",
">>>>>>>>>>>>>>>>>>>>>>>>>>>>>>>>>>>>>>>>>>>>>>>>>>>>>>>>>>>>>>>>>>>>>>>>>>>>>>>>",
">>>>>>>>>>>>>>>>>>>>>>>>>>>>>>>>>>>>>@@@@@@>>>>>>>>>>>>>>>>>>>>>>>>>>>>>>>>>>>>>",
">>>>>>>>>>>>>>>>>>>>>>>>>>>>>>>>>>>>>>>>>>>>,>>>>>>>>>>>>>>>>>>>>>>>>>>>>>>>>>>>",
">>>>>>>>>>>>>>>>>>>>>>>>>>>>>>>>>>>>>>>>>>>>>>>>>>>>>>@@>>>>>>>>>>>>>>>>>>>>>>>>",
">>>>>>>>>>>>>>>>>>>>>>>>>>>>>>>>>>>>>>>,>>>>>>>>>>>>>>>@@@>>>>>>>>>>>>>>>>>>>>>>",
">>>>>>>>>>>>>>>>>>>>>>>>>>>>>>>>>>3>>>>>>>>>>>>>>>>>>>>>>@@@>>>>>>>>>>>>>>>>>>>>",
">>>>>>>>>>>>>>>>>>>>>>>>>>>>>>>>>>3>>>>>>>>>>>>>>>>>>>>>>>>@@@>>>>>>>>>>>>>>>>>>",
">>>>>>>>>>>>>>>>>>>>>>>>>>>>>>>>>>3>>>>>>>>>>>>>>>>>>>>>>>>>>@@>>>>>>>>>>>>>>>>>",
">>>>>>>>>@>>>>>>>>>>>>>>>>>>>>>>>%3>>>>>>>>>>>>>>>>>>>>>>>>>>>@@>>>>>>>>>>>>>>>>",
">>>>>>>>>>@>>>>>>>>>>>>>>>>>>>>>%%&>>>>>>>>>>>>>>>>>>>>>>>>>>>>>>>>>>>>>>>>>>>>>",
">>>>>>>>>>>>>>>>>@>>>>>>>>>>>>>>>X3&>>>>>>>>>>>>>>>>>>>>>>>>>>>>>>>>>>>>>>>>>>>>",
">>>>>>>>>>>>>>>>@@>>>>>>>>>>>>>>>%3&>>>6>>>>>>>>>>>>>>>>>>>>>>>>>>>>>>>>>>>>>>>>",
">>>>>>>>>>>>>>>>@>>>>>>>>>>>>>>>>%3&>>>6>>>>>>>>>>>>>>>>>>>>>>>>>>>>>>>>>>>>>>>>",
">>>>>>>>>>>>>>>@@>>>>>>>>>>>>>>>%X3&>6>>:>>>>>>>>>>>>>>>>>>>>>>>>>>>>>>>>>>>>>>>",
">>>>>>>>>>>>>>@@>>>>>>>>>>>>>>>>>%%3>>:>:>>>>>>>>>>>>>>>>>>>>>>>>>>>>>>>>>>>>>>>",
">>>>>>>>>>>>>@@>>>>>>>>>>>>>>,>:>%%3&>:::>>>>>>>>>>>>>>>>>>>>>>>>>>>>>>>>>>>>>>>",
">>>>>>>>>>>>@@>>>>>>>>>>>,>>>>>>:%%3&::::>>>>>>>>>>>>>>>>>>>>>>>>>>>>>>>>>>>>>>>",
">>>>>>>>>>>>@>>>>>>>>>>>>,>>>>>>:%&3&::::>>>>>>>>>,>>>>>>>>>>>>>>>>>>>>>>>>>>>>>",
">>>>>>>>>>>@@>>>>>>>>>>>>>>>>>>>:%&3&::::>>>>>>>>>,>>>>>>>>>>>>>>>>>>>>>>>>>>>>>",
">>>>>>>>>>>>>>>>>>>>>>>>>,>>>>>>:%%3&::::>>>>>>>>>>>>>>>>>>>>>>>>>>>>>>>>>>>>>>>",
">>>>>>>>>>>>>>>>>>>>>>>>>>>,>>>>:%%&%&:::>>>>>>>>>>>>>>>>>>>>>>>>>>>>>>>>>>>>>>>",
">>>>>>>>>>>>>>>>>>>>>>>,>>>>>>>>>%X%3&::6:>>>>>>>>,>>>>>>>>>>>>>>>>>>>>>>>>>>>>>",
">>>>>>>>>>>>>>>>>>>>>>>,>>>>>>>>>X%&%&:6::>>>>>>>>>>>>>>>>>>>>>>>>>>>>>>>>>>>>>>",
">>>>>>>>>>>>>>>>>>>>>>>>>>>>>>>>>%%&3&666:>>>>>>>>>>>,>>>>>>>>>>>>>>>>>>>>>>>>>>",
">>>>>>>>>>>>>>>>>>>>>>>>>>>>>>>>>%%%&3&6::>>>>>>>>>>>,>>>>>>>>>>>>>>>>>>>>>>>>>>",
">>>>>>>>>>>>>>>>>>>>>>>>>>>>>>>>>%%%&3&:::>>>>>>>>>>>>>>>>>>>>>>>>>>>>>>>>>>>>>>",
">>>>>>>>>>>>>>>>>>>>>>>>>>>>>>>>>%%&&3&::>>>>>>>>>>>>,>>>>>>>>>>>>>>>>>>>>>>>>>>",
">>>>>>>>>>>>>>>>>>>>>>>>>>>>>;;OO%%%&3&O:>>>>>>>>>>>>>>>>>>>>>>>>>>>>>>>>>>>>>>>",
">>>>>>>>>>>>>>>>>>>>>>>>>----+O:O%%%33&::>>#>>>>>>>>>>>>,>>>>>>>>>>>>>>>>>>@>>>>",
">>>>>>>>>>>>>>>>>>>>>>>---++-O::.%.XX&&:%>>#>>>>>>>>>>>>,>>>>>>>>>>>>>>>>>>@@>>>",
">>>>>>>>>>>>>>>>>>>>>>-++++++O:.& X.....>>X##%1>>>>>>>>>>>>>>>>>>>>>>>>>>>>>@>>>",
">>>>>>>>>>>>>>>>>>>>>+>O>+>>+++..&XXXX..11XXX14411>>>>>>>>>>>>>>>>>>>>>>>>>>@>>>",
">>>>>>>>>>>>>>>>>>>>>oo>+>>>>>..X%X%%%XX.7X#1477741>>>>>>>>>>>>>>>>>>>>>>>>>@>>>",
">>>>>>>>>>>>>>>>>>>>>oooo>>>>>..&X..%..X..XX%144471>>>>>>>>>>>>>>>>>>>>>>>>>@>>>",
">>>>>>>@>>>>>>>>>>>>>++oooo>>> .X.&&3&&...-XX%11111%4>>>>>>>>>>>>>>>>>>>>>>>@>>>",
">>>>>>>@>>>>>>>>>>>>>>>++oooo>> ..X&.&X.. o-.X%%%%%%7>>>>>>>>>>>>>>>>>>>>>>>@>>>",
">>>>>>>@>>>>>>>>>>>>>>>>>++oooo> ....... +-;-.XXX%14%:>>>>>>>>>>>>>>>>>>>>>>@>>>",
">>>>>>>@>>>>>>>>>>>>>>>>>>>++oooo. .%. .+++;;O..%1XX:::>>>>>>>>>>>>>>>>>>>>>>>>>",
">>>>>>>@>>>>>>>>>>>>>>>>>>>>>++o.X......oo+-;-;O...OO:::>>>>>>>>>>>>>>>>>>>>>>>>",
">>>>>>>@>>>>>>>>>>>>>>>>>>>>>,>+.XX....#X+++---;-;oOooo:>>>>>>>>>>>>>>>>>>>>>>>>",
">>>>>>>@>>>>>>>>>>>>>>>>>>>>>>>>>.XXX.XX#o##++++-;oOOOoo>>>>>>>>>>>>>>>>>>>>>>>>",
">>>>>>>@>>>>>>>>>>>>>>>>>>>>>>>>>>..XX..XXX##X++o+oooo,>>>>>>>>>>>>>>>>>>>>>>>>>",
">>>>>>>>>>>>>>>>>>>>>>>>>>>,>>>>>>>......X<<..oo+o>>>>,>>>>>>>>>>>>>>>>>>>>>>>>>",
">>>>>>>>>>>>>>>>>>>>>>>>>>>>>>>>>>>>>OOOoo##oo=ooo>>>>>>,>>>>>>>>>>>>>>>>>>>>>>>",
">>>>>>>>>>>>>>>>>>>>>>>>>>>,>>>>>>>>>OOOO*<<o#*oo>>>>>>>>>>>>>>>>>>>>>>>>>>>>>>>",
">>>>>>>>>>>>>>>>>>>>>>>>>>>>>>>>>>>>>OOO**22#*=oooooo>>>>>>>>>>>>>>>>>>>>>>@>>>>",
">>>>>>>>>>>>>>>>>>>>>>>>>>>>>>>>>>>>66:O=*##=oooooo +>>>>>>>>>>>>>>>>>>>>>@@>>>>",
">>>>>>>>>>>>>>>>>>>>>>>>>>>>>>>>>:OOOOOooo<2oO:++oo ->>>>>>>>>>>>>>>>>>>>>@>>>>>",
">>>>>>>>>>>>>>>>>>>>>>>>>>>>>>>:::OOOOoooo<5ooOo>o-->>>>>>>>>>>>>>>>>>>>>>@>>>>>",
">>>>>>>>>>>>>>>>>>>>>>>>>>>>>::::OO:Oooooo<5Oooo:>>>>>>>>>>>>>>>>>>>>>>>>@@>>>>>",
">>>>>>>>>>>>>>>>>>>>>>>>>>>>:::::O:OOOoooo<5oooO::>>>>>>>>>>>>>>>>>>>>>>>@>>>>>>",
">>>>>>>>>>>>>>>>>>>>>>>>>>>OOO::O::OOooooo<5oooOOO:>>>>>>>>>>>>>>>>>>>>>@@>>>>>>",
">>>>>>>>>>>>>>>>>>>>>>>>>>>OooO:::OOoooooo<5OOooOO::>>>>>>>>>>>>>>>>>>>>@>>>>>>>",
">>>>>>>>>>>>>>>>>>>>>>>>>>>O37oO:Ooooooooo25ooOOo::O:>>>>>>>>>>>>>>>>>>@@>>>>>>>",
">>>>>>>>>>>>@>>>>>>>>>>>>>O373&oOOOoo>>>>>25ooooOOOOOO>>>>>>>>>>>>>>>>>@>>>>>>>>",
">>>>>>>>>>>>@@>>>>>>>>>>>>o&33&&oooo>>>>>>25ooooooOO3$$>>>>>>>>>>>>>>>>@>>>>>>>>",
">>>>>>>>>>>>>@@>>>>>>>>>>>oo&&ooooo>>>>>>><5>>oooooOo&$$$>>>>>>>>>>>>>>>>>>>>>>>",
">>>>>>>>>>>>>>@>>>>>>>>>>>>>oooooo>>>>>>>><5>>>>>oooo&X$.>>>>>>>>>>>>>>>>>>>>>>>",
">>>>>>>>>>>>>>>>>>>>>>>>>>>>>ooooo+++>>>>><5>>>>oooooXXX.>>>>>>>>>>>>>>>>>>>>>>>",
">>>>>@>>>>>>>>>>>>>>>>>>>>>>>>>ooooo+>>>>><5>>>oooooo...o>>>>>>>>>>>>>>>>>>>>>>>",
">>>>@>>>>>>>>>>>>>>>>>>>>>>>>>>>>>oo+>>>>><2>>oooooooooo>>>>>>>>>>>>>>>>>>>>>>>>",
">>>>>>>>>>>>>>>>>>>>>>>>>>>>>>>>>>>+++>>>><5oooooooooo>>>>>>>>>>>>>>>>>>>>>>>>>>",
">>>>>>>>>>>>>>>>>>>>>>>>>>>>>>>>>>>oo+>>>><5ooooo>>>>>>>>>>>>>>>>>>>>>>>>>>>>>>>",
">>>>>>>>>>>>>>>>>>>>>>>>>>>>>>>>>>>>oo>>>><5oo>>>>>>>>>>>>>>>>>>>>>>>>>>>>>>>>>>",
">>>>>>>>>>>>>>>>>>>>>>>>>>>>>>>>>>>>o>>>>><5o>>>>>>>>>>>>>>>>>>>>>>>>>>>>>>>>>>>",
">>>>>>>>>>>>>>>>>>>>>>>>>>>>>>>>>>>>>>>>>>25>>>>>>>>>>>>>>>>>>>>>>>>>>>>>>>>>>>>",
">>>>>>>>>>>>>>>>>>>>>>>>>>>>>>>>>>>>>>>>>>25>>>>>>>>>>>>>>>>>>>>>>>>>>>>>>>>>>>>",
">>>>>>>>>>>>>>>>>>>>>>>>>>>>>>>>>>>>>>>>>><2>>>>>>>>>>>>>>>>>>>>>>>>>>>>>>>>>>>>",
">>>>>>>>>>>>>>>>>>>>>>>>>>>>>>>>>>>>>>>>>><2>>>>>>>>>>>>>>>>>>>>>>>>>>>>>>>>>>>>",
">>>>>>>>>>>>>>>>>>>>>>>>>>>>>>>>>>@@>>>>>><5>>>>@@@>>>>>>>>>>>>>>>>>>>>>>>>>>>>>",
">>>>>>>>>>>>>>>>>>>>>>>>>>>>>>>>>>>@@@@@@@@@@@@@@>>>>>>>>>>>>>>>>>>>>>>>>>>>>>>>",
">>>>>>>>>>>>>>>>>>>>>>>>>>>>>>>>>>>>>>>>>>25>>>>>>>>>>>>>>>>>>>>>>>>>>>>>>>>>>>>",
">>>>>>>>>>>>>>>>>>>>>>>>>>>>>>>>>>>>>>>>>>2<>>>>>>>>>>>>>>>>>>>>>>>>>>>>>>>>>>>>",
">>>>>>>>>>>>>>>>>>>>>>>>>>>>>>>>>>>>>>>>>>2<>>>>>>>>>>>>>>>>>>>>>>>>>>>>>>>>>>>>",
">>>>>>>>>>>>>>>>>>>>>>>>>>>>>>>>>>>>>>>>>>>>>>>>>>>>>>>>>>>>>>>>>>>>>>>>>>>>>>>>",
">>>>>>>>>>>>>>>>>>>>>>>>>>>>>>>>>>>>>>>>>>>>>>>>>>>>>>>>>>>>>>>>>>>>>>>>>>>>>>>>",
">>>>>>>>>>>>>>>>>>>>>>>>>>>>>>>>>>>>>>>>>>>>>>>>>>>>>>>>>>>>>>>>>>>>>>>>>>>>>>>>",
">>>>>>>>>>>>>>>>>>>>>>>>>>>>>>>>>>>>>>>>>>>>>>>>>>>>>>>>>>>>>>>>>>>>>>>>>>>>>>>>",
">>>>>>>>>>>>>>>>>>>>>>>>>>>>>>>>>>>>>>>>>>>>>>>>>>>>>>>>>>>>>>>>>>>>>>>>>>>>>>>>"
};
