/* XPM */
static char *result[] = {
/* columns rows colors chars-per-pixel */
"80 80 28 1 ",
"  c #0D1E1C",
". c #161110",
"X c #281E22",
"o c #301A2C",
"O c #162928",
"+ c #0D2B30",
"@ c #163136",
"# c #443E3C",
"$ c #612D3F",
"% c #175456",
"& c #2A4A4C",
"* c #374C4E",
"= c #43555A",
"- c #597576",
"; c #9B0C2E",
": c #DE0B0B",
"> c #9A4553",
", c #E37D57",
"< c #917F8B",
"1 c #FE11DC",
"2 c #5D858D",
"3 c #6A8386",
"4 c #728D8C",
"5 c #8AA5A3",
"6 c #9FBBBA",
"7 c #A8C0AF",
"8 c #DED0BC",
"9 c #F6F3D9",
/* pixels */
"11111111111111111111111111111111111111111111111111111111111111111111111111111111",
"11111111111111111111111111111111111111111111111111111111111111111111111111111111",
"11111111111111111111111111111111111111111111111111111111111111111111111111111111",
"11111111111111111111111111111111111111111111111111111111111111111111111111111111",
"11111111111111111111111111111111111111111111111111111111111111111111111111111111",
"11111111111111111111111111111111111111111111111111111111111111111111111111111111",
"11111111111111111111111111111111111111111111111111111111111111111111111111111111",
"11111111111111111111111111111111111111111111111111111111111111111111111111111111",
"11111111111111111111111111111111111111111111111111111111111115111111111111111111",
"11111111111111111111111111111111111111111111111111111111111115111111111111111111",
"11111111111111111111111111111111111111111111111111111111111115111111111111111111",
"111111111111111111111111111111111111111111111111111111111111*5111111111111111111",
"11111111111111111111111111111111111111111111111111111111111**-111111111111111111",
"11111111111111111111111111111111111111111111111111111111111+5-111111111111111111",
"11111111111111111111111111111111111111111811111111111111111*5-111111111111111111",
"1111111111111111111111111111111111111111<<11111111111111111*5-111111111111111111",
"1111111111111111111111111111111111111111<81811111111111111*+5-111111111111111111",
"111111111111111111111111111111111111111#<8<<11111111111111**51111111111111111111",
"111111111111111111111111111111111111111#<<8<11111111111111*5-1111111111111111111",
"1111111111111111111111111111111111111111#<8881111111111111*5-1111111111111111111",
"1111111111111111111111111111111111111111#<<88111811111111*-5-1111111111111111111",
"1111111111111111111111111111111111111111##<8<118111111111*-5-1111111111111111111",
"1111111111111111111111111111111111111111##<8<11<111111111**5-1111111111111111111",
"1111111111111111111111111111111111111111#<<<881<<1111111**-*-1111111111111111111",
"1111111111111111111111111111111111111111#<<<<<8<<1111111*+*5-1111111111111111111",
"1111111111111111111111111111111111111111#<####<<<#111111+*-*-1111111111111111111",
"1111111111111111111111111111111111111111###########11111**-5-1111111111111111111",
"1111111111111111111111111111111111111188###88888#####11***-5-1111111111111111111",
"111111111111111111111111111oo11111<8<8<#<8<888888<66911***-5-1111111111111111111",
"111111111111111111111111111oooo$,,##<<# #  ###<<8<36@1**--5-   11111111111111111",
"111111111111111111111111111$$o,>$>>#<<#######<#<<<336@*5*-5- =3 1111111111111111",
"11111111111111111111111111111,,,>$>$#############8@3-3* *55-=3=3@111111111111111",
"11111111111111111111111111,,$$,$$$$$##111#########@  * ++--+ -3=@,11111111111111",
"1111111111111111111111%11,,>>$$1o;o:ooo1==@ #####   -.+     +-9936>>111111111111",
"11111111111111111111%1%%O$>>>1111o1o:ooo=@@@=#@#     -+++  +-66336>$>>1111111111",
"111111111111111111111%2%%$$$11111111o;:o@@ @==3@    +**  -  *=633#$$$>>>11111111",
"1111111111111111111114%2%O11111111111o;;:o @@==@@   -*+-5 *+3931$$$1$$$$>1111111",
"11111111111111111111%74%4%11111111111;;:;:  @@@@@@   **+  ++111111111$1#11111111",
"11111111111111111117%4411111111111111o;oo;Xo:o;;@     OO-5  1111111111$111111111",
"111111111111111111%44%%1111111111111<#o#o:;:oo;:       O O 111111111111111111111",
"111111111111111117%2111%11111111111<<<###ooo;:= o##<<<oOOO1111111111111111111111",
"111111111111111177%111111111111111<<<<##o#oooo oo####<<<ooo111111111111111111111",
"11111111111111%772111111111111111<<<<<#<ooo##ooooo#####<<<$111111111111111111111",
"11111111111117%%2111111111111111###<<#<<#oooooooooooo####<<<11111111111111111111",
"111111111111772%1111111111111111o<<#<<<##ooooooo##########5&&1111111111111111111",
"11111111117%72111111111111111111o---#<#oooo11oooooooooooo.o-&&&11111111111111111",
"1111111117%%2111111111111111111 @@&&-###oo11111oooooooooo.o-@& 11111111111111111",
"1111111177%21111111111111111111o &&&@##oo111111oooooooooooo@@@ 11111111111111111",
"1111117772111111111111111111111o @@@o.oo111111ooo1ooooooooo   o11111111111111111",
"11111777211111111111111111111111ooo  oo1111111$oo1111ooooooooo111111111111111111",
"11117722111111111111111111111111oooooooo111111$$111111111ooo11111111111111111111",
"11777211111111111111111111111111111oooooo11111$$11111111111111111111111111111111",
"1777211111111111111111111111111111111$$oo111111$11111111111111111111111111111111",
"77221111111111111111111111111111111111$$o111111111111111111111111111111111111111",
"72111111111111111111111111111111111111$$oo11111111111111111111111111111111111111",
"21111111111111111111111111111111111111>$oo11111111111111111111111111111111111111",
"1111111111111111111111111111111111111>o$oo11111111111111111111111111111111111111",
"1111111111111111111111111111111111111>>$o111111111111111111111111111111111111111",
"1111111111111111111111111111111111111>$oo111111111111111111111111111111111111111",
"1111111111111111111111111111111111111o$oo111111111111111111111111111111111111111",
"11111111111111111111111111111111111111oo1111111111111111111111111111111111111111",
"11111111111111111111111111111111111111111111111111111111111111111111111111111111",
"11111111111111111111111111111111111111111111111111111111111111111111111111111111",
"11111111111111111111111111111111111111111111111111111111111111111111111111111111",
"11111111111111111111111111111111111111111111111111111111111111111111111111111111",
"11111111111111111111111111111111111111111111111111111111111111111111111111111111",
"11111111111111111111111111111111111111111111111111111111111111111111111111111111",
"11111111111111111111111111111111111111111111111111111111111111111111111111111111",
"11111111111111111111111111111111111111111111111111111111111111111111111111111111",
"11111111111111111111111111111111111111111111111111111111111111111111111111111111",
"11111111111111111111111111111111111111111111111111111111111111111111111111111111",
"11111111111111111111111111111111111111111111111111111111111111111111111111111111",
"11111111111111111111111111111111111111111111111111111111111111111111111111111111",
"11111111111111111111111111111111111111111111111111111111111111111111111111111111",
"11111111111111111111111111111111111111111111111111111111111111111111111111111111",
"11111111111111111111111111111111111111111111111111111111111111111111111111111111",
"11111111111111111111111111111111111111111111111111111111111111111111111111111111",
"11111111111111111111111111111111111111111111111111111111111111111111111111111111",
"11111111111111111111111111111111111111111111111111111111111111111111111111111111",
"11111111111111111111111111111111111111111111111111111111111111111111111111111111"
};
