/* XPM */
static char *result[] = {
/* columns rows colors chars-per-pixel */
"80 80 26 1 ",
"  c #1C1817",
". c #152322",
"X c #152F33",
"o c #332030",
"O c #46403E",
"+ c #613141",
"@ c #1E5557",
"# c #2E4B4D",
"$ c #3A4D4F",
"% c #5A7475",
"& c #991531",
"* c #DD160F",
"= c #984754",
"- c #E27C57",
"; c #907E8A",
": c #FE11DC",
"> c #5D848C",
", c #6A8285",
"< c #728C8B",
"1 c #5AD5B6",
"2 c #89A3A2",
"3 c #9EBAB9",
"4 c #A7BFAE",
"5 c #DDCFBA",
"6 c #B8F4CF",
"7 c #F6F3D8",
/* pixels */
"::::::::::::::::::::::::::::::::::::::::::::::::::::::::::::::::::::::::::::::::",
"::::::::::::::::::::::::::::::::::::6:::::::::::::::::::::::::1:::::::::::::::::",
":::::::::::::::::::::::::::::::::::11111111::::11::::::::::::1::::::::::::::::::",
":::::::::::::::::::::::::::::::111116::::6::::::11111:::::::::::::::::::::::::::",
"::::::::::::::::::::::::::::1111::::6::::6::::::::::1111::::::::::::::::::::::::",
"::::::::::::::::::::::::::111:::::::6:::::::6::::::::::111::::::::::::::::::::::",
"::::::::::::::::::::::::::::::::::2:6:::::::6::::::::::::111::::::::::::::::::::",
"::::::::::::::::::::::::::::::::::2::::6:::::::::::::::::::111::::::::::::::::::",
"::::::::::::::::::::::::::::::::::2::::6:::::::::::::::::::::11:::::::::::::::::",
":::::::::1:::::::::::::::::::::::$2::::6::::::::::::::::::::::11::::::::::::::::",
"::::::::::1::::::::11:::::::::::$$%:::::::::::::::::::::::::::::::::::::::::::::",
":::::::::::1:::::111:::::::::::::X2%::::::::::::::::::::::::::::::::::::::::::::",
"::::::::::::1:::11:::::::::::::::$2%::::::5:::::::::::::::::::::::::::::::::::::",
"::::::::::::::::1::::::::::::::::$2%::::::5:::::::::::::::::::::::::::::::::::::",
":::::::::::::::11:::::::::::::::$X2%::::5:;:::::::::::::::::::::::::::::::::::::",
"::::::::::::::11:::::::::::::::::$$2::::;:;:::::::::::::::::::::::::::::::::::::",
":::::::::::::11::::::::::::::::::$$2%:;:;;;:::::::::::::::::::::::::::::::::::::",
"::::::::::::11:::::::::::::::::::$$2%:;;;;;:::::::::::::::::::::::::::::::::::::",
"::::::::::::1::::::::::::::::6:::$%2%;;;;;;:::::::::::::::::::::::::::::::::::::",
":::::::::::11::::::::::::6:::::::$%2%;;;;;;:::::::::::::::::::::::::::::::::::::",
":::::::::::1:::::::::::::6:::::::$$2%;;;;;;:::::::6:::::::::::::::::::::::::::::",
"::::::::::11:::::::::::::6:::6:::$$%$%;;;;;:::::::6:::::::::::::::::::::::::::::",
"::::::::::>::::::::::::::6:::6:::$X$2%;;5;::::::::::::::::::::::::::::::::::::::",
":::::::::1>::::::::::::::6:6:::::X$%$%;5;;::::::::6:::::::::::::::::::::::::::::",
":::::::::1:::::::::::::6:::6:::::$$%2%555;::::::::6:::::::::::::::::::::::::::::",
":::::::::1:::::::::::::6:::6:::::$$$%2%5;;::::::::6:::::::::::::::::::::::::::::",
"::::::::1>:::::::::::::6:::::::::$$$%2%;;;::::::::6::6::::::::::::::::::::::::::",
"::::::::1::::::::::::::6:::::::::$$%%2%;;::::::::::::6::::::::::::::::::::::::::",
"::::::::1::::::::::::::6:::::--OO$$$%2%O;::::::::::::6::::::::::::::::::::::::::",
"::::::::1::::::::::::::::====+O;O$$$22%;;::@:::::::::6:::::::::::::::::::::1::::",
":::::::11::::::::::::::===++=O;;.$.XX%%;$::@:::::::::6:::::::::::::::::::::11:::",
":::::::1::::::::::::::=++++++O;.% X.....::X@@$,::::::6::6:::::::::::::::::::1:::",
":::::::1:::::::::::::+:O:+::+++..%XXXX..,,XXX,33,,::::::6:::::::::::::::::::1:11",
":::::::1:::::::::::::oo:+:::::..X$X$$$XX.7X@,37773,:::::6:::::::::::::::::::1:::",
":111:::1:::::::::::::oooo:::::..%X..$..X..XX$,3337,:::::6:::::::::::::::::::1:::",
":::::::1:::::::::::::++oooo::: .X.%%2%%...=XX$,,,,,$3:::6:::::::::::::::::::1:::",
":::::::1:::::::::::::::++oooo:: ..X%.%X.. o=.X$$$$$$7:::::::::::::::::::::::1:::",
":::::::1:::::::::::::::::++oooo: ....... +=-=.XXX$,3$;::::::::::::::::::::::1:::",
":::::::1:::::::::::::::::::++oooo. .$. .+++--O..$,XX;;;:::::::::::::::::::::1:::",
":::::::1:::::::::::::::::::::++o.X......oo+=-=-O...OO;;;::::::::::::::::::::1:::",
":::::::1:::::::::::::::::::::::+.XX....@X+++===-=-oOooo;::::::::::::::::::::1:::",
":::::::1:::::::::::::::::::::::::.XXX.XX@o@@++++=-oOOOoo::::::::::::::::::::1:::",
":::::::1:::::::::::::::::::::6::::..XX..XXX@@X++o+oooo::::::::::::::::::::::1:::",
":::::::::::::::::::::::::::::6:::::......X>>..oo+o:::::::::::::::::::::::::11:::",
":::::::::::::::::::::::::::::6:::::::OOOoo@@oo*ooo::::6::::::::::::::::::::1::::",
":::::::::::::::::::::::::::6:::::::::OOOO&>>o@&oo:::::6::::::::::::::::::::1::::",
":::::::::::::::::::::::::::6:::::::::OOO&&<<@&*oooooo:6:6::::::::::::::::::1::::",
":::::::::::::::::::::::::::6::::::::55;O*&@@*oooooo +:6:::::::::::::::::::11::::",
":::::::::::::::::::::::::::6:::::;OOOOOooo><oO;++oo =:6:::::::::::::::::::1:::::",
":::::::::::::::::::::::::::::::;;;OOOOoooo>4ooOo:o==::::6:::::::::::::::::1:::::",
":::::::::::::::::::::::::::::;;;;OO;Oooooo>4Oooo;:::::::6::::::::::::::::11:::::",
"::::::::::::::::::::::::::::;;;;;O;OOOoooo>4oooO;;::::::4::::::::::::::::1::::::",
":::::::::::::::::::::::::::OOO;;O;;OOooooo>4oooOOO;:::::::::::::::::::::11::::::",
":::::::::::1:::::::::::::::OooO;;;OOoooooo>4OOooOO;;::::::::::::::::::::1:::::::",
":::::::::::11::::::::::::::O27oO;Ooooooooo<4ooOOo;;O;::::::::::::::::::11::11:::",
"::::::::::::1:::::::::::::O272%oOOOoo:::::<4ooooOOOOOO:::::::::::::::::1:::::11:",
"::::::::::::11::::::::::::o%22%%oooo::::::<4ooooooOO2##:::::::::::::::11:::::::1",
":::::::::::::11:::::::::::oo%%ooooo:::::::>4::oooooOo%###:::::::::::::1:::::::::",
"::::::::11::::11::::::::::::oooooo::::::::>4:::::oooo%X#.:::::::::::::::::::::::",
":::::::1:::::::11::::::::::::ooooo+++:::::>4::::oooooXXX.:::::::::::::::::::::::",
":::::11::::::::::::::::::::::::ooooo+:::::>4:::oooooo...o:::::::::::::::::::::::",
"::::1:::::::::::::::::::::::::::::oo+:::::><::oooooooooo::::::::::::::::::::::::",
"::11:::::::::::::::::::::::::::::::+++::::>4oooooooooo::::::::::::::::::::::::::",
":::::::::::::::::::::::::::::::::::oo+::::>4ooooo:::::::::::::::::::::::::::::::",
"::::::::::::::::::::::::::::::::::::oo::::>4oo::::::::::::::::::::::::::::::::::",
"::::::::::::::::::::::::::::::::::::o:::::>4o:::::::::::::::::::::::::::::::::::",
"::::::::::::::::::::::::::::::::::::::::::<4::::::::::::::::::::::::::::::::::::",
"::::::::::::::::::::::::::::::::::::::::::<4:::::::::::::11:::::::::::::::::::::",
"::::::::::::::::::::::::::::::::::::::::::><:::::::::::111::::::::::::::::::::::",
"::::::::::::::::::::::::::::::::::::::::::><::::::::1111::::::::::::::::::::::::",
"::::::::::::::::::::::::::::::::::11::::::>4::::11111:::::::::::::::::::::::::::",
":::::::::::::::::::::::::::::::::::11111111111111:::::::::::::::::::::::::::::::",
"::::::::::::::::::::::::::::::::::::::::::<4::::::::::::::::::::::::::::::::::::",
"::::::::::::::::::::::::::::::::::::::::::<>::::::::::::::::::::::::::::::::::::",
"::::::::::::::::::::::::::::::::::::::::::<>::::::::::::::::::::::::::::::::::::",
"::::::::::::::::::::::::::::::::::::::::::>:::::::::::::::::::::::::::::::::::::",
"::::::::::::::::::::::::::::::::::::::::::::::::::::::::::::::::::::::::::::::::",
"::::::::::::::::::::::::::::::::::::::::::::::::::::::::::::::::::::::::::::::::",
"::::::::::::::::::::::::::::::::::::::::::::::::::::::::::::::::::::::::::::::::",
"::::::::::::::::::::::::::::::::::::::::::::::::::::::::::::::::::::::::::::::::"
};
