/* XPM */
static char *result[] = {
/* columns rows colors chars-per-pixel */
"80 80 4 1 ",
"  c #907E8A",
". c #FE11DC",
"X c #F6F3D8",
"o c #FCFCFB",
/* pixels */
"................................................................................",
"................................................................................",
"................................................................................",
"................................................................................",
"................................................................................",
"................................................................................",
"................................................................................",
"................................................................................",
".............................................o..................................",
".............................................ooo................................",
".............................................oooo...............................",
"............................................ooooo...............................",
"............................................ooo.o...............................",
"............................................ooo.ooo.............................",
"............................................oooooooo............................",
"............................................ooo..ooo............................",
"...........................................oooooooooo...........................",
"...........................................oooo.ooo.oo..........................",
"...........................................oooo...oooo..........................",
"...........................................oooo.ooooo...........................",
"...........................................oooooooooo...........................",
"..........................................ooooo.oooooo..........................",
"..........................................ooooo...ooooo.........................",
"..........................................ooooo...oooo..........................",
"..........................................ooooo..ooooo..........................",
"............................ooooooo......oooooo...oooo..........................",
"..........................oooooooooo.....oooooo.oooooo..........................",
".........................X..o.ooooooo.o..oooooooooooooo.........................",
"...............................oooooo.oooooooooooooo.oo.........................",
"...............................ooooooooooooooooooooo.oo.........................",
"...............................oooooooooooooooooooo..ooo........................",
"................................oooooooooooooooooo....oo........................",
"...............................oooooooooooooooooooo...oo........................",
"..............................oooooooooooooooooooo....ooo.......................",
".............................oo..ooooooooooooooooo.....oo.......................",
".............................o...ooooooooooooooooo..o..oo.......................",
".............................o...oooooooooooooooo...o..ooo......................",
"............................oo...ooooooooooooooo....oo..oo......................",
"............................o...ooooooooooooooo......o..oo......................",
"............................o...oooooooooooooo.....ooo..ooo.....................",
"............................ooooooooooooooooo..ooooo.o...oo.....................",
"............................o...ooooooooooooo..ooooooo...oo.....................",
"............................o....ooooooooooo.ooooooooo...ooo....................",
"............................o.....oooooooooooooooooooo....oo. ..................",
"............................oo...oooooooooooooooooo.oo....oo. ..................",
".............................o..o..oooooooooooooooooo.....ooo...................",
".............................ooo...oooooooooooooooo.o......oo...................",
".............................oo....oooooooooooooooooo......oo...................",
"..............................oo.ooooooooooooooooooo........o...................",
"...............................oooooooooooooooooooo.............................",
".............................ooooooooooooooooooooo..............................",
"...........................oooooooooooooooooooooooo.............................",
".........................ooooooooooooooooooooooooooo............................",
".......................oooooooooooooooooooooooooooooo...........................",
".....................oooooo.oooooooooooo..ooooooooooo...........................",
".....................oooo..ooooooooooo.....oooooooooo...........................",
".....................oo....ooooooooo.......oooooooooo...........................",
".........................oooooooooo........oooo.ooo.............................",
".........................ooooooooo..........ooo.................................",
".........................ooooooo............ooo.................................",
".........................oooooo..............oo.................................",
"..........................oooooo................................................",
"...........................ooooo................................................",
"............................oooo................................................",
".............................oooo...............................................",
"..............................oooo..............................................",
"...............................oooo.............................................",
"...............................oooo.............................................",
"...............................ooo..............................................",
"...............................oo...............................................",
"...............................oo...............................................",
"..............................oo................................................",
"................................................................................",
"................................................................................",
"................................................................................",
"................................................................................",
"................................................................................",
"................................................................................",
"................................................................................",
"................................................................................"
};
