/* XPM */
static char *result[] = {
/* columns rows colors chars-per-pixel */
"80 80 8 1 ",
"  c black",
". c #391B1B",
"X c #652E2E",
"o c #444245",
"O c #701B94",
"+ c #FE11DC",
"@ c #919CA3",
"# c #F288F5",
/* pixels */
"++++++++++++++++++++++++++++++++++++++++++++++++++++++++++++++++++++++++++++++++",
"++++++++++++++++++++++++++++++++++++++++++++++++++++++++++++++++++++++++++++++++",
"++++++++++++++++++++++++++++++++++++++++++++++++++++++++++++++++++++++++++++++++",
"++++++++++++++++++++++++++++++++++++++++++++++++++++++++++++++++++++++++++++++++",
"++++++++++++++++++++++++++++++++++++++++++++++++++++++++++++++++++++++++++++++++",
"++++++++++++++++++++++++++++++++++++++++++++++++++++++++++++++++++++++++++++++++",
"++++++++++++++++++++++++++++++++++++++++++++++++++++++++++++++++++++++++++++++++",
"++++++++++++++++++++++++++++++++++++++++++++++++++++++++++++++++++++++++++++++++",
"++++++++++++++++++++++++++++++++++++++++++++++++++++++++++++++++++++++++++++++++",
"++++++++++++++++++++++++++++++++++++++++++++++++++++++++++++++++++++++++++++++++",
"++++++++++++++++++++++++++++++++++++++++++++++++++++++++++++++++++++++++++++++++",
"++++++++++++++++++++++++++++++++++++++++++++++++++++++++++++++++++++++++++++++++",
"++++++++++++++++++++++++++++++++++++++++++++++++++++++++++++++++++++++++++++++++",
"++++++++++++++++++++++++++++++++++++++++++++++++++++++++++++++++++++++++++++++++",
"++++++++++++++++++++++++++++++++++++++++++++++++++++++++++++++++++++++++++++++++",
"++++++++++++++++++++++++++++++++++++++++++++++++++++++++++++++++++++++++++++++++",
"++++++++++++++++++++++++++++++++++++++++++++++++++++++++++++++++++++++++++++++++",
"++++++++++++++++++++++++++++++++++++++++++++++++++++++++++++++++++++++++++++++++",
"++++++++++++++++++++++++++++++++++++++++++++++++++++++++++++++++++++++++++++++++",
"++++++++++++++++++++++++++++++++++++++++++++++++++++++++++++++++++++++++++++++++",
"++++++++++++++++++++++++++++++++++++++++++++++++++++++++++++++++++++++++++++++++",
"++++++++++++++++++++++++++++++++++++++++++++++++++++++++++++++++++++++++++++++++",
"++++++++++++++++++++++++++++++++++++++++++++++++++++++++++++++++++++++++++++++++",
"++++++++++++++++++++++++++++++++++++++++++++++++++++++++++++++++++++++++++++++++",
"++++++++++++++++++++++++++++++++++++++++++++++++++++++++++++++++++++++++++++++++",
"++++++++++++++++++++++++++++++++++++++++++++++++++++++++++++++++++++++++++++++++",
"++++++++++++++++++++++++++++++++++++++++++++++++++++++++++++++++++++++++++++++++",
"++++++++++++++++++++++++++++++++++++++++++++++++++++++++++++++++++++++++++++++++",
"++++++++++++++++++++++++++++++++++++++++++++++++++++++++++++++ +++++++++++++++++",
"++++++++++++++++++++++++++++++++++++++++++++++++++++++++++ +++   +++++++++++++++",
"+++++++++++++++++++++++++++++++++++++++++++++++++++++++++++        +++++++++++++",
"++++++++++++++++++++++++++++++++++++++++++++++++++++++++++++          ++++++++++",
"++++++++++++++++++++++++++++++++++++++++++++++++++++++++++            ++++++++++",
"+++++++++++++++++++++++++++++++++++++++++++++++++++++++++++            +++++++++",
"+++++++++++++++++++++++++++++++++++++++++++++++++++++++++  ++          +++++++++",
"+++++++++++++++++++++++++++++++++++++++++++++++++++XXX++++             +++++++++",
"++++++++++++++++++++++++++++++++++++++++++++++++XXXXXXXX++@            +++++++++",
"++++++++++++++++++++++++++++++++++++++++++XXXXXXXXXXXXXXX@      XX  XX +++++++++",
"+++++++++++++++++++++++++++++++++++++++XXXXXXXXXXXXXXXXXX@   X XXXXXXXX+++++++++",
"++++++++++++++++++++++++++++++++++++++XXXXXXXXXXXXXXXXXXX@@@ XXXXXXXXX++++++++++",
"+++++++++++++++++++++++++++++++++++++XXXXXXXXXXXXXXXXXXX@@@@@XXXXXXXX+++++++++++",
"+++++++++++++++++++++++++++++++++++XXXXXXXXXXXXXXXXXXXXX@@@@@XXXXXXXX+++++++++++",
"+++++++++++++++++++++++++++++++++XXXXXX++++++++++XXXXXX@@@@@@@XXXXXXX+++++++++++",
"+++++++++++++++++++++++++++++++XXXXX+++++++++++++++@@@@@@@@@@@@XXXXX++++++++++++",
"++++++++++++++++++++++++++++++OXXXX++++++++++++++++@@@@@@@@@@@@@XXX+++++++++++++",
"++++++++++++++++++++++++++++OO#XXX++++++++++++++++@@@@@@@@@@@@@@@+++++++++++++++",
"++++++++++++++++++++++++++OO##O+++++++++++++++++++@@@@@@@@@@@@@@@+++++++++++++++",
"++++++++++++++++++++++++OO##OO+++++++++++++++++++@@@@@@@@@@@@@@+.+++++++++++++++",
"++++++++++++++++++++++OO##OO++++++++++++++++++++@@@@@@@@@++++.++++++++++++++++++",
"++++++++++++++++++++OO##OO++++++++++++++++++++++@@@@@@@@@+++++++++++++++++++++++",
"++++++++++++++++++OO##OO++++++++++++++++++++++++@@@@@@@@++++++++++++++++++++++++",
"++++++++++++++++OO##OO++++++++++++++++++++++++++@@@@@@@+++++++++++++++++++++++++",
"++++++++++++++OO##OO++++++++++++++++++++++++++++@@@@@@@+++++++++++++++++++++++++",
"+++++++++++OOO##OO+++++++++++++++++++++++++++++ooooooo  ++++++++++++++++++++++++",
"+++++++++OO###OO+++++++++++++++++++++++++++++++oooooooo  +++++++++++++++++++++++",
"+++++++OO##OOO++++++++++++++++++++++++++++++++ooooooooo   ++++++++++++++++++++++",
"+++++OO##OO+++++++++++++++++++++++++++++++++++ooooooooo   ++++++++++++++++++++++",
"++++O##OO++++++++++++++++++++++++++++++++++++oooooooooo    +++++++++++++++++++++",
"+++++OO++++++++++++++++++++++++++++++++++++++oooooooooo     ++++++++++++++++++++",
"++++++++++++++++++++++++++++++++++++++++++++oooooooooo      ++++++++++++++++++++",
"++++++++++++++++++++++++++++++++++++++++++++oooooooooo       +++++++++++++++++++",
"++++++++++++++++++++++++++++++++++++++++++++oooooooooo       +++++++++++++++++++",
"+++++++++++++++++++++++++++++++XXXXXXX+++++XXXooooooo         ++++++++++++++++++",
"+++++++++++++++++++++++++++++++XXXXXXXXXXXXXXXooooooo       .+++++++++++++++++++",
"+++++++++++++++++++++++++++++++XXXXXXXXXXXXXXXXXoooo       ..+++++++++++++++++++",
"+++++++++++++++++++++++++++++++XXXX++XXXXXXXXXXXoooo+    .....++++++++++++++++++",
"+++++++++++++++++++++++++++++++XXX+++++XXXXXXXXXooo++  +......++++++++++++++++++",
"+++++++++++++++++++++++++++++++XX++++++++XXXXXX++o++++++.....+++++++++++++++++++",
"+++++++++++++++++++++++++++++++XX++++++++++++++++++++++++.....++++++++++++++++++",
"+++++++++++++++++++++++++++++++X++++++++++++++++++++++++++....++++++++++++++++++",
"++++++++++++++++++++++++++++++++++++++++++++++++++++++++++....++++++++++++++++++",
"++++++++++++++++++++++++++++++++++++++++++++++++++++++++++....++++++++++++++++++",
"+++++++++++++++++++++++++++++++++++++++++++++++++++++++++++...++++++++++++++++++",
"+++++++++++++++++++++++++++++++++++++++++++++++++++++++++++...++++++++++++++++++",
"++++++++++++++++++++++++++++++++++++++++++++++++++++++++++++...+++++++++++++++++",
"+++++++++++++++++++++++++++++++++++++++++++++++++++++++++++++..+++++++++++++++++",
"+++++++++++++++++++++++++++++++++++++++++++++++++++++++++++++...++++++++++++++++",
"+++++++++++++++++++++++++++++++++++++++++++++++++++++++++++++....+++++++++++++++",
"+++++++++++++++++++++++++++++++++++++++++++++++++++++++++++++.....++++++++++++++",
"+++++++++++++++++++++++++++++++++++++++++++++++++++++++++++++........+++++++++++"
};
