/* XPM */
static char *result[] = {
/* columns rows colors chars-per-pixel */
"80 80 32 1 ",
"  c #0D1E1C",
". c #161110",
"X c #1B1817",
"o c #281E22",
"O c #301A2C",
"+ c #162928",
"@ c #0D2B30",
"# c #163136",
"$ c #30292B",
"% c #443E3C",
"& c #5E313E",
"* c #612D3F",
"= c #175456",
"- c #2A4A4C",
"; c #374C4E",
": c #43555A",
"> c #597576",
", c #9B0C2E",
"< c #DE0B0B",
"1 c #9A4553",
"2 c #E37D57",
"3 c #917F8B",
"4 c #FE11DC",
"5 c #5D858D",
"6 c #6A8386",
"7 c #728D8C",
"8 c #8AA5A3",
"9 c #9FBBBA",
"0 c #A8C0AF",
"q c #DED0BC",
"w c #F6F3D9",
"e c white",
/* pixels */
"44444444444444444444444444444444444444444444444444444484444444444444444444444444",
"44444444444444444444444444444444444444444444444444444;84444444444444444444444444",
"4444444444444444444444444444444444444444444444444444;;>4444444444444444444444444",
"4444444444444444444444444444444444444444444444444444@8>4444444444444444444444444",
"4444444444444444444444444444444444444444444444444444;8>4444444444444444444444444",
"4444444444444444444444444444444444444444444444444444;8>4444444444444444444444444",
"444444444444444444444444444444444444444444444444444;@8>4444444444444444444444444",
"444444444444444444444444444444444444444444444444444;;844444444444444444444444444",
"444444444444444444444444444444444444444444444444444;8>44444444444444444444444444",
"4444444444444444444444444444444444444q4444444444444;8>44444444444444444444444444",
"444444444444444444444444444444444444q4444444444444;>8>44444444444444444444444444",
"44444444444444444444444444444444444344q44344444444;>8>44444444444444444444444444",
"44444444444444444444444444444444444333333444444444;;8>44444444444444444444444444",
"4444444444444444444444444444444444333333333434444;;>;>44444444444444444444444444",
"4444444444444444444444444444444444333333333344444;@;8>44444444444444444444444444",
"4444444444444444444444444444444443333333333444444@;>;>44444444444444444444444444",
"4444444444444444444444444444444443333333334444444;;>8>44444444444444444444444444",
"444444444444444444444444444444444q33333333444444;;;>8>44444444444444444444444444",
"44444444444444444444444444444444443qqq3333444444;;;>8>44444444444444444444444444",
"444444444444444444444444444444444433qqq33344444;;>>8>444444444444444444444444444",
"444444444444444444444444444444444443333qq344444;8;>8>444444444444444444444444444",
"444444444444444444444444444444444444333333444>4; ;88>444444444444444444444444444",
"4444444444444444444444444444444444443%%33344  ; @@>>@ >4444444444444444444444444",
"44444444444444444444444444444444443333%%%34w >.@     @>4444444444444444444444444",
"4444444444444444444444444444444443%%3%O%333   >@@@  @>44444444444444444444444444",
"44444444444444444444444444444442%%OO%%3qqqq  @;;  >  ;9:6w4444444444444444444444",
"444444444444444444444**4444444*%%%%OO3333q   >;@>8 ;@  :9:9944444444444444444444",
"44444444444444444444OOO**444441O%%OOOOOO%3q   ;;@  @@     9ww6444444444444444444",
"44444444444444444444OOOOO***44*2OO1+44    3    ++>8   OOO  O w444444444444444444",
"444444444444444444444OOOOOOO****214=44  % %::   + + :OO%%OOOOO944444444444444444",
"44444444444444444444444OOOOOO*OOo+44444 %3:::::#+++:#O%22%%%33944444444444444444",
"4444444444444444444444444OOOO2******444 %%##::#O,<###ee**2%%%3344444444444444444",
"44444444444444444444444444=e*12OOOOO**4 ,,*### ,<O#  ***212*%%334444444444444444",
"444444444444444444444444=4==+.*OOOOOOO*#,<,    O,O 4444***11*%%34444444444444444",
"4444444444444444444444444=5==.*44OOOOOO#O,O33%$,O44444444*****%%4444444444444444",
"44444444444444444444444=07=5=+444444OOOO%%<3%%%<4444444444****%44444444444444444",
"444444444444444444444=0=777=7=44444444OOO ,::#,*44444444444%%%444444444444444444",
"444444444444444444440=77==444444444444OO #:<6:<: *O44444444444444444444444444444",
"444444444444444444407=5444=44444444444 O,O<<$<,< O11O444444444444444444444444444",
"44444444444444444=005=44444444444444444 %OO,<,<OOOOX1444444444444444444444444444",
"44444444444444400==54444444444444444444%% :OOO &OOOX*444444444444444444444444444",
"44444444444440=075=444444444444444444443O% :: O344OO4444444444444444444444444444",
"4444444444440==55444444444444444444444333OO  OO334444444444444444444444444444444",
"4444444444400=54444444444444444444444433OOO3OOO%%&444444444444444444444444444444",
"4444444440005=44444444444444444444444433%OOOOOO%%&444444444444444444444444444444",
"4444444000755444444444444444444444444333%%%OOOOO%%&44444444444444444444444444444",
"4444440005544444444444444444444444444333333%OOOO%%%%4444444444444444444444444444",
"444440075444444444444444444444444444443333%%OOOOO%%%4444444444444444444444444444",
"44400055444444444444444444444444444444O%3%OOO4OOOO%%%444444444444444444444444444",
"400075444444444444444444444444444444444%OOw8O44OOOO%%444444444444444444444444444",
"000554444444444444444444444444444444444%O>8w8O44OOO%%444444444444444444444444444",
"075444444444444444444444444444444444444O>>88>O44OOO%8-44444444444444444444444444",
"554444444444444444444444444444444444444OOO>>O4444O*>--44444444444444444444444444",
"4444444444444444444444444444444444444444OOOOO44444 ## 44444444444444444444444444",
"44444444444444444444444444444444444444444OOO44444**   44444444444444444444444444",
"44444444444444444444444444444444444444444OOO44444*OOOO44444444444444444444444444",
"444444444444444444444444444444444444444444OOO4444OOOO444444444444444444444444444",
"444444444444444444444444444444444444444444OOO4444OOOO444444444444444444444444444",
"444444444444444444444444444444444444444444OOO44444OOO444444444444444444444444444",
"444444444444444444444444444444444444444444O*O44444OOO444444444444444444444444444",
"444444444444444444444444444444444444444444***444444OO444444444444444444444444444",
"4444444444444444444444444444444444444444444**444444OO444444444444444444444444444",
"4444444444444444444444444444444444444444444**444444OO444444444444444444444444444",
"44444444444444444444444444444444444444444444*44444OOO444444444444444444444444444",
"44444444444444444444444444444444444444444444444444OOO444444444444444444444444444",
"444444444444444444444444444444444444444444444444444O**44444444444444444444444444",
"444444444444444444444444444444444444444444444444444O**44444444444444444444444444",
"4444444444444444444444444444444444444444444444444444O*44444444444444444444444444",
"44444444444444444444444444444444444444444444444444444**4444444444444444444444444",
"44444444444444444444444444444444444444444444444444444**4444444444444444444444444",
"44444444444444444444444444444444444444444444444444444444444444444444444444444444",
"44444444444444444444444444444444444444444444444444444444444444444444444444444444",
"44444444444444444444444444444444444444444444444444444444444444444444444444444444",
"44444444444444444444444444444444444444444444444444444444444444444444444444444444",
"44444444444444444444444444444444444444444444444444444444444444444444444444444444",
"44444444444444444444444444444444444444444444444444444444444444444444444444444444",
"44444444444444444444444444444444444444444444444444444444444444444444444444444444",
"44444444444444444444444444444444444444444444444444444444444444444444444444444444",
"44444444444444444444444444444444444444444444444444444444444444444444444444444444",
"44444444444444444444444444444444444444444444444444444444444444444444444444444444"
};
