/* XPM */
static char *result[] = {
/* columns rows colors chars-per-pixel */
"80 80 11 1 ",
"  c black",
". c #391B1B",
"X c #332030",
"o c #652E2E",
"O c #613141",
"+ c #444245",
"@ c #701B94",
"# c #FE11DC",
"$ c #728C8B",
"% c #919CA3",
"& c #F288F5",
/* pixels */
"################################################################################",
"################################################################################",
"################################################################################",
"################################################################################",
"################################################################################",
"################################################################################",
"################################################################################",
"################################################################################",
"################################################################################",
"################################################################################",
"################################################################################",
"################################################################################",
"################################################################################",
"################################################################################",
"################################################################################",
"################################################################################",
"################################################################################",
"################################################################################",
"################################################################################",
"################################################################################",
"################################################################################",
"################################################################################",
"################################################################################",
"################################################################################",
"################################################################################",
"################################################################################",
"################################################################################",
"################################################################################",
"################################################################################",
"################################################################ ###############",
"############################################################ ###   #############",
"#############################################################        ###########",
"##############################################################          ########",
"############################################################            ########",
"####################################################oooooo###            #######",
"###################################################ooooooo%  ##          #######",
"##################################################oooooooo%%             #######",
"#################################################ooooooooo%%%            #######",
"#############################################ooooooooooooo%%      oo  oo #######",
"##########################################Ooooooooooooooo%%%   o oooooooo#######",
"#########################################oooooooooooooooo%%%%% ooooooooo########",
"########################################ooooooooooooooo%%%%%%%%oooooooo#########",
"######################################oooooooooo####%%%%%%%%%%%oooooooo#########",
"#####################################ooooo#########%%%%%%%%%%%%%ooooooo#########",
"###################################oooo############%%%%%%%%%%%%%%ooooo##########",
"#################################ooooo############%%%%%%%%%%%%%%%%ooo.##########",
"###############################@@oooo############%%%%%%%%%%%%%%%........########",
"#############################@@&&ooo#############%%%%%%%%%##########.....#######",
"###########################@@&&@@################%%%%%%%%############.###.######",
"#########################@@&&@@#$###############++%%%%%%##############.#########",
"#######################@@&&@@###################++++++++########################",
"#####################@@&&@@####################+++++++++########################",
"###################@@&&@@######################++++++++++#######################",
"#################@@&&@@#######################+++++++++++#######################",
"###############@@&&@@#########################+++++++++++#######################",
"#############@@&&@@###########################+++++++++++#######################",
"###########@@&&@@#############################++++++++++  ######################",
"#########@@&&@@###############################++++++++++  ######################",
"#######@@&&@@################################+++++++++++  ######################",
"#####@@&&@@##################################+++++++++++  ######################",
"###@@&&@@#####################################o++++++++   ######################",
"#@@&&@@#####################################..ooo++++++   ######################",
"@&&@@###################################.....Xoooo+++++  #######################",
"#@@####################################......ooooo +++   #######################",
"#######################################.....#oooo# ++    #######################",
"#######################################...###ooooo#++   ########################",
"#######################################..###oooooo##    ########################",
"#######################################..###oooooo###   ########################",
"#######################################.###ooooo######  ########################",
"###########################################ooooo################################",
"###########################################oooo#################################",
"###########################################oooo#################################",
"###########################################ooo##################################",
"##########################################oooo##################################",
"##########################################ooo###################################",
"##########################################ooo###################################",
"#########################################oooo###################################",
"#########################################ooooo##################################",
"##########################################ooooo#################################",
"##########################################oooooo################################"
};
