/* XPM */
static char *result[] = {
/* columns rows colors chars-per-pixel */
"80 80 10 1 ",
"  c black",
". c #391B1B",
"X c #652E2E",
"o c #613141",
"O c #444245",
"+ c #696A6A",
"@ c #701B94",
"# c #FE11DC",
"$ c #919CA3",
"% c #F288F5",
/* pixels */
"################################################################################",
"################################################################################",
"################################################################################",
"################################################################################",
"################################################################################",
"################################################################################",
"################################################################################",
"################################################################################",
"################################################################################",
"################################################################################",
"################################################################################",
"################################################################################",
"################################################################################",
"################################################################################",
"################################################################################",
"################################################################################",
"################################################################################",
"################################################################################",
"################################################################################",
"################################################################################",
"################################################################################",
"################################################################################",
"################################################################################",
"################################################################################",
"################################################################################",
"################################################################################",
"################################################################################",
"############################################################## #################",
"########################################################## ###   ###############",
"###########################################################        #############",
"############################################################          ##########",
"##########################################################            ##########",
"###########################################################            #########",
"#########################################################  ##          #########",
"##########################################################             #########",
"###########################################################            #########",
"####################################################XXXX#$      XX  XX #########",
"##################################################XXXXXXXX   X XXXXXXXX#########",
"################################################XXXXXXXXXX$$ XXXXXXXXX##########",
"###############################################XXXXXXXXXXX$$$XXXXXXXX###########",
"##############################################XXXXXXXXXXXX$$$XXXXXXXX###########",
"#############################################XXXXXXXXXXXX$$$$$XXXXXXX###########",
"############################################XXXXXXXXXXXXX$$$$$$XXXXX..##########",
"###########################################XXXXXXX##$XXX$$$$$$$$XXX...##########",
"#########################################XXXXXXX####$$$$$$$$$$$$$$.....#########",
"########################################XXXXXX######$$$$$$$$$$$$$.......########",
"####################################XXXXXXX########$$$$$$$$$$$$$$........#######",
"###################################XXXXXX#########$$$$$$$$$$$$$$####......######",
"##################################+XXXX##########$$$$$$$$$$$$########..XXX######",
"##############################@@@+++XXX#########$$$$$$$$$$###########XXXXXX#####",
"##########################@@@@%%%+++X###########$$$$$$$$$$##########XXXXXXX#####",
"#######################@@@%%%%@@@++#############$$$$$$$$$##########XXXXXXX######",
"###################@@@@%%%@@@@@################OO$$$$$$$$############XXX########",
"################@@@%%%%@@@@####################OOOOOOOOOOO###########X##########",
"#############@@@%%%@@@@####################### OOOOOOOOOOOO#####################",
"#########@@@@%%%@@@##########################  OOOOOOOOOOOOOO###################",
"######@@@%%%%@@@#############################   OOOOOOOOOOOOOO##################",
"#####@%%%@@@@###############################     OOOOOOOOOOOOO##################",
"######@@@###################################      OOOOOOOOOOOOO#################",
"###########################################        OOOOOOOOOOOOO################",
"###########################################          OOOOOOOOOOOO###############",
"############################################         OOOOOOOOOOOOO##############",
"############################################..       #OOOOOOOOOOOO##############",
"############################################...     ##OOOOOOOOXX################",
"############################################.....  ####OOOXXXXXX################",
"####################################.............######OOOXXXXXX################",
"################################.................#######O##XXXXX################",
"################################.................##########XXXXX################",
"################################....######......#############XXXX###############",
"###############################....##########################XXXX###############",
"###############################..#############################XXX###############",
"###############################..#############################XXX###############",
"###############################.###############################XXo##############",
"###############################.###############################XXo##############",
"################################################################XXX#############",
"################################################################XXXX############",
"################################################################XXXXXXXX########",
"#################################################################XXXXXXX########",
"#################################################################XXXXXX#########",
"##################################################################XXX###########"
};
