/* XPM */
static char *result[] = {
/* columns rows colors chars-per-pixel */
"80 80 31 1 ",
"  c #0D1E1C",
". c #161110",
"X c #1B1817",
"o c #301A2C",
"O c #162928",
"+ c #0D2B30",
"@ c #163136",
"# c #30292B",
"$ c #443E3C",
"% c #5E313E",
"& c #612D3F",
"* c #175456",
"= c #2A4A4C",
"- c #374C4E",
"; c #43555A",
": c #597576",
"> c #9B0C2E",
", c #DE0B0B",
"< c #9A4553",
"1 c #E37D57",
"2 c #917F8B",
"3 c #FE11DC",
"4 c #5D858D",
"5 c #6A8386",
"6 c #728D8C",
"7 c #8AA5A3",
"8 c #9FBBBA",
"9 c #A8C0AF",
"0 c #DED0BC",
"q c #F6F3D9",
"w c white",
/* pixels */
"3333333333333333333333333333333333333333333333333+7:3333333333333333333333333333",
"3333333333333333333333333333333333333333333333333-7:3333333333333333333333333333",
"3333333333333333333333333333333333333333333333333-7:3333333333333333333333333333",
"333333333333333333333333333333333333333333333333-+7:3333333333333333333333333333",
"333333333333333333333333333333333333333333333333--733333333333333333333333333333",
"333333333333333333333333333333333333333333333333-7:33333333333333333333333333333",
"333333333333333333333333333333333333333333333333-7:33333333333333333333333333333",
"33333333333333333333333333333333333333333333333-:7:33333333333333333333333333333",
"33333333333333333333333333333333333333333333333-:7:33333333333333333333333333333",
"33333333333333333333333333333333333333333333333--7:33333333333333333333333333333",
"3333333333333333333333333333333333333333333333--:-:33333333333333333333333333333",
"3333333333333333333333333333333333333333333333-+-7:33333333333333333333333333333",
"3333333333333333333333333333333333333333333333+-:-:33333333333333333333333333333",
"3333333333333333333333333333333333333333333333--:7:33333333333333333333333333333",
"333333333333333333333333333333333333333333333---:7:33333333333333333333333333333",
"333333333333333333333333333333333333333333333---:7:33333333333333333333333333333",
"33333333333333333333333333333333333333333333--::7:333333333333333333333333333333",
"33333333333333333333333333333333333333333333-7-:7:333333333333333333333333333333",
"333333333333333333333333333333333333333333:3- -77:333333333333333333333333333333",
"33333333333333333333333333333333333333333  - ++::+ :3333333333333333333333333333",
"33333333333333333333333333333333333333333 :.+     +:3333333333333333333333333333",
"3333333333333333333333333333333333333333   :+++  +:33333333333333333333333333333",
"3333333333333333333333333333333333333333  +--  :  -33333333333333333333333333333",
"333333333333333333333333333333333333222   :-+:7 -+333333333333333333333333333333",
"333333333333333333333333333333333320000$   --+  ++5q3333333333333333333333333333",
"33333333333333333333333333333333322000020   OO:7  ;88333333333333333333333333333",
"333333333333333333333333333333333333$00  $   O O @@qq533333333333333333333333333",
"333333333333333333333333333333333022  0 $$222OOO88@X q33333333333333333333333333",
"333333333333333333333333333333330022$ $ 5q$$$$58855 X 83333333333333333333333333",
"33333333333333333333333333333330222$$2  @8q88558555 X 83333333333333333333333333",
"3333333333333333333333333333332$$   $$  @5555@@@55@  $;3333333333333333333333333",
"333333333333333333333333333333002$ $$$   @@@@       X$$3333333333333333333333333",
"33333333333333333333333333333&002$ $$$       $$$    $$22333333333333333333333333",
"33333333333333333333333333333&<$$ <$$$w   $2222$$ 33$$$2333333333333333333333333",
"33333333333333333333333333333o&11<$$$$w$$22@@@@@@33333$2333333333333333333333333",
"33333333333333333333333333333oo&&$$$3$  $$ @;;@@33333&<<333333333333333333333333",
"333333333333333333333333333333oo&3$33$ >> @;55;@;>o<ooo&&33333333333333333333333",
"333333333333333333333333333333o&&3$333 o>,@#####>oo.<o&&333333333333333333333333",
"333333333333333333333333333333o&11$333  o>,>,#,,ooo.&3o&333333333333333333333333",
"333333333333333333333333333333o&&133333    >>,>>,oo.oo<<333333333333333333333333",
"333333333333333333333333333333<&wwo3333$$$ ,>oo >ooo&o&<333333333333333333333333",
"333333333333333333333333333333<<OO333300$$$>&; $,333oo&3333333333333333333333333",
"333333333333333333333333333333O6****O222$$$,& o&>3333oo3333333333333333333333333",
"3333333333333333333333333333333O4**300022oo>&oo&,3333333333333333333333333333333",
"333333333333333333333333333333336*43222oooo,&oo&>3333333333333333333333333333333",
"3333333333333333333333333333333OO66**2$2ooo>ooo&,3333333333333333333333333333333",
"33333333333333333333333333333333O**2222$ooo,ooo&>3333333333333333333333333333333",
"3333333333333333333333333333333334992222$$o>ooo>,3333333333333333333333333333333",
"33333333333333333333333333333333&499$$22$$o,oo$o>o333333333333333333333333333333",
"333333333333333333333333333333&&oO**o$$$$$o>oo$$o%333333333333333333333333333333",
"33333333333333333333333333333&ooo4993o$$$oo,>o$$$%333333333333333333333333333333",
"333333333333333333333333333&&ooooo499:o$$oo>ooo$$%333333333333333333333333333333",
"33333333333333333333333333&ooooo3oO*9::o333oooo$$$333333333333333333333333333333",
"333333333333333333333333&&oooo333o4**ooo33333oo$$$333333333333333333333333333333",
"33333333333333333333333&ooooo33333499ooo33333oo$$$333333333333333333333333333333",
"333333333333333333333&&oooo3333333499ooo33333ooo$$333333333333333333333333333333",
"33333333333333333333&ooooo333333333499oo333333oo$$333333333333333333333333333333",
"33333333333333333333oooo33333333333499o&333333oo7=333333333333333333333333333333",
"33333333333333333333ooo333333333333499o&333333&:==333333333333333333333333333333",
"33333333333333333333333333333333333499oo&&3333 @@ 333333333333333333333333333333",
"333333333333333333333333333333333333499o&&333&&   333333333333333333333333333333",
"333333333333333333333333333333333333499oo&33&oooo3333333333333333333333333333333",
"333333333333333333333333333333333333499&&&33oooo33333333333333333333333333333333",
"333333333333333333333333333333333333499oo&33oooo33333333333333333333333333333333",
"3333333333333333333333333333333333334993o&33ooo333333333333333333333333333333333",
"3333333333333333333333333333333333333499o333ooo333333333333333333333333333333333",
"33333333333333333333333333333333333334993333oo3333333333333333333333333333333333",
"33333333333333333333333333333333333334993333oo3333333333333333333333333333333333",
"33333333333333333333333333333333333334993333oo3333333333333333333333333333333333",
"3333333333333333333333333333333333333493333ooo3333333333333333333333333333333333",
"3333333333333333333333333333333333333493333ooo3333333333333333333333333333333333",
"3333333333333333333333333333333333333343333o&&3333333333333333333333333333333333",
"3333333333333333333333333333333333333343333o&&3333333333333333333333333333333333",
"33333333333333333333333333333333333333333333o&3333333333333333333333333333333333",
"33333333333333333333333333333333333333333333o&3333333333333333333333333333333333",
"333333333333333333333333333333333333333333333&3333333333333333333333333333333333",
"33333333333333333333333333333333333333333333333333333333333333333333333333333333",
"33333333333333333333333333333333333333333333333333333333333333333333333333333333",
"33333333333333333333333333333333333333333333333333333333333333333333333333333333",
"33333333333333333333333333333333333333333333333333333333333333333333333333333333"
};
