/* XPM */
static char *result[] = {
/* columns rows colors chars-per-pixel */
"80 80 31 1 ",
"  c #0D1E1C",
". c #161110",
"X c #1B1817",
"o c #281E22",
"O c #301A2C",
"+ c #162928",
"@ c #0D2B30",
"# c #163136",
"$ c #30292B",
"% c #443E3C",
"& c #5E313E",
"* c #612D3F",
"= c #175456",
"- c #2A4A4C",
"; c #374C4E",
": c #43555A",
"> c #597576",
", c #9B0C2E",
"< c #DE0B0B",
"1 c #9A4553",
"2 c #E37D57",
"3 c #917F8B",
"4 c #FE11DC",
"5 c #5D858D",
"6 c #6A8386",
"7 c #728D8C",
"8 c #8AA5A3",
"9 c #9FBBBA",
"0 c #A8C0AF",
"q c #DED0BC",
"w c #F6F3D9",
/* pixels */
"44444444444444444444444444444444444444444444444444444444444444444444444444444444",
"44444444444444444444444444444444444444444444444444444444444444444444444444444444",
"44444444444444444444444444444444444444444444444444444444448444444444444444444444",
"44444444444444444444444444444444444444444444444444444444448444444444444444444444",
"44444444444444444444444444444444444444444444444444444444448444444444444444444444",
"444444444444444444444444444444444444444444444444444444444;8444444444444444444444",
"44444444444444444444444444444444444444444444444444444444;;>444444444444444444444",
"44444444444444444444444444444444444444444444444444444444@8>444444444444444444444",
"44444444444444444444444444444444444444444444444444444444;8>444444444444444444444",
"44444444444444444444444444444444444444444444444444444444;8>444444444444444444444",
"4444444444444444444444444444444444444444444444444444444;@8>444444444444444444444",
"4444444444444444444444444444444444444444444444444444444;;84444444444444444444444",
"4444444444444444444444444444444444444444444444444444444;8>4444444444444444444444",
"4444444444444444444444444444444444444444444444444444444;8>4444444444444444444444",
"444444444444444444444444444444444444444444444444444444;>8>4444444444444444444444",
"444444444444444444444444444444444444444444444444444444;>8>4444444444444444444444",
"444444444444444444444444444444444444444444444444444444;;8>4444444444444444444444",
"44444444444444444444444444444444444444444444444444444;;>;>4444444444444444444444",
"44444444444444444444444444444444444444444444444444444;@;8>4444444444444444444444",
"44444444444444444444444444444444444444444444444444444@;>;>4444444444444444444444",
"44444444444444444444444444444444444444444444444444444;;>8>4444444444444444444444",
"4444444444444444444444444444444443qqq444444444444444;;;>8>4444444444444444444444",
"4444444444444444444444444444433qq33333344 4444444444;;;>8>4444444444444444444444",
"4444444444444444444444444444444%%%%%%33qqq344444444;;>>8>44444444444444444444444",
"44444444444444444444444444444444%%%%%%33qqq3%444444;8;>8>44444444444444444444444",
"4444444444444444444444444444444%444%%%%33qq333444>4; ;88>44444444444444444444444",
"4444444444444444444444444444444%444%%%%%%3qqqq%4  ; @@>>@ >444444444444444444444",
"44444444444444444444444444444444%444%%%%%%qqqq3% >.@     @>444444444444444444444",
"444444444444444444444444444444444433%%%O% %%qq    >@@@  @>9444444444444444444444",
"4444444444444444444444444444444443%%%O%  %%9%q%  @;;  >  ;ww64444444444444444444",
"4444444444444444444444444444444433%%%O%  ::66%   >;@>8 ;@ X w4444444444444444444",
"444444444444444444444444444444*O%O2%O4%  #::66%   ;;@  @@OOX 9444444444444444444",
"44444444444444444444444444444*1.OO1O444  ##:6##    ++>8 OOOX 9444444444444444444",
"4444444444444444444444444444**122244444   ##::#     + + OO%O :444444444444444444",
"444444444444444444444444441*11**o444444 O  ###### ##+++OOOO%%2444444444444444444",
"444444444444444444444444421***14444444  OO   ##  ##  4444OOO%*144444444444444444",
"44444444444444444444444441****o4<4444  ,OO       , .114444OOO%114444444444444444",
"4444444444444444444444444*.OOO4,<,<4   O,,$$$$$&,,**O.14444O%%**1144444444444444",
"44444444444444444444444444++444O,OO<,<OOOO<<$<<<OOOOO.*44444*****111444444444444",
"44444444444444444444444+====7+44O44OO,,<,<,,<O,,%3333OO444444444****144444444444",
"4444444444444444444444444==5+4444444,,<,<,:OOO,<%%%%3334444444444*4%4*4444444444",
"44444444444444444444444445=744444444O,OOO<,<,<OO%%%%%%333OO4444444*4444444444444",
"44444444444444444444444==77++4444**OOO%%OOOOOOOOOO%%%%%%Ow8444444444444444444444",
"4444444444444444444444444==+444**OOOO33%OOOOOO%%%%%OOOOO>8w844444444444444444444",
"444444444444444444444444005****OOOOO3333OOOOOOOOOOOOOOO>>88>O4444444444444444444",
"444444444444444444444444005OOOOOO44O3333OOO44OOOOOOOOOOOO>>OO4444444444444444444",
"444444444444444444444***==+OOOO444&3333%OOO44444444**OOOOOOO44444444444444444444",
"4444444444444444444**OOO0054444444&3333%OO44444****OOOOOOOO444444444444444444444",
"4444444444444444444OOOO00544444444%333%OO444444*OOOOOOOOO44444444444444444444444",
"4444444444444444444OO440=+44444444%33%%OO444444OOOOO4444444444444444444444444444",
"44444444444444444444444==544444444O%%%OOO44444OOO4444444444444444444444444444444",
"4444444444444444444444400544444444OOOOOO444444OO44444444444444444444444444444444",
"4444444444444444444444400544444444O>>>OO444444OO44444444444444444444444444444444",
"444444444444444444444400544444444 ##-->O444444O444444444444444444444444444444444",
"444444444444444444444400544444444O ---#O444444O444444444444444444444444444444444",
"444444444444444444444400544444444O ###O44444444444444444444444444444444444444444",
"444444444444444444444400544444444OO  OO44444444444444444444444444444444444444444",
"444444444444444444444005444444444*OOOO444444444444444444444444444444444444444444",
"444444444444444444444005444444444***O4444444444444444444444444444444444444444444",
"444444444444444444444005444444444***44444444444444444444444444444444444444444444",
"444444444444444444444005444444444**O44444444444444444444444444444444444444444444",
"444444444444444444444005444444444**O44444444444444444444444444444444444444444444",
"444444444444444444440054444444444**O44444444444444444444444444444444444444444444",
"4444444444444444444400544444444441OO44444444444444444444444444444444444444444444",
"444444444444444444440054444444441O*O44444444444444444444444444444444444444444444",
"44444444444444444444005444444444111*44444444444444444444444444444444444444444444",
"444444444444444444444054444444441**O44444444444444444444444444444444444444444444",
"44444444444444444444405444444444O**O44444444444444444444444444444444444444444444",
"444444444444444444444544444444444OO444444444444444444444444444444444444444444444",
"44444444444444444444454444444444444444444444444444444444444444444444444444444444",
"44444444444444444444444444444444444444444444444444444444444444444444444444444444",
"44444444444444444444444444444444444444444444444444444444444444444444444444444444",
"44444444444444444444444444444444444444444444444444444444444444444444444444444444",
"44444444444444444444444444444444444444444444444444444444444444444444444444444444",
"44444444444444444444444444444444444444444444444444444444444444444444444444444444",
"44444444444444444444444444444444444444444444444444444444444444444444444444444444",
"44444444444444444444444444444444444444444444444444444444444444444444444444444444",
"44444444444444444444444444444444444444444444444444444444444444444444444444444444",
"44444444444444444444444444444444444444444444444444444444444444444444444444444444",
"44444444444444444444444444444444444444444444444444444444444444444444444444444444"
};
