/* XPM */
static char *result[] = {
/* columns rows colors chars-per-pixel */
"80 80 31 1 ",
"  c #0D1E1C",
". c #161110",
"X c #1B1817",
"o c #301A2C",
"O c #162928",
"+ c #0D2B30",
"@ c #30292B",
"# c #443E3C",
"$ c #5E313E",
"% c #612D3F",
"& c #175456",
"* c #2A4A4C",
"= c #374C4E",
"- c #43555A",
"; c #597576",
": c #9B0C2E",
"> c #DE0B0B",
", c #9A4553",
"< c #E37D57",
"1 c #917F8B",
"2 c #FE11DC",
"3 c #5D858D",
"4 c #6A8386",
"5 c #728D8C",
"6 c #8AA5A3",
"7 c #9FBBBA",
"8 c #A8C0AF",
"9 c #DED0BC",
"0 c #DAD6BD",
"q c #F6F3D9",
"w c white",
/* pixels */
"22222222222222222222222222222222222222222222222222222262222222222222222222222222",
"22222222222222222222222222222222222222222222222222222=62222222222222222222222222",
"2222222222222222222222222222222222222222222222222222==;2222222222222222222222222",
"2222222222222222222222222222222222222222222222222222+6;2222222222222222222222222",
"2222222222222222222222222222222222222222222222222222=6;2222222222222222222222222",
"2222222222222222222222222222222222222222222222222222=6;2222222222222222222222222",
"222222222222222222222222222222222222222222222222222=+6;2222222222222222222222222",
"222222222222222222222222222222222922222222222222222==622222222222222222222222222",
"222222222222222222222222222222222922222222222222222=6;22222222222222222222222222",
"222222222222222222222222222222222212922222222222222=6;22222222222222222222222222",
"22222222222222222222222222222222221212222222222222=;6;22222222222222222222222222",
"22222222222222222222222222222222221112122212222222=;6;22222222222222222222222222",
"22222222222222222222222222222222221111122212222222==6;22222222222222222222222222",
"2222222222222222222222222222222222111111121222222==;=;22222222222222222222222222",
"2222222222222222222222222222222222111111111222222=+=6;22222222222222222222222222",
"2222222222222222222222222222222222111111111222222+=;=;22222222222222222222222222",
"2222222222222222222222222222222222111111111222222==;6;22222222222222222222222222",
"222222222222222222222222222222222221911111122222===;6;22222222222222222222222222",
"222222222222222222222222222222222221191111122222===;6;22222222222222222222222222",
"22222222222222222222222222222222222219991112222==;;6;222222222222222222222222222",
"22222222222222222222222222222222222211999112222=6=;6;222222222222222222222222222",
"222222222222222222222222222222222222111199122;2= =66;222222222222222222222222222",
"22222222222222222222222222222222222221111112  = ++;;+ ;2222222222222222222222222",
"22222222222222222222222222222222222221##1112 ;.+     +;2222222222222222222222222",
"222222222222222222222222222222222222211###1   ;+++  +;22222222222222222222222222",
"2222222222222222222222222222222229911111111  +==  ;  =4q222222222222222222222222",
"222222222222222222222222222222229111119999   ;=+;6 =+7-7722222222222222222222222",
"22222222222222222222222%%222222111111111991   ==+  ++ 7qq42222222222222222222222",
"2222222222222222222222ooo%%2&,#11#######19     OO;6    X q4222222222222222222222",
"2222222222222222222222ooooOO&<<### ####  1 ##   O O +ww##11222222222222222222222",
"22222222222222222222222oooo&Oo<<,o222### #0q7###OOO7+w1###1-o2222222222222222222",
"2222222222222222222222222ooO%oo%o%%2222#1 4q777747744 ww##1%,,222222222222222222",
"222222222222222222222222222%%oo#ooo%%%2## +7q77447444 wwX2oooo%22222222222222222",
"22222222222222222222222222%%oooooooooo%%  +4444+++44+    22oo%%22222222222222222",
"2222222222222222222222222,%%o2222ooooooo   ++++       2222222oo%,222222222222222",
"22222222222222222222222..%%o2222222ooooo   >:o ###    22222222o,,,22222222222222",
"222222222222222222222&O&..wwo222222222o    o>:11%:: 2222222222%o%,22222222222222",
"22222222222222222222223&O.OO22222222222 ##1o:o4-:>:2222222222%%oo%,2222222222222",
"22222222222222222222&&53&&O222222222222  ##+o:@@o:o%o22222222222o2%2222222222222",
"2222222222222222222223&&&&2222222222222  o:>:>@>>ooo,,o2222222222222222222222222",
"222222222222222222223555&222222222222222    >:>: oooo.,2222222222222222222222222",
"22222222222222222222&5582222222222222222### -ooo 2ooo.%2222222222222222222222222",
"222222222222222222235&&&&222222222222222#### -- 2222oo22222222222222222222222222",
"2222222222222222222&5582222222222222222######  o$2222222222222222222222222222222",
"22222222222222222235&822222222222222222199ooo1oo#$222222222222222222222222222222",
"222222222222222222&882222222222222222221ooo11ooo##$22222222222222222222222222222",
"222222222222222223&&822222222222222222199ooooooo11$22222222222222222222222222222",
"22222222222222222388&22222222222222222111#oooooo##$22222222222222222222222222222",
"2222222222222222&&82222222222222222221111#1#oooo11122222222222222222222222222222",
"22222222222222223&82222222222222222221111###ooo###$22222222222222222222222222222",
"22222222222222238&&222222222222222222111#1#ooo#o##$22222222222222222222222222222",
"222222222222222388&222222222222222222111#1#ooo#o##$22222222222222222222222222222",
"222222222222223882222222222222222222211#1#oo2oo####22222222222222222222222222222",
"22222222222222388222222222222222222211111#oo2ooo###22222222222222222222222222222",
"2222222222222388222222222222222222221111#oo222oo###22222222222222222222222222222",
"222222222222238822222222222222222222ooo##o2222oo###22222222222222222222222222222",
"22222222222238822222222222222222222226qooo22222oo##22222222222222222222222222222",
"2222222222223882222222222222222222226q6;o222222oooo22222222222222222222222222222",
"22222222222388222222222222222222222o;66;;o222222o6*22222222222222222222222222222",
"22222222222388222222222222222222222oo;;ooo22222%;**22222222222222222222222222222",
"2222222222388222222222222222222222222ooooo22222 ++ 22222222222222222222222222222",
"2222222222388222222222222222222222222ooooo2222%%   22222222222222222222222222222",
"2222222223882222222222222222222222222oooo2222%oooo222222222222222222222222222222",
"22222222238822222222222222222222222222ooo2222oooo2222222222222222222222222222222",
"22222222388822222222222222222222222222oooo222oooo2222222222222222222222222222222",
"22222222388222222222222222222222222222oooo2222ooo2222222222222222222222222222222",
"222222223822222222222222222222222222222oo%2222ooo2222222222222222222222222222222",
"222222228222222222222222222222222222222o%%2222oo22222222222222222222222222222222",
"222222222222222222222222222222222222222%%%222ooo22222222222222222222222222222222",
"2222222222222222222222222222222222222222%%222ooo22222222222222222222222222222222",
"2222222222222222222222222222222222222222%2222o%%22222222222222222222222222222222",
"222222222222222222222222222222222222222222222o%%22222222222222222222222222222222",
"222222222222222222222222222222222222222222222o%222222222222222222222222222222222",
"2222222222222222222222222222222222222222222222%222222222222222222222222222222222",
"22222222222222222222222222222222222222222222222222222222222222222222222222222222",
"22222222222222222222222222222222222222222222222222222222222222222222222222222222",
"22222222222222222222222222222222222222222222222222222222222222222222222222222222",
"22222222222222222222222222222222222222222222222222222222222222222222222222222222",
"22222222222222222222222222222222222222222222222222222222222222222222222222222222",
"22222222222222222222222222222222222222222222222222222222222222222222222222222222"
};
