/* XPM */
static char *result[] = {
/* columns rows colors chars-per-pixel */
"80 80 28 1 ",
"  c #1C1817",
". c #152322",
"X c #1C2D2C",
"o c #152F33",
"O c #2C2327",
"+ c #332D2F",
"@ c #332030",
"# c #46403E",
"$ c #613141",
"% c #1E5557",
"& c #2E4B4D",
"* c #3A4D4F",
"= c #45565A",
"- c #5A7475",
"; c #991531",
": c #DD160F",
"> c #984754",
", c #E27C57",
"< c #907E8A",
"1 c #FE11DC",
"2 c #5D848C",
"3 c #6A8285",
"4 c #728C8B",
"5 c #89A3A2",
"6 c #9EBAB9",
"7 c #A7BFAE",
"8 c #DDCFBA",
"9 c #F6F3D8",
/* pixels */
"11111111111111111111111111111111111111111111111111111111111111111111111111111111",
"11111111111111111111111111111111111111111111111111111111111111111111111111111111",
"11111111111111111111111111111111111111111111111111111111111111111111111111111111",
"11111111111111111111111111111111111111111111111111111111111111111111111111111111",
"11111111111111111111111111111111111111111111111111111111111111111111111111111111",
"11111111111111111111111111111111111111111111111111511111111111111111111111111111",
"11111111111111111111111111111111111111111111111111511111111111111111111111111111",
"11111111111111111111111111111111111111111111111111511111111111111111111111111111",
"1111111111111111111111111111111111111111111111111*511111111111111111111111111111",
"111111111111111111111111111111111111111111111111**-11111111111111111111111111111",
"111111111111111111111111111111111111111111111111o5-11111111111111111111111111111",
"111111111111111111111111111111111111111111111111*5-11111111111111111111111111111",
"111111111111111111111111111111111111111111111111*5-11111111111111111111111111111",
"11111111111111111111111111111111111111111111111*o5-11111111111111111111111111111",
"11111111111111111111111111111111111111111111111**5111111111111111111111111111111",
"11111111111111111111111111111111111111111111111*5-111111111111247111111111111111",
"11111111111111111111111111111111111111111111111*5-111111111222471111111111111111",
"1111111111111111111111111111111111111111111111*-5-111111122477711111111111111111",
"1111111111111111111111111111111111111111111111*-5-111112%47711111111111111111111",
"1111111111111111111111111111111111111111111111**5-111244%%1111111111111111111111",
"111111111111111111111111111111111111111111111**-*-24%%%7111111111111111111111111",
"111111111111111111111111111111111111111111111*o*5-477111111111111111111111111111",
"111111111111111111111111111111111111111111111o*-*-711111111111111111111111111111",
"1111111111111111111111111111111111111XX111%24**-5-111111111111111111111111111111",
"11111111111111111111111111111111111111XX244%***-5-111111111111111111111111111111",
"11111111111111111111111111111111111111%X4771***-5-111111111111111111111111111111",
"1111111111111111111111111111111>>1>>XX%%X11**--5-1111111111111111111111111111111",
"11111111111111111111111111111111<$$X%11%%11*5*-5-1111111111111111111111111111111",
"11111111111111111111111111111111#8%<11<1%-1*.*55-1111111111111111111111111111111",
"11111111111111111111111111111XXX#<$<1<<8<.*.oo--o.-1111111,111111111111111111111",
"11111111111111111111111111111%%>%<<#<<#<<< *.....o-111,1,,1111111111111111111111",
"1111111111111111111111111111111@@<<######<<**ooo*-1111>,,>>>11111111111111111111",
"1111111111111111111111111111111@##<#######<*..-..*1111>>>$1111111111111111111111",
"1111111111111111111111111111111@@#@#######<<<<9*o11111>>>$$111111111111111111111",
"11111111111111111111111111111111@@@##.o3#####<<<=1111,>$$11$11111111111111111111",
"111111111111111111111111111111111@@@#363696@@@@@o111,,>$111111111111111111111111",
"1111111111111111111111111111111111@@363696##<<#@<$>,,>$1111111111111111111111111",
"11111111111111111111111111111111111o363963@##@@<<##@,>$1111111111111111111111111",
"11111111111111111111111111111111111o363663@@##@##@@@>@@1111111111111111111111111",
"1111111111111111111111111111111111.o33o33=.@@@@@@@@$$111111111111111111111111111",
"1111111111111111111111111111111111.oo3o33....@@@11@@@111111111111111111111111111",
"1111111111111111111111111111111111.ooo...@@@@..111111111111111111111111111111111",
"1111111111111111111111111111111111.oo.@@@@@o..1111111111111111111111111111111111",
"11111111111111111111111111111111111...##OO...11111111111111111111111111111111111",
"111111111111111111111111111111111.=.O<<<<#..111111111111111111111111111111111111",
"111111111111111111111111111111111;#<####<#;1111111111111111111111111111111111111",
"111111111111111111111111111111111;#OO+++##@1111111111111111111111111111111111111",
"111111111111111111111111111111111.3@::;::;:@111111111111111111111111111111111111",
"111111111111111111111111111111111.=.;;@:@#;1111111111111111111111111111111111111",
"1111111111111111111111111111111111..@@######111111111111111111111111111111111111",
"1111111111111111111111111111111111$@@##<88####1111111111111111111111111111111111",
"111111111111111111111111111111111@@@@###<<<##<<111111111111111111111111111111111",
"111111111111111111111111111111111$@@####<888@##<<1111111111111111111111111111111",
"111111111111111111111111111111111$@@@@###<<<<@####<11111111111111111111111111111",
"11111111111111111111111111111111@@@1@@#<##<<<@@#####1111111111111111111111111111",
"11111111111111111111111111111111$@@1@@##<#<<<<@@@-@#1111111111111111111111111111",
"1111111111111111111111111111111$@@11@@@#<#<<<<@@--&@1111111111111111111111111111",
"1111111111111111111111111111111@@@111@@####<<<@o&&&o1111111111111111111111111111",
"111111111111111111111111111111$@@11$$@@@#<##<<@.ooo.1111111111111111111111111111",
"111111111111111111111111111111@@@11@@@@@@###<#@1...11111111111111111111111111111",
"11111111111111111111111111111>>@@11@@@11@@####@111111111111111111111111111111111",
"11111111111111111111111111111>>>11@@@1111@@@##@111111111111111111111111111111111",
"111111111111111111111111111111>>11@@11111@@-@@@111111111111111111111111111111111",
"1111111111111111111111111111111111@111>>>@@--@@111111111111111111111111111111111",
"1111111111111111111111111111111111@1>>>>$@-559@111111111111111111111111111111111",
"1111111111111111111111111111111111>>>$$$$@-59-1111111111111111111111111111111111",
"11111111111111111111111111111,,$,$$$$$$$$@@--11111111111111111111111111111111111",
"11111111111111111111111111111OO@$$@@@@@@@111111111111111111111111111111111111111",
"11111111111111111111111111111OO$$@1111111111111111111111111111111111111111111111",
"11111111111111111111111111111$$$@11111111111111111111111111111111111111111111111",
"11111111111111111111111111111OO$111111111111111111111111111111111111111111111111",
"11111111111111111111111111111OO@111111111111111111111111111111111111111111111111",
"11111111111111111111111111111OO@111111111111111111111111111111111111111111111111",
"11111111111111111111111111111@@1111111111111111111111111111111111111111111111111",
"11111111111111111111111111111111111111111111111111111511111111111111111111111111",
"11111111111111111111111111111111111111111111111111111111111111111111111111111111",
"11111111111111111111111111111111111111111111111111111111111111111111111111111111",
"11111111111111111111111111111111111111111111111111111111111111111111111111111111",
"11111111111111111111111111111111111111111111111111111111111111111111111111111111",
"11111111111111111111111111111111111111111111111111111111111111111111111111111111"
};
