/* XPM */
static char *result[] = {
/* columns rows colors chars-per-pixel */
"80 80 8 1 ",
"  c black",
". c #361414",
"X c #652A2A",
"o c #424043",
"O c #711395",
"+ c #FE11DC",
"@ c #929DA4",
"# c #F389F5",
/* pixels */
"++++++++++++++++++++++++++++++++++++++++++++++++++++++++++++++++++++++++++++++++",
"++++++++++++++++++++++++++++++++++++++++++++++++++++++++++++++++++++++++++++++++",
"++++++++++++++++++++++++++++++++++++++++++++++++++++++++++++++++++++++++++++++++",
"++++++++++++++++++++++++++++++++++++++++++++++++++++++++++++++++++++++++++++++++",
"++++++++++++++++++++++++++++++++++++++++++++++++++++++++++++++++++++++++++++++++",
"++++++++++++++++++++++++++++++++++++++++++++++++++++++++++++++++++++++++++++++++",
"++++++++++++++++++++++++++++++++++++++++++++++++++++++++++++++++++++++++++++++++",
"++++++++++++++++++++++++++++++++++++++++++++++++++++++++++++++++++++++++++++++++",
"++++++++++++++++++++++++++++++++++++++++++++++++++++++++++++++++++++++++++++++++",
"++++++++++++++++++++++++++++++++++++++++++++++++++++++++++++++++++++++++++++++++",
"++++++++++++++++++++++++++++++++++++++++++++++++++++++++++++++++++++++++++++++++",
"++++++++++++++++++++++++++++++++++++++++++++++++++++++++++++++++++++++++++++++++",
"++++++++++++++++++++++++++++++++++++++++++++++++++++++++++++++++++++++++++++++++",
"++++++++++++++++++++++++++++++++++++++++++++++++++++++++++++++++++++++++++++++++",
"++++++++++++++++++++++++++++++++++++++++++++++++++++++++++++++++++++++++++++++++",
"++++++++++++++++++++++++++++++++++++++++++++++++++++++++++++++++++++++++++++++++",
"++++++++++++++++++++++++++++++++++++++++++++++++++++++++++++++++++++++++++++++++",
"++++++++++++++++++++++++++++++++++++++++++++++++++++++++++++++++++++++++++++++++",
"++++++++++++++++++++++++++++++++++++++++++++++++XXXXX+++++++++++++++++++++++++++",
"++++++++++++++++++++++++++++++++++++++++XXXXXXXXXXXXXX++++++++++++++++++++++++++",
"++++++++++++++++++++++++++++++++++++XXXXXXXXXXXXXXXXXXX@++++++++++++++++++++++++",
"+++++++++++++++++++++++++++++++++++XXXXXXXXXXXXXXXXXXXX@+       ++++++++++++++++",
"++++++++++++++++++++++++++++++++++XXXXXXXXXXXXXXXXXXXXX@@         ...+++++++++++",
"+++++++++++++++++++++++++++++++XXXXXXXXXX+++++XXXXXXXXX@          @...++++++++++",
"++++++++++++++++++++++++++++++XXXXXX++++++++++@@@XXXXX@@         @@....+++++++++",
"+++++++++++++++++++++++++++++OXXXX++++++++++++@@@@XXX@@@@  X XXX @@........+++++",
"+++++++++++++++++++++++++++OO#XXX+++++++++++++@@@@@@@@@@@ X X X X@...........+++",
"++++++++++++++++++++++++++O##O++++++++++++++++@@@@@@@@@@@ XXXXXXX@+++++++.....++",
"+++++++++++++++++++++++++O#OO++++++++++++++++++@@@@@@@@@@@XXXXXX++++++++++.+.+.+",
"+++++++++++++++++++++++OO#O++++++++++++++++++++@@@@@@@@@@@@XXXXX+++++++++++.++++",
"++++++++++++++++++++++O##O+++++++++++++++oooooo@@@@@@@@@@@@@XXX+++++++++++++++++",
"+++++++++++++++++++++O#OO+++++++++++++++oooooooo@@@@@       ++++++++++++++++++++",
"++++++++++++++++++++O#O++++++++++++++++ooooooooooo              ++++++++++++++++",
"++++++++++++++++++OO#O++++++++++++++++oooooooooooo              ++++++++++++++++",
"+++++++++++++++++O#OO++++++++++++++++ooooooooooooo               +++++++++++++++",
"++++++++++++++++O#O+++++++++++++++++oooooooooooooo                ++++++++++++++",
"++++++++++++++O##O++++++++++++++++++ooooooooooooo+                 +++++++++++++",
"+++++++++++++O#OO++++++++++++++++++ooooooooooooo++++.               ++++++++++++",
"++++++++++++O#O++++++++++++++++++++oooooooooooo+++++........    ... ++++++++++++",
"++++++++++OO#O+++++++++++++++++++++oooooooooooo++++...+......  .... ++++++++++++",
"+++++++++O##O+++++++++++++++++++++oooooooooooo+++++...++++.........+++++++++++++",
"++++++++O#OO++++++++++++++++++++++oooooooXooo++++++..+++++++++...+++++++++++++++",
"+++++++O#O++++++++++++++++++++++++ooo+++XXXXXX+++++..+++++++++++++++++++++++++++",
"+++++O##O+++++++++++++++++++++++++o+++++++XXXX++++++.+++++++++++++++++++++++++++",
"++++O#OO+++++++++++++++++++++++++++++++++++XXX++++++++++++++++++++++++++++++++++",
"+++O#O+++++++++++++++++++++++++++++++++++++XXXX+++++++++++++++++++++++++++++++++",
"+O##O++++++++++++++++++++++++++++++++++++++XXXX+++++++++++++++++++++++++++++++++",
"O#OO++++++++++++++++++++++++++++++++++++++XXXXX+++++++++++++++++++++++++++++++++",
"+O++++++++++++++++++++++++++++++++++++++++XXXX++++++++++++++++++++++++++++++++++",
"++++++++++++++++++++++++++++++++++++++++++XXXX++++++++++++++++++++++++++++++++++",
"++++++++++++++++++++++++++++++++++++++++++XXXX++++++++++++++++++++++++++++++++++",
"+++++++++++++++++++++++++++++++++++++++++++XX+++++++++++++++++++++++++++++++++++",
"++++++++++++++++++++++++++++++++++++++++++++++++++++++++++++++++++++++++++++++++",
"++++++++++++++++++++++++++++++++++++++++++++++++++++++++++++++++++++++++++++++++",
"++++++++++++++++++++++++++++++++++++++++++++++++++++++++++++++++++++++++++++++++",
"++++++++++++++++++++++++++++++++++++++++++++++++++++++++++++++++++++++++++++++++",
"++++++++++++++++++++++++++++++++++++++++++++++++++++++++++++++++++++++++++++++++",
"++++++++++++++++++++++++++++++++++++++++++++++++++++++++++++++++++++++++++++++++",
"++++++++++++++++++++++++++++++++++++++++++++++++++++++++++++++++++++++++++++++++",
"++++++++++++++++++++++++++++++++++++++++++++++++++++++++++++++++++++++++++++++++",
"++++++++++++++++++++++++++++++++++++++++++++++++++++++++++++++++++++++++++++++++",
"++++++++++++++++++++++++++++++++++++++++++++++++++++++++++++++++++++++++++++++++",
"++++++++++++++++++++++++++++++++++++++++++++++++++++++++++++++++++++++++++++++++",
"++++++++++++++++++++++++++++++++++++++++++++++++++++++++++++++++++++++++++++++++",
"++++++++++++++++++++++++++++++++++++++++++++++++++++++++++++++++++++++++++++++++",
"++++++++++++++++++++++++++++++++++++++++++++++++++++++++++++++++++++++++++++++++",
"++++++++++++++++++++++++++++++++++++++++++++++++++++++++++++++++++++++++++++++++",
"++++++++++++++++++++++++++++++++++++++++++++++++++++++++++++++++++++++++++++++++",
"++++++++++++++++++++++++++++++++++++++++++++++++++++++++++++++++++++++++++++++++",
"++++++++++++++++++++++++++++++++++++++++++++++++++++++++++++++++++++++++++++++++",
"++++++++++++++++++++++++++++++++++++++++++++++++++++++++++++++++++++++++++++++++",
"++++++++++++++++++++++++++++++++++++++++++++++++++++++++++++++++++++++++++++++++",
"++++++++++++++++++++++++++++++++++++++++++++++++++++++++++++++++++++++++++++++++",
"++++++++++++++++++++++++++++++++++++++++++++++++++++++++++++++++++++++++++++++++",
"++++++++++++++++++++++++++++++++++++++++++++++++++++++++++++++++++++++++++++++++",
"++++++++++++++++++++++++++++++++++++++++++++++++++++++++++++++++++++++++++++++++",
"++++++++++++++++++++++++++++++++++++++++++++++++++++++++++++++++++++++++++++++++",
"++++++++++++++++++++++++++++++++++++++++++++++++++++++++++++++++++++++++++++++++",
"++++++++++++++++++++++++++++++++++++++++++++++++++++++++++++++++++++++++++++++++",
"++++++++++++++++++++++++++++++++++++++++++++++++++++++++++++++++++++++++++++++++"
};
