/* XPM */
static char *result[] = {
/* columns rows colors chars-per-pixel */
"80 80 8 1 ",
"  c black",
". c #361414",
"X c #652A2A",
"o c #424043",
"O c #711395",
"+ c #FE11DC",
"@ c #929DA4",
"# c #F389F5",
/* pixels */
"++++++++++++++++++++++++++++++++++++++++++++++++++++++++++++++++++++++++++++++++",
"++++++++++++++++++++++++++++++++++++++++++++++++++++++++++++++++++++++++++++++++",
"++++++++++++++++++++++++++++++++++++++++++++++++++++++++++++++++++++++++++++++++",
"++++++++++++++++++++++++++++++++++++++++++++++++++++++++++++++++++++++++++++++++",
"++++++++++++++++++++++++++++++++++++++++++++++++++++++++++++++++++++++++++++++++",
"++++++++++++++++++++++++++++++++++++++++++++++++++++++++++++++++++++++++++++++++",
"++++++++++++++++++++++++++++++++++++++++++++++++++++++++++++++++++++++++++++++++",
"++++++++++++++++++++++++++++++++++++++++++++++++++++++++++++++++++++++++++++++++",
"++++++++++++++++++++++++++++++++++++++++++++++++++++++++++++++++++++++++++++++++",
"++++++++++++++++++++++++++++++++++++++++++++++++++++++++++++++++++++++++++++++++",
"++++++++++++++++++++++++++++++++++++++++++++++++++++++++++++++++++++++++++++++++",
"++++++++++++++++++++++++++++++++++++++++++++++++++++++++++++++++++++++++++++++++",
"+++++++++++++++++++++++++++++++++++++++++++++++++++      +++++++++++++++++++++++",
"++++++++++++++++++++++++++++++++++++++++++++++++++        ++++++++++++++++++++++",
"++++++++++++++++++++++++++++++++++++++++++++++++++         +++++++++++++++++++++",
"++++++++++++++++++++++++++++++++++++++++++++++++++        ++++++++++++++++++++++",
"++++++++++++++++++++++++++++++++++++++++++++++++++   XX X ++++++++++++++++++++++",
"+++++++++++++++++++++++++++++++++++++++++++++XXX@@ X  X X ++++++++++++++++++++++",
"++++++++++++++++++++++++++++++++++++++++++++XXXXX@  X XXX @@@+++++++++++++++++++",
"++++++++++++++++++++++++++++++++++++++++++++XXXXX@@XXXXXX@@@.+++++++++++++++++++",
"++++++++++++++++++++++++++++++++++++++++++++XXXXX@@@XXXXX@@...++++++++++++++++++",
"+++++++++++++++++++++++++++++++++++++++++++XXXXXX@@@@XXX@@@....+++++++++++++++++",
"++++++++++++++++++++++++++++++++++++++++++XXXXXX@@@@@@@@@@@....+++++++++++++++++",
"+++++++++++++++++++++++++++++++++++++++++XXXXX+@@@@@@@@@@@.....+++++++++++++++++",
"++++++++++++++++++++++++++++++++++++++++XXXXXX+@@@@@@@@@@@+....+++++++++++++++++",
"++++++++++++++++++++++++++++++++++++++++XXXXX++@@@@@@@@@@@++...+++++++++++++++++",
"+++++++++++++++++++++++++++++++++++++++XXXXX+++@@@@@@@@@@@++...+++++++++++++++++",
"+++++++++++++++++++++++++++++++++++++++XXXX+++++@@@@@@@@@@+++...++++++++++++++++",
"++++++++++++++++++++++++++++++++++++++XXXX++++++@@@@@@@@@+++++..++++++++++++++++",
"++++++++++++++++++++++++++++++++++++++XXX+++++++@@@@@@@@+++++...++++++++++++++++",
"++++++++++++++++++++++++++++++++++++++XXX+++++++@@@@@@@@++++....++++++++++++++++",
"++++++++++++++++++++++++++++++++++++++XXX++++++oo@@@@@@@++++....++++++++++++++++",
"++++++++++++++++++++++++++++++++++++++XXX+++++oooo@@@@@@++++++..++++++++++++++++",
"++++++++++++++++++++++++++++++++++++++XXX++++oooooooo   ++++++..++++++++++++++++",
"++++++++++++++++++++++++++++++++++++++XXXX++ooooooooo    +++++..++++++++++++++++",
"++++++++++++++++++++++++++++++++++++++XXXXX+ooooooooo    +++++.+++++++++++++++++",
"++++++++++++++++++++++++++++++++++++++++O#O+ooooooooo    +++++++++++++++++++++++",
"++++++++++++++++++++++++++++++++++++++++O#Ooooooooooo     ++++++++++++++++++++++",
"++++++++++++++++++++++++++++++++++++++++O#Ooooooooooo     ++++++++++++++++++++++",
"++++++++++++++++++++++++++++++++++++++++O#Ooooooooooo     ++++++++++++++++++++++",
"+++++++++++++++++++++++++++++++++++++++++O#Oooooooooo     ++++++++++++++++++++++",
"+++++++++++++++++++++++++++++++++++++++++O#Ooooooooo       +++++++++++++++++++++",
"+++++++++++++++++++++++++++++++++++++++++O#Ooooooooo       +++++++++++++++++++++",
"+++++++++++++++++++++++++++++++++++++++++O#Ooooooooo       +++++++++++++++++++++",
"++++++++++++++++++++++++++++++++++++++++++O#Oooooooo       +++++++++++++++++++++",
"++++++++++++++++++++++++++++++++++++++++++O#Oooooooo       +++++++++++++++++++++",
"++++++++++++++++++++++++++++++++++++++++++O#Oooooooo       +++++++++++++++++++++",
"++++++++++++++++++++++++++++++++++++++++++O#OXoooooo       +++++++++++++++++++++",
"+++++++++++++++++++++++++++++++++++++++++++O#OXooooo       +++++++++++++++++++++",
"+++++++++++++++++++++++++++++++++++++++++++O#OXoooo+       +++++++++++++++++++++",
"+++++++++++++++++++++++++++++++++++++++++++O#OXXooo+        ++++++++++++++++++++",
"+++++++++++++++++++++++++++++++++++++++++++O#OXX+oo+        ++++++++++++++++++++",
"++++++++++++++++++++++++++++++++++++++++++++O#OX++++   ...  ++++++++++++++++++++",
"++++++++++++++++++++++++++++++++++++++++++++O#OXXX++  ....  ++++++++++++++++++++",
"++++++++++++++++++++++++++++++++++++++++++++O#OXXX+++.....++++++++++++++++++++++",
"++++++++++++++++++++++++++++++++++++++++++++O#OXXX++.....+++++++++++++++++++++++",
"+++++++++++++++++++++++++++++++++++++++++++++O#OXX++....++++++++++++++++++++++++",
"+++++++++++++++++++++++++++++++++++++++++++++O#OXX++....++++++++++++++++++++++++",
"+++++++++++++++++++++++++++++++++++++++++++++O#OXX++...+++++++++++++++++++++++++",
"+++++++++++++++++++++++++++++++++++++++++++++O#OX+++...+++++++++++++++++++++++++",
"++++++++++++++++++++++++++++++++++++++++++++++O#O+++..++++++++++++++++++++++++++",
"++++++++++++++++++++++++++++++++++++++++++++++O#O+++..++++++++++++++++++++++++++",
"++++++++++++++++++++++++++++++++++++++++++++++O#O+++..++++++++++++++++++++++++++",
"++++++++++++++++++++++++++++++++++++++++++++++O#O++...++++++++++++++++++++++++++",
"+++++++++++++++++++++++++++++++++++++++++++++++O+++...++++++++++++++++++++++++++",
"+++++++++++++++++++++++++++++++++++++++++++++++++++...++++++++++++++++++++++++++",
"+++++++++++++++++++++++++++++++++++++++++++++++++++...++++++++++++++++++++++++++",
"++++++++++++++++++++++++++++++++++++++++++++++++++++..++++++++++++++++++++++++++",
"++++++++++++++++++++++++++++++++++++++++++++++++++++..++++++++++++++++++++++++++",
"+++++++++++++++++++++++++++++++++++++++++++++++++++++.++++++++++++++++++++++++++",
"++++++++++++++++++++++++++++++++++++++++++++++++++++++++++++++++++++++++++++++++",
"++++++++++++++++++++++++++++++++++++++++++++++++++++++++++++++++++++++++++++++++",
"++++++++++++++++++++++++++++++++++++++++++++++++++++++++++++++++++++++++++++++++",
"++++++++++++++++++++++++++++++++++++++++++++++++++++++++++++++++++++++++++++++++",
"++++++++++++++++++++++++++++++++++++++++++++++++++++++++++++++++++++++++++++++++",
"++++++++++++++++++++++++++++++++++++++++++++++++++++++++++++++++++++++++++++++++",
"++++++++++++++++++++++++++++++++++++++++++++++++++++++++++++++++++++++++++++++++",
"++++++++++++++++++++++++++++++++++++++++++++++++++++++++++++++++++++++++++++++++",
"++++++++++++++++++++++++++++++++++++++++++++++++++++++++++++++++++++++++++++++++",
"++++++++++++++++++++++++++++++++++++++++++++++++++++++++++++++++++++++++++++++++"
};
