/* XPM */
static char *result[] = {
/* columns rows colors chars-per-pixel */
"80 80 29 1 ",
"  c #1C1817",
". c #152322",
"X c #152F33",
"o c #1C3439",
"O c #332030",
"+ c #46403E",
"@ c #613141",
"# c #1E5557",
"$ c #2E4B4D",
"% c #3A4D4F",
"& c #615663",
"* c #5A7475",
"= c #991531",
"- c #DD160F",
"; c #984754",
": c #E27C57",
"> c #907E8A",
", c #907E8D",
"< c #FE11DC",
"1 c #188689",
"2 c #5D848C",
"3 c #6A8285",
"4 c #728C8B",
"5 c #69D094",
"6 c #89A3A2",
"7 c #9EBAB9",
"8 c #A7BFAE",
"9 c #DDCFBA",
"0 c #F6F3D8",
/* pixels */
"<<<<<<<<<<<<<<<<<<<<<<<<<<<<<<<<<<<<<<<<<<<<<<<<<<<<<<<<<<<<<<<<<<<<<<<<<<<<<<<<",
"<<<<<<<<<<<<<<<<<<<<<<<<<<<<<<<<<<<<<<<<<<<<<<<<<<<<<<<<<<<<<<<<<<<<<<<<<<<<<<<<",
"<<<<<<<<<<<<<<<<<<<<<<<<<<<<<<<<<<<<<<<<<<<<<<<<<<<<<<<<<<<<<<<<<<<<<<<<<<<<<<<<",
"<<<<<<<<<<<<<<<<<<<<<<<<<<<<<<<<<<<<<<<<<<<<<<<<<<<<<<<<<<<<<<<<<<<<<<<<<<<<<<<<",
"<<<<<<<<<<<<<<<<<<<<<<<<<<<<<<<<<<<<<<<<<<<<<<<<<<<<<<<<<<<<<<<<<<<<<<<<<<<<<<<<",
"<<<<<<<<<<<<<<<<<<<<<<<<<<<<<<<<<<<<<<<<<<<<<<<<<<<<<<<<<<<<<<<<<<<<<<<<<<<<<<<<",
"<<<<<<<<<<<<<<<<<<<<<<<<<<<<<<<<<<<<<<<<<<<<<<<<<<<<<<<<<<<<<<<<<<<<<<<<<<<<<<<<",
"<<<<<<<<<<<<<<<<<<<<<<<<<<<<<<<<<<6<<<<<<<<<<<<<<<<<<<<<<<<<<<<<<<<<<<<<<<<<<<<<",
"<<<<<<<<<<<<<<<<<<<<<<<<<<<<<<<<<<6<<<<<<<<<<<<<<<<<<<<<<<<<<<<<<<<<<<<<<<<<<<<<",
"<<<<<<<<<<<<<<<<<<<<<<<<<<<<<<<<<<6<<<<<<<<<<<<<<<<<<<<<<<<<<<<<<<<<<<<<<<<<<<<<",
"<<<<<<<<<<<<<<<<<<<<<<<<<<<<<<<<<%6<<<<<<<<<<<<<<<<<<<<<<<<<<<<<<<<<<<<<<<<<<<<<",
"<<<<<<<<<<<<<<<<<<<<<<<<<<<<<<<<%%*<<<<<<&<<<<<<<<<<<<<<<<<<<<<<<<<<<<<<<<<<<<<<",
"<<<<<<<<<<<<<<<<<<<<<<<<<<<<<<<<<X6*<<<<&<<<<<<<<<<<<<<<<<<<<<<<<<<<<<<<<<<<<<<<",
"<<<<<<<<<<<<<<<<<<<<<<<<<<<<<<<<<%6*<9&<<<<<<<<<<<<<<<<<<<<<<<<<<<<<<<<<<<<<<<<<",
"<<<<<<<<<<<<<<<<<<<<<<<<<<<<<<<<<%6*<&9<<<<<<<<<<<<<<<<<<<<<<<<<<<<<<<<<<<<<<<<<",
"<<<<<<<<<<<<<<<<<<<<<<<<<<<<<<<<%X6*<9<><<<<<<<<<<<<<<<<<<<<<<<<<<<<<<<<<<<<<<<<",
"<<<<<<<<<<<<<<<<<<<<<<<<<<<<<<<<<%%&<<><><<<<<<<<<<<<<<<<<<<<<<<<<<<<<<<<<<<<<<<",
"<<<<<<<<<<<<<<<<<<<<<<<<<<<<<<><<%%6*<>>><<<<<<<<<<<<<<<<<<<<<<<<<<<<<<<<<<<<<<<",
"<<<<<<<<<<<<<<<<<<<<<<<<<<<<<<<><%&6*>>>><<<<<<<<<<<<<5<<<<<<<<<<<<<<<<<<<<<<<<<",
"<<<<<<<<<<<<<<<<<<<<<<<<<<<<<<<<>%*6*>>>><<<<<<<<<<<<<<5<<<<<<<<<<<<<<<<<<<<<<<<",
"<<<<<<<<<<<<<<<<<<<<<<<<<<<<<<<<<%*6*>>>>><<<<<<<<<<<<<<5<<<<<<<<<<<<<<<<<<<<<<<",
"<<<<<<<<<<<<<<<<<<<<<<<<<<<<<<<<<%%6*>>>>><<<<<<<<<<<<<<5<<<<<<<<<<<<<<<<<<<<<<<",
"<<<<<<<<<<<<<<<<<<<<<<<<<<<<<<<<<%%*%*>>>><<<<<<<<<<<<<<<5<<<<<<<<<<<<<<<<<<<<<<",
"<<<<<<<<<<<<<<<<<<<<<<<<<<<<<<<<<%X%6*>>9><<<<<<<<<<<<<<<<5<<<<<<<<<<<<<<<<<<<<<",
"<<<<<<<<<<<<<<<<<<<<<<<<<<<<<<<<<X%*%*>9>><<<<<<<<<<<<<<<<5<<<<<<<<<<<<<<<<<<<<<",
"<<<<<<<<<<<<<<<<<<<<<<<<<<<<<<<<<%%*6*999><<<<<<<<<<<<<<<<<5<<<<<<<<<<<<<<<<<<<<",
"<<<<<<<<<<<<<<<<<<<<<<<<<<<<<<<<<%%%*6*9>><<<<<<<<<<<<<<<<<5<<<<<<<<<<<<<<<<<<<<",
"<<<<<<<<<<<<<<<<<<<<<<<<<<<<<<<<<%%%*6*>>><<<<<<<<<<<<<<<<<<5<<<<<<<<<<<<<<<<<<<",
"<<<<<<<<<<<<<<<<<<<<<<<<<<<<<::++%%**6*>><<<<<<<<<<<<<<<<<<<5<<<<<<<<<<<<<<<<<<<",
"<<<<<<<<<<<<<<<<<<<<<<<<<;;;;@+>+%%%*6*+><<<<<<<<<<<<<<<<<<<5<<<<<<<<<<<<<<<<<<<",
"<<<<<<<<<<<<<<<<<<<<<<<;;;@@;+>>>%%%66*>><<#<<<<<<<<<<<<<<<<<5<<<<<<<<<<<<<<<<<<",
"<<<<<<<<<<<<<<<<<<<<<<;@@@@@@+>>.%.XX**>%<11111<<<<<<<<<<<<<<5<<<<<<<<<<<<<<<<<<",
"<<<<<<<<<<<<<<<<<<<<<@<+<@<<@@@.* X.....111111111<<<<<<<<<<<<5<<<<<<<<<<<<<<<<<<",
"<<<<<<<<<<<<<<<<<<<<<<<<@<<<<<<..*Xooo1113XXX311111<<<<<<<<<<<,<<<<<<<<<<<<<<<<<",
"<<<<<<<<<<<<<<<<<<<<<OO<<<<<<<..X%X%%11X.0X#37001111<<<<<<<<<<,<<<<<<<<<<<<<<<<<",
"<<<<<<<<<<<<<<<<<<<<<OOOO<<<<<..*X..1..X..XX%37770111<<<<<<<<<,<<<<<<<<<<<<<<<<<",
"<<<<<<<<<<<<<<<<<<<<<@@OOOO<<< .X.*1611111;Xo%33333111<<<<<<<<,<<<<<<<<<<<<<<<<<",
"<<<<<<<<<<<<<<<<<<<<<<<@@OOOO<< ..X111111111.o%%%%%%11<<<<<<<<,<<<<<<<<<<<<<<<<<",
"<<<<<<<<<<<<<<<<<<<<<<<<<@@OOOO< 11111.. @;111ooo%37%11<<<<<<<<,<<<<<<<<<<<<<<<<",
"<<<<<<<<<<<<<<<<<<<<<<<<<<<@@OOO1111%. .@@@::11.%3oo>11<<<<<<<<,<<<<<<<<<<<<<<<<",
"<<<<<<<<<<<<<<<<<<<<<<<<<<<<<@@111......OO@;:;:1...++>11<<<<<<<,<<<<<<<<<<<<<<<<",
"<<<<<<<<<<<<<<<<<<<<<<<<<<<<<<<11oo....#o@@@;;;:;:O+OO11<<<<<<<,<<<<<<<<<<<<<<<<",
"<<<<<<<<<<<<<<<<<<<<<<<<<<<<<<11<.ooo.oX#O##@@@@;:O+++O11<<<<<<,<<<<<<<<<<<<<<<<",
"<<<<<<<<<<<<<<<<<<<<<<<<<<<<<111<<..oo..XXX##X@@O1OOOO<11<<<<<<,<<<<<<<<<<<<<<<<",
"<<<<<<<<<<<<<<<<<<<<<<<<<<<<<11<<<<......X22.O-O@O<<<<<<1<<<<<<,<<<<<<<<<<<<<<<<",
"<<<<<<<<<<<<<<<<<<<<<<<<<<<<11<<<<<<<+++OO##O-OOOO<<<<<<11<<<<<,<<<<<<<<<<<<<<<<",
"<<<<<<<<<<<<<<<<<<<<<<<<<<<<11<<<<<<<++++=22O#=OO<<<<<<<11<<<<<&<<<<<<<<<<<<<<<<",
"<<<<<<<<<<<<<<<<<<<<<<<<<<<<1<<<<<<<99>+==44#=-OOOOOO<<<<1<<<<<,<<<<<<<<<<<<<<<<",
"<<<<<<<<<<<<<<<<<<<<<<<<<<<11<<<<>+++++O-=##-OOOOOO @<<<<1<<<<<,<<<<<<<<<<<<<<<<",
"<<<<<<<<<<<<<<<<<<<<<<<<<<<11<<>>>++++OOOO24O++>@OO ;<<<<11<<<<&<<<<<<<<<<<<<<<<",
"<<<<<<<<<<<<<<<<<<<<<<<<<<<1<>>>>++>+OOOOO28OO+O>O;;<<<<<11<<<<,<<<<<<<<<<<<<<<<",
"<<<<<<<<<<<<<<<<<<<<<<<<<<<1>>>>>+>+++OOOO28+OOO>><<<<<<<<1<<<<&<<<<<<<<<<<<<<<<",
"<<<<<<<<<<<<<<<<<<<<<<<<<<11++>>+>>++OOOOO28OOO+++><<<<<<<1<<<<&<<<<<<<<<<<<<<<<",
"<<<<<<<<<<<<<<<<<<<<<<<<<<11OO+>>>++OOOOOO28O+OO++>><<<<<<1<<<<&<<<<<<<<<<<<<<<<",
"<<<<<<<<<<<<<<<<<<<<<<<<<<1+60O+>+OOOOOOOO28OO++O>>+><<<<<1<<<<&<<<<<<<<<<<<<<<<",
"<<<<<<<<<<<<<<<<<<<<<<<<<<1606*O+++OO<<<<<48OOOO++++++<<<<1<<<&<<<<<<<<<<<<<<<<<",
"<<<<<<<<<<<<<<<<<<<<<<<<<<1*66**OOOO<<<<<<48OOOOOO++6$$<<<1<<<&<<<<<<<<<<<<<<<<<",
"<<<<<<<<<<<<<<<<<<<<<<<<<<1O**OOOOO<<<<<<<48<<OOOOO+O*$$$<1<<<<<<<<<<<<<<<<<<<<<",
"<<<<<<<<<<<<<<<<<<<<<<<<<<1<OOOOOO<<<<<<<<28<<<<<OOOO*o$.<1<<<<<<<<<<<<<<<<<<<<<",
"<<<<<<<<<<<<<<<<<<<<<<<<<<1<<OOOOO@@@<<<<<28<<<<OOOOOooo.<1<<&<<<<<<<<<<<<<<<<<<",
"<<<<<<<<<<<<<<<<<<<<<<<<<<1<<<<OOOOO@<<<<<28<<<OOOOOO...O<1<<<<<<<<<<<<<<<<<<<<<",
"<<<<<<<<<<<<<<<<<<<<<<<<<<1<<<<<<<OO@<<<<<28<<OOOOOOOOOO<<1<<<<<<<<<<<<<<<<<<<<<",
"<<<<<<<<<<<<<<<<<<<<<<<<<<1<<<<<<<<@@@<<<<24OOOOOOOOOO<<<<<<&<<<<<<<<<<<<<<<<<<<",
"<<<<<<<<<<<<<<<<<<<<<<<<<<1<<<<<<<<OO@<<<<28OOOOO<<<<<<<<<<<<<<<<<<<<<<<<<<<<<<<",
"<<<<<<<<<<<<<<<<<<<<<<<<<<<<<<<<<<<<OO<<<<28OO<<<<<<<<<<<1<<<<<<<<<<<<<<<<<<<<<<",
"<<<<<<<<<<<<<<<<<<<<<<<<<<<<<<<<<<<<O<<<<<28O<<<<<<<<<<<<1<<<<<<<<<<<<<<<<<<<<<<",
"<<<<<<<<<<<<<<<<<<<<<<<<<<<1<<<<<<<<<<<<<<28<<<<<<<<<<<<<<<<<<<<<<<<<<<<<<<<<<<<",
"<<<<<<<<<<<<<<<<<<<<<<<<<<<1<<<<<<<<<<<<<<48<<<<<<<<<<<<<<<<<<<<<<<<<<<<<<<<<<<<",
"<<<<<<<<<<<<<<<<<<<<<<<<<<<<<<<<<<<<<<<<<<48<<<<<<<<<<<<1<<<<<<<<<<<<<<<<<<<<<<<",
"<<<<<<<<<<<<<<<<<<<<<<<<<<<<<<<<<<<<<<<<<<24<<<<<<<<<<<<<<<<<<<<<<<<<<<<<<<<<<<<",
"<<<<<<<<<<<<<<<<<<<<<<<<<<<<1<<<<<<<<<<<<<24<<<<<<<<<<<<<<<<<<<<<<<<<<<<<<<<<<<<",
"<<<<<<<<<<<<<<<<<<<<<<<<<<<<<<<<<<<<<<<<<<28<<<<<<<<<<<<<<<<<<<<<<<<<<<<<<<<<<<<",
"<<<<<<<<<<<<<<<<<<<<<<<<<<<<<<<<<<<<<<<<<<28<<<<<<<<<<<<<<<<<<<<<<<<<<<<<<<<<<<<",
"<<<<<<<<<<<<<<<<<<<<<<<<<<<<<<<<<<<<<<<<<<48<<<<<<<<<<<<<<<<<<<<<<<<<<<<<<<<<<<<",
"<<<<<<<<<<<<<<<<<<<<<<<<<<<<<<<<<<<<<<<<<<42<<<<<<<<<<<<<<<<<<<<<<<<<<<<<<<<<<<<",
"<<<<<<<<<<<<<<<<<<<<<<<<<<<<<<<<<<<<<<<<<<42<<<<<<<<<<<<<<<<<<<<<<<<<<<<<<<<<<<<",
"<<<<<<<<<<<<<<<<<<<<<<<<<<<<<<<<<<<<<<<<<<2<<<<<<<<<<<<<<<<<<<<<<<<<<<<<<<<<<<<<",
"<<<<<<<<<<<<<<<<<<<<<<<<<<<<<<<<<<<<<<<<<<<<<<<<<<<<<<<<<<<<<<<<<<<<<<<<<<<<<<<<",
"<<<<<<<<<<<<<<<<<<<<<<<<<<<<<<<<<<<<<<<<<<<<<<<<<<<<<<<<<<<<<<<<<<<<<<<<<<<<<<<<",
"<<<<<<<<<<<<<<<<<<<<<<<<<<<<<<<<<<<<<<<<<<<<<<<<<<<<<<<<<<<<<<<<<<<<<<<<<<<<<<<<"
};
