/* XPM */
static char *result[] = {
/* columns rows colors chars-per-pixel */
"80 80 10 1 ",
"  c black",
". c #391B1B",
"X c #652E2E",
"o c #46403E",
"O c #613141",
"+ c #444245",
"@ c #701B94",
"# c #FE11DC",
"$ c #919CA3",
"% c #F288F5",
/* pixels */
"################################################################################",
"################################################################################",
"################################################################################",
"################################################################################",
"################################################################################",
"################################################################################",
"################################################################################",
"################################################################################",
"################################################################################",
"################################################################################",
"################################################################################",
"################################################################################",
"################################################################################",
"################################################################################",
"################################################################################",
"################################################################################",
"################################################################################",
"################################################################################",
"################################################################################",
"################################################################################",
"################################################################################",
"################################################################################",
"################################################################################",
"################################################################################",
"################################################################################",
"################################################################################",
"################################################################################",
"################################################################# ##############",
"############################################################# ###   ############",
"##############################################################        ##########",
"###############################################################          #######",
"#############################################################            #######",
"##############################################################            ######",
"######################################################XXX###  ##          ######",
"####################################################XXXXXXX$$             ######",
"##################################################XXXXXXXXX$$$            ######",
"#################################################XXXXXXXXXX$$      XX  XX ######",
"##############################################XXXXXXXXXXXXX$$   X XXXXXXXX######",
"###########################################XXXXXXXXXXXXXXXX$$$$ XXXXXXXXX#######",
"##########################################XXXXXXXXXXXXXXXX$$$$$$XXXXXXXX########",
"#########################################XXXXXXXXXXXXXXXX$$$$$$$XXXXXXXX########",
"#######################################XXXXXXXXXX####$$$$$$$$$$$$XXXXXXX########",
"#####################################XXXXXX#########$$$$$$$$$$$$$$XXXXX#########",
"###################################XXXXX###########$$$$$$$$$$$$$$$$XXX##########",
"#################################@@XXXX###########$$$$$$$$$$$$$$$...############",
"###############################@@%%XXX###########$$$$$$$$$$$$$$$......##########",
"#############################@@%%@@##############$$$$$$$$$########.....#########",
"###########################@@%%@@###############$$$$$$$$$##########.#.#.########",
"#########################@@%%@@#################++$$$$$$############.###########",
"#######################@@%%@@###################+++++++++#######################",
"#####################@@%%@@#####################+++++++++ ######################",
"###################@@%%@@######################+++++++++   #####################",
"#################@@%%@@########################+++++++++     ###################",
"###############@@%%@@##########################+++++++++      ##################",
"#############@@%%@@############################+++++++++      ##################",
"###########@@%%@@#############################+++++++++        #################",
"#########@@%%@@###############################+++++++++         ################",
"#######@@%%@@################################++++++++++          ###############",
"#####@@%%@@#################################+++++++++++   ....   ###############",
"###@@%%@@###################################++++o+++++##.......#################",
"##@%%@@####################################++++o+++++##.......##################",
"###@@######################################++++o+++++##......###################",
"############################################XX++++++###....#####################",
"###########################################XXXX++++###...#######################",
"###########################################XXXXX+++#....########################",
"##########################################XXXXXX#+##....########################",
"##########################################XXXXXX####...#########################",
"#########################################XXXXX#######..#########################",
"#########################################XXXO########..#########################",
"########################################XXXX#########..#########################",
"#######################################XXXX###########.#########################",
"#######################################XXX######################################",
"#####################################XXXXX######################################",
"####################################XXXXX#######################################",
"####################################XXXXX#######################################",
"#####################################XOXX#######################################",
"#####################################XOXX#######################################",
"######################################XXX#######################################",
"######################################XXXX######################################",
"#######################################XXXX#####################################"
};
