/* XPM */
static char *result[] = {
/* columns rows colors chars-per-pixel */
"50 50 7 1 ",
"  c #181818",
". c #696A6A",
"X c #C87808",
"o c #BDA632",
"O c #847E87",
"+ c #FE11DC",
"@ c #9BADB7",
/* pixels */
"++++++++++++++++++++++++++++++++++++++++++++++++++",
"++++++++++++++++++++++++++++++++++++++++++++++++++",
"++++++++++++++++++++++++++++++++++++++++++++++++++",
"++++++++++++++++++++++++++++++++++++++++++++++++++",
"++++++++++++++++++++++++++++++++++++++++++++++++++",
"++++++++++++++++++++++++++++++++++++++++++++++++++",
"++++++++++++++++++++++++++++++++++++++++++++++++++",
"++++++++++++++++++++++XXXXX+++++++++++++++++++++++",
"++++++++++++++++++++XX  o  XXX++++++++++++++++++++",
"++++++++++++++++++XX  o o oo  XX++++++++++++++++++",
"++++++++++++++++XX  o OOOOOO o  XX++++++++++++++++",
"+++++++++++++++X  o OOOOOOOOOO o  X+++++++++++++++",
"++++++++++++++XXo OOOOO@@@@OOOOO oXX++++++++++++++",
"+++++++++++++X  oOOOO@@++++@@OOOOo  X+++++++++++++",
"++++++++++++XXo OOO@@++++++++@@OOO oXX++++++++++++",
"+++++++++++X  oOO@@++++++++++++@@OOo  X+++++++++++",
"++++++++++XXo OO@++++++++++++++++@OO oXX++++++++++",
"+++++++++X  oOO@++++++++++++++++++@OOo  X+++++++++",
"+++++++++Xo OO@++++++++++++++++++++@OO oX+++++++++",
"++++++++XXoOOO@++++++++++++++++++++@OOOoXX++++++++",
"+++++++X  oOO@++++++++++++++++++++++@OOo  X+++++++",
"+++++++XX OOO@++++++++++++++++++++++@OOO XX+++++++",
"+++++++Xo OO@++++++++++++++++++++++++@OO oX+++++++",
"+++++++XoOOO@++++++++++++++++++++++++@OOOoX+++++++",
"++++++X oOO@++++++++++++++++++++++++++@OOo X++++++",
"++++++X OOO@++++++++++++++++++++++++++@OOO X++++++",
"++++++XoOOO@++++++++++++++++++++++++++@OOOoX++++++",
"++++++X OO@++++++++++++++++++++++++++++@OO X++++++",
"++++++X OO@++++++++++++++++++++++++++++@OO X++++++",
"++++++XoOO@++++++++++++++++++++++++++++@OOoX++++++",
"++++++X OO@++++++++++++++++++++++++++++@OO X++++++",
"++++++X OO@++++++++++++++++++++++++++++@OO X++++++",
"++++++XoOO@++++++++++++++++++++++++++++@OOoX++++++",
"++++++X OOO@++++++++++++++++++++++++++@OOO X++++++",
"++++++X OOO@++++++++++++++++++++++++++@OOO X++++++",
"++++++XoOOO@++++++++++++++++++++++++++@OOOoX++++++",
"++++++Xo OO@++++++++++++++++++++++++++@OO oX++++++",
"+++++++X OOO@++++++++++++++++++++++++@OOO X+++++++",
"+++++++X oOO@++++++++++++++++++++++++@OOo X+++++++",
"++++++++XoOOO@++++++++++++++++++++++@OOOoX++++++++",
"++++++++Xo OO@++++++++++++++++++++++@OO oX++++++++",
"+++++++++X OOO@++++++++++++++++++++@OOO X+++++++++",
"+++++++++X oOO@++++++++++++++++++++@OOo X+++++++++",
"++++++++++Xo OO@@++++++++++++++++@@OO oX++++++++++",
"+++++++++++X oOOO@@++++++++++++@@OOOo X+++++++++++",
"++++++++++++Xo OOOO@++++++++++@OOOO oX++++++++++++",
"+++++++++++++X oOOO@@@@@@@@@@@@OOOo X+++++++++++++",
"++++++++++++++Xo oOOOOOOOOOOOOOOo oX++++++++++++++",
"+++++++++++++++XXoOO..........OOo+++++++++++++++++",
"+++++++++++++++++................+++++++++++++++++"
};
