/* XPM */
static char *result[] = {
/* columns rows colors chars-per-pixel */
"50 50 16 1 ",
"  c #280028",
". c #680000",
"X c #204020",
"o c #404000",
"O c #406840",
"+ c #A01800",
"@ c #983000",
"# c #E02800",
"$ c #F07000",
"% c #00F870",
"& c #909000",
"* c #F8C000",
"= c #FE11DC",
"- c #80A080",
"; c #A0C0A0",
": c #F8E0A8",
/* pixels */
"==================================================",
"==================================================",
"==================================================",
"==================================================",
"==================================================",
"==================================================",
"======================+...@=======================",
"=====================+###.@@   ===================",
"====================+.#.++:$$$@ ==================",
"====================.%++.***$$$$ =================",
"===================.O%++****$@@$@ ================",
"===================O%OO.$*$@$@@@@  ===============",
"===================%%O..$@@@@@@@@ X===============",
"===================O%...XXX     @ O===============",
"===================  #X XX;--OXX  X===============",
"===================###+X@@$$$@@@X  ===============",
"==================#++..X**::$@@ X  ===============",
"==================#++..X***:$@@ X ================",
"============XXXX==+..  @****$@@   ================",
"==========X X**$XX   + @**$@@   X ================",
"====   XX XX @$$@@XXX@XX@@@  &oo =================",
"=== --X--X-- @@$@@$**$;X     ooo =================",
"=== ;;X;;X;;;  @$$:** -$@@ oooo  =================",
"=== ;;X;;X;;;  @$$:** -$@@ oooo  =================",
"=== OO OO OOOOO @$$ $ *$        ==================",
"=== XX XX XXXXX @@@ @@    o@@o  ==================",
"====              X       @$$$oo==================",
"=====================o@ @@$$$*@@o=================",
"===================oo@ o@@$***$$@=================",
"===================oo@ o@@$***$$@=================",
"==================o@@ oo@@$::*$$@=================",
"==================o$$ &o@@$***$$o=================",
"================oo$  &&o  @@@$@@o=================",
"================oo@  o @  @$$*$$ =================",
"=============== $$ &&   == $$$@@ =================",
"=============== $$$&&& ==== @@@@ oo===============",
"=============== $$$&oo ==== @@@@ oo===============",
"=============== $$@oo@@ ===     @@@$@@============",
"================  @oo@@ ===== $$$@@$$$@===========",
"================== @@@@o===== @@$@@***@===========",
"================== $$@oo======  @@@$**$oo=========",
"================  @$$@@o======== @@o$$$oo=========",
"================ @$$o@@o========   o$$$oo=========",
"================ @$oo@oo===========   @ooo========",
"================ @$oo o@ ========== $$ooo@========",
"=============   @@ @@ @@ ========== @@$@@$oo======",
"============ @@@@$$@@@@@ ========  ooo@$@$$ ======",
"============ @@$$$$$@    ======= @@$$$@@@@  ======",
"============          ==========            ======",
"=================================================="
};
