/* XPM */
static char *_f11295feaea4081c5776b1237c134eb5qdCUVdkYCARviwM[] = {
/* columns rows colors chars-per-pixel */
"50 50 15 1 ",
"  c #2C012C",
". c #680100",
"X c #254225",
"o c #424200",
"O c #426842",
"+ c #9E1F00",
"@ c #963400",
"# c #DF2D00",
"$ c #EF7000",
"% c #7F9E7F",
"& c #8F8F00",
"* c #F8BF00",
"= c #FE11DC",
"- c #9FBF9F",
"; c #F8DFA6",
/* pixels */
"==================================================",
"==================================================",
"==================================================",
"==================================================",
"==================================================",
"==================================================",
"==================================================",
"==================================================",
"==================================================",
"==================================================",
"==================================================",
"==================================================",
"==================================================",
"==================================================",
"==================================================",
"=====================...==========================",
"===================+;#.++.========================",
"=============@;* =+.##+..     ====================",
"=============*$*$    ..   @$$@ ===================",
"=============$**$ $@    XO% *$@ ==================",
"============= @$@ $**$@ $XO%@*$ ==================",
"============== @ @@$**$@*$ - $@ ==================",
"=================  @$$*@$@ % *$ ==================",
"==========  X ====  @@$ @@ O $@ ==================",
"========= XX%XX== #+  @   OX@@ ===================",
"=========  X - XX +. ..o      ====================",
"=========    % -  . +. o&&o o ====================",
"==========  O  % %  . &&oo&o =====================",
"===========  OO OOX  o&o&&o  =====================",
"=============  X XXX   o&ooo  ====================",
"===============     == oo $@  ====================",
"======================  **@$$ ====================",
"====================  $**$**$ ====================",
"=================== $$**@*$$@ ====================",
"================== @  $$@o   =====================",
"================== *@     @ ======================",
"================== **@ @ @ =======================",
"================== @$$@$ @ =======================",
"=================== $@*$$ ========================",
"===================  **$$  =======================",
"=================== @ $$$@ =======================",
"=================== $@ @$@  ======================",
"=================== $@  @@ @ =====================",
"==================== @ $  @ @  ===================",
"=====================  $$@$ @@@ ==================",
"======================= $$@ @@@@ =================",
"====================== @@$    @@ =================",
"===================== $$  === @ ==================",
"=====================   ====  @ ==================",
"============================   ==================="
};
