/* XPM */
static char *result[] = {
/* columns rows colors chars-per-pixel */
"48 48 8 1 ",
"  c #181818",
". c #2C303B",
"X c #363E52",
"o c #404A60",
"O c #FE11DC",
"+ c #75889C",
"@ c #88A5B5",
"# c #D9EEF2",
/* pixels */
"         OOOOOOOOOOOOOOOOOOOOOOOOOOOOOO         ",
" ooooooX    OOOOOOOOOOOOOOOOOOOOOOOO    ooooooo ",
" ooooooX oo OOOOOOOOOOOOOOOOOOOOOOOO oo Xoooooo ",
" oooooXX oo                          oo Xoooooo ",
" oooooXX oo +++@@@###########@@@++++ oo XXooooo ",
" oooooX. oo +++@@@@#########@@@@++++ oo .XXoooo ",
" ooooXX. XX +++++@@@@@@@@@@@@@++++++ XX .XXoooo ",
" oooXXX. XX ++++++@@@@@@@@@@@+++++++ XX .XXoooo ",
" oXXXX.. ..                          XX .XXXooo ",
" XXXX...    OOOOOOOOOOOOOOOOOOOOOOOO .. ..XXXXX ",
" X......    OOOOOOOOOOOOOOOOOOOOOOOO    ...XXXX ",
" ....... OOOOOOOOOOOOOOOOOOOOOOOOOOOOOO ......X ",
"         OOOOOOOOOOOOOOOOOOOOOOOOOOOOOO         ",
"OO ++++ OOOOOOOOOOOOOOOOOOOOOOOOOOOOOOOOO ++++ O",
"OO ++++ OOOOOOOOOOOOOOOOOOOOOOOOOOOOOOOOO ++++ O",
"OO @+++ OOOOOOOOOOOOOOOOOOOOOOOOOOOOOOOOO +++@ O",
"OO @+++ OOOOOOOOOOOOOOOOOOOOOOOOOOOOOOOOO ++@# O",
"OO @@++ OOOOOOOOOOOOOOOOOOOOOOOOOOOOOOOOO ++@# O",
"OO @@++ OOOOOOOOOOOOOOOOOOOOOOOOOOOOOOOOO +@@# O",
"OO #@@+ OOOOOOOOOOOOOOOOOOOOOOOOOOOOOOOOO +@@# O",
"OO #@@+ OOOOOOOOOOOOOOOOOOOOOOOOOOOOOOOOO +@@# O",
"OO #@@+ OOOOOOOOOOOOOOOOOOOOOOOOOOOOOOOOO +@@# O",
"OO #@@+ OOOOOOOOOOOOOOOOOOOOOOOOOOOOOOOOO @@## O",
"OO #@@+ OOOOOOOOOOOOOOOOOOOOOOOOOOOOOOOOO @@## O",
"OO ##@+ OOOOOOOOOOOOOOOOOOOOOOOOOOOOOOOOO @@## O",
"OO ##@+ OOOOOOOOOOOOOOOOOOOOOOOOOOOOOOOOO @### O",
"OO ##@+ OOOOOOOOOOOOOOOOOOOOOOOOOOOOOOOOO @### O",
"OO ##@+                                   @### O",
"OO ##@+ +++@@@@###################@@@@+++ @### O",
"OO ##@+ ++++@@@@@###############@@@@@@+++ @### O",
"OO ##@+ +++++@@@@@@@@######@@@@@@@+++++++ @### O",
"OO ##@+ +++++++@@@@@@@@@@@@@@@@@@++++++++ @### O",
"OO ##@+ +++++++++++++++++++++++++++++++++ @### O",
"OO ##@+                                   @### O",
"OO ##@+ OOOOOOOOOOOOOOOOOOOOOOOOOOOOOOOOO @### O",
"OO ##@+ OOOOOOOOOOOOOOOOOOOOOOOOOOOOOOOOO @### O",
"OO ##@+ OOOOOOOOOOOOOOOOOOOOOOOOOOOOOOOOO @### O",
"OO ##@+ OOOOOOOOOOOOOOOOOOOOOOOOOOOOOOOOO @### O",
"OO ##@+ OOOOOOOOOOOOOOOOOOOOOOOOOOOOOOOOO @### O",
"OO ##@+ OOOOOOOOOOOOOOOOOOOOOOOOOOOOOOOOO @### O",
"OO ##@+ OOOOOOOOOOOOOOOOOOOOOOOOOOOOOOOOO @### O",
"OO ##@+ OOOOOOOOOOOOOOOOOOOOOOOOOOOOOOOOO @@## O",
"OO ##@+ OOOOOOOOOOOOOOOOOOOOOOOOOOOOOOOOO @@## O",
"OO ##@+ OOOOOOOOOOOOOOOOOOOOOOOOOOOOOOOOO +@## O",
"OO ##@+ OOOOOOOOOOOOOOOOOOOOOOOOOOOOOOOOO +@## O",
"OO #@@+ OOOOOOOOOOOOOOOOOOOOOOOOOOOOOOOOO +@## O",
"OO @@++ OOOOOOOOOOOOOOOOOOOOOOOOOOOOOOOOO +@@# O",
"OO @@++ OOOOOOOOOOOOOOOOOOOOOOOOOOOOOOOOO ++@@ O"
};
