/* XPM */
static char *result[] = {
/* columns rows colors chars-per-pixel */
"50 50 11 1 ",
"  c #181818",
". c #2C303B",
"X c #363E52",
"o c #404A60",
"O c #4D5C75",
"+ c #AC7935",
"@ c #BDA632",
"# c #607389",
"$ c #75889C",
"% c #88A5B5",
"& c #D9EEF2",
/* pixels */
"   ++++++++     ++++++++    ++++++++     +++++++  ",
"   ++++++++     ++++++++    ++++++++     +++++++  ",
"  @@@@@@@      @@@@@@@     @@@@@@@      @@@@@@@   ",
"  @@@@@@@      @@@@@@@     @@@@@@@      @@@@@@@   ",
"##################################################",
"XXXXXXXXXXXXXXXXXXXXXXXXXXXXXXXXXXXXXXXXXXXXXXXXXX",
"XXXXXXXXXXXXXXXXXXXXXXXXXXXXXXXXXXXXXXXXXXXXXXXXXX",
"XXX$$%&&%%%%%%%$%%$XXXXX%&&&&&%$$%%%$$$$$$$$$$$XXX",
"XXX$$%&&%%%%%%%$%%$XXXXX%&&&&&%$$%%%$$$$$$$$$$$XXX",
"XX&##################X%%#################OO######X",
"XX&##O############O##X$$#################OO###O##X",
"XX&##O############O##X$$#################OO###O##X",
"XX%##################X%%###%$$%oo########OO######X",
"XX%##################X%%###%$$%oo########OO######X",
"XX%##################X%%###%$$%oo########OO######X",
"XX%OOOOOOOOOOOOOOO###X$$#%%######o#######OOOOOOOOX",
"XX%#############oo#XXXXX#$$######o#######OO######X",
"XX%#############oo#XXXXX#$$######o#######OO######X",
"XX$############XXXXXXXXXXXXXXXXXXX#######OO######X",
"XX$############XXXXXXXXXXXXXXXXXXX#######OO######X",
"XX%############XXX&&&%%%%%%$$$%$$XXX#####OO###O##X",
"XX$############X&&#########O######XX#####oo####XXX",
"XX$############X&&#########O######XX#####oo####XXX",
"XX$######%%%%$$X%%#OO######O######XXXXXXXXXXXXXXXX",
"XX$######%%%%$$X%%#OO######O######XXXXXXXXXXXXXXXX",
"XXoOOO##%####ooX%%####OOOOOOOO##############OO###X",
"..$##O##$####ooX%%OOOOOO####OO##############OO###X",
"..$##O##$####ooX%%OOOOOO####OO##############OO###X",
"..$##O##%####ooX$$##########OO########OOOOOOOO###.",
"..$##O##%####ooX$$##########OO########OOOOOOOO###.",
"..X##o##$ooooXXXXX##########oo######oo#########...",
".....XXXXXXXX........XXXXXXXXXXXXXXXXXXXXXXXXX....",
".....XXXXXXXX........XXXXXXXXXXXXXXXXXXXXXXXXX....",
"..$&&&&&$%%$$$$#...$$%%%&&&%%%$%%%$$$$%%$$$$$$$$$.",
"..$&&&&&$%%$$$$#...$$%%%&&&%%%$%%%$$$$%%$$$$$$$$$.",
"..$#####OOOOOOOO..$########################O#####.",
"..$#####o#######..%##O#####OOOOOOOOOOOOOOOOO#####.",
"..$#####o#######..%##O#####OOOOOOOOOOOOOOOOO#####.",
"..$#####o#######..%##O#####OOOOOOOOOOOOOOOOO#####.",
"...#####o######X..$########o###################...",
"...#####o######X..$########o###################...",
"..................................................",
"..OOOOOOOooOOOOo.....OOOOOOoOO....oooooo.OOOOOOoo.",
"..OOOOOOOooOOOOo.....OOOOOOoOO....oooooo.OOOOOOoo.",
"..Oooooooooooooooo.OOoXXoooooo......oooo.oooooooo.",
"..Oooooooooooooooo.OOoXXoooooo......oooo.oooooooo.",
"..OoooooXXXXXXXXXX.oooXXXXXooo...o.......XXXooooo.",
"...................OOooooXXo.....o..oooo..........",
"...................OOooooXXo.....o..oooo..........",
".................................................."
};
