/* XPM */
static char *result[] = {
/* columns rows colors chars-per-pixel */
"48 48 11 1 ",
"  c #181818",
". c #2C303B",
"X c #363E52",
"o c #404A60",
"O c #4D5C75",
"+ c #AC7935",
"@ c #BDA632",
"# c #607389",
"$ c #75889C",
"% c #88A5B5",
"& c #D9EEF2",
/* pixels */
"   ++++++++    ++++++++    ++++++++    ++++++++ ",
"   ++++++++    ++++++++    ++++++++    ++++++++ ",
"  @@@@@@@     @@@@@@@     @@@@@@@     @@@@@@@   ",
"  @@@@@@@     @@@@@@@     @@@@@@@     @@@@@@@   ",
"################################################",
"XXXXXXXXXXXXXXXXXXXXXXXXXXXXXXXXXXXXXXXXXXXXXXXX",
"XXXXXXXXXXXXXXXXXXXXXXXXXXXXXXXXXXXXXXXXXXXXXXXX",
"XXX$$%&&%%%%%%$%%$XXXXX%&&&&&%$$%%%$$$$$$$$$$XXX",
"XXX$$%&&%%%%%%$%%$XXXXX%&&&&&%$$%%%$$$$$$$$$$XXX",
"XX&#################X%%################OO######X",
"XX&##O###########O##X$$################OO###O##X",
"XX&##O###########O##X$$################OO###O##X",
"XX%#################X%%###%$$%oo#######OO######X",
"XX%#################X%%###%$$%oo#######OO######X",
"XX%OOOOOOOOOOOOOO###X$$#%%######o######OOOOOOOOX",
"XX%############oo#XXXXX#$$######o######OO######X",
"XX%############oo#XXXXX#$$######o######OO######X",
"XX$###########XXXXXXXXXXXXXXXXXXX######OO######X",
"XX$###########XXXXXXXXXXXXXXXXXXX######OO######X",
"XX%###########XXX&&&%%%%%%$$$%$$XXX####OO###O##X",
"XX$###########X&&#########O######XX####oo####XXX",
"XX$###########X&&#########O######XX####oo####XXX",
"XX$######%%%$$X%%#OO######O######XXXXXXXXXXXXXXX",
"XX$######%%%$$X%%#OO######O######XXXXXXXXXXXXXXX",
"XXoOOO##%###ooX%%####OOOOOOOO#############OO###X",
"..$##O##$###ooX%%OOOOOO####OO#############OO###X",
"..$##O##$###ooX%%OOOOOO####OO#############OO###X",
"..$##O##%###ooX$$##########OO#######OOOOOOOO###.",
"..$##O##%###ooX$$##########OO#######OOOOOOOO###.",
"..X##o##$oooXXXXX##########oo######o#########...",
".....XXXXXXX........XXXXXXXXXXXXXXXXXXXXXXXX....",
".....XXXXXXX........XXXXXXXXXXXXXXXXXXXXXXXX....",
"..$&&&&&$%%$$$#...$$%%%&&&%%%$%%%$$$%%$$$$$$$$$.",
"..$&&&&&$%%$$$#...$$%%%&&&%%%$%%%$$$%%$$$$$$$$$.",
"..$#####OOOOOOO..$#######################O#####.",
"..$#####o######..%##O#####OOOOOOOOOOOOOOOO#####.",
"..$#####o######..%##O#####OOOOOOOOOOOOOOOO#####.",
"...#####o#####X..$########o##################...",
"...#####o#####X..$########o##################...",
"................................................",
"..OOOOOOOooOOOo.....OOOOOOoOO....ooooo.OOOOOOoo.",
"..OOOOOOOooOOOo.....OOOOOOoOO....ooooo.OOOOOOoo.",
"..Ooooooooooooooo.OOoXXoooooo......ooo.oooooooo.",
"..Ooooooooooooooo.OOoXXoooooo......ooo.oooooooo.",
"..OoooooXXXXXXXXX.oooXXXXXooo...o......XXXooooo.",
"..................OOooooXXo.....o..ooo..........",
"..................OOooooXXo.....o..ooo..........",
"................................................"
};
