/* XPM */
static char *result[] = {
/* columns rows colors chars-per-pixel */
"80 80 16 1 ",
"  c black",
". c #140808",
"X c #361414",
"o c #652A2A",
"O c #424043",
"+ c #5A5B42",
"@ c #696A6A",
"# c #AC3232",
"$ c #8F563B",
"% c #954C64",
"& c #711395",
"* c #847E87",
"= c #9D6F9F",
"- c #FE11DC",
"; c #929DA4",
": c #CBDBFC",
/* pixels */
"--------------------------------------------------------------------------------",
"--------------------------------------------------------------------------------",
"--------------------------------------------------------------------------------",
"--------------------------------------------------------------------------------",
"--------------------------------------------------------------------------------",
"--------------------------------------------------------------------------------",
"--------------------------------------------------------------------------------",
"--------------------------------------------------------------------------------",
"--------------------------------------------------------------------------------",
"--------------------------------------------------------------------------------",
"--------------------------------------------------------------------------------",
"--------------------------------------------------------------------------------",
"--------------------------------------------------------------------------------",
"--------------------------------------------------------------------------------",
"--------------------------------------------------------------------------------",
"--------------------------------------------------------------------------------",
"--------------------------------------------------------------------------------",
"--------------------------------------------------------------------------------",
"--------------------------------------------------------------------------------",
"--------------------------------------------------------------------------------",
"--------------------------------------------------------------------------------",
"--------------------------------------------------------------------------------",
"--------------------------------------------------------------------------------",
"--------------------------------------------------------------------------------",
"--------------------------------------------------------------------------------",
"--------------------------------------------------------------------------------",
"-------------------------------------------------.$--..-$-----------------------",
"----------------------------------------------.---#---.-#-----------------------",
"----------------------------------------------...$.-.-#.$-----------------------",
"------------------------------------------..-.....#...$.#-----------------------",
"--------------------------------------------.#$...$...#..-----------------------",
"--------------------------------------------$..#..#...$..-----------------------",
"------------------------------------------.--..$..$..$#.------------------------",
"-----------------------------------------$#..$.#$.#$.#..------------------------",
"-------------------------------------------#.....$.oooo-------------------------",
"-------------------------------------------$#.....*;:::----------------&--------",
"---------------------------------------------$#..$oo;;;---------------&&--------",
"---------------------------------------------..$#.ooooo--------------&&---------",
"----------------------------------------------...oXoooX-------------&&----------",
"----------------------------------------XX****X.ooXXXX-------------&&-----------",
"--------------------------------------XXooX***XooX**--------------&&------------",
"-------------------------------------Xoooo%*;**XoX***------------&&-------------",
"-------------------------------------Xoooo%;;;**X*;*%X----------&&--------------",
"------------------------------------Xooooo%;;;;;;;;;%oX--------&&---------------",
"-----------------------------------XoooooX@;;;;;;;;;ooX-------&&----------------",
"-----------------------------------XoooXo%@:;;;;*;;:o%X------&&-----------------",
"-----------------------------------Xooo%X@@=::::@;:oo%X-----&&------------------",
"-----------------------------------Xooo%X@@*====@**oo%X----&&-------------------",
"-----------------------------------Xooo%X@@@@@@@:@@oo%X---&&--------------------",
"-----------------------------------Xooo%X@;;;;::@;:oo%X--&&---------------------",
"------------------------------------Xoo%@@;;@@@@@@@ooX--&&----------------------",
"------------------------------------oo%X@@;@***:@*oo%X-&&-----------------------",
"------------------------------------oo%X@;@;:*:@*:ooX-&&------------------------",
"------------------------------------ooo%@;@@@@@@@oo%X&&-------------------------",
"------------------------------------oXX%@;****:@oo%X&&--------------------------",
"------------------------------------oooX@@*:@:@@ooX&&---------------------------",
"-------------------------------------oo%X@@@@@@oo@&&----------------------------",
"--------------------------------------ooX@****oo@&&-----------------------------",
"-------------------------------------  o%XOOO  @::------------------------------",
"----------------------------------   OOooX O  @::@------------------------------",
"---------------------------------  OOOO o%X  @:@++  ----------------------------",
"-------------------------------        OOo%X@:@  +++   -------------------------",
"------------------------------  +++++++  ooX@@OO   ++++ ------------------------",
"-----------------------------  +++   + OOoooX   OO     +  ----------------------",
"---------------------------- +++   ++    --X-    O   O   + ---------------------",
"--------------------------- +   +++     --------   O  OOOOO---------------------",
"--------------------------  ++++      ------------     ooo----------------------",
"---------------------------oooo      ------------------Xoo----------------------",
"---------------------------XXoo-    -------------------Xoo----------------------",
"---------------------------oooX-- ---------------------Xoo----------------------",
"--------------------------oooXX------------------------Xoo----------------------",
"--------------------------oooX-------------------------oXXo---------------------",
"--------------------------ooX-------------------------oooooo--------------------",
"-------------------------oooX-------------------------XXXXoooo------------------",
"-------------------------oooo-----------------------------XXXXo-----------------",
"-------------------------ooX----------------------------------------------------",
"------------------------ooXo----------------------------------------------------",
"-----------------------oooooo---------------------------------------------------",
"---------------------oooooXXX---------------------------------------------------",
"---------------------oXXXX------------------------------------------------------"
};
