/* XPM */
static char *result[] = {
/* columns rows colors chars-per-pixel */
"80 80 8 1 ",
"  c black",
". c #361414",
"X c #652A2A",
"o c #424043",
"O c #711395",
"+ c #FE11DC",
"@ c #929DA4",
"# c #F389F5",
/* pixels */
"++++++++++++++++++++++++++++++++++++++++++++++++++++++++++++++++++++++++++++++++",
"++++++++++++++++++++++++++++++++++++++++++++++++++++++++++++++++++++++++++++++++",
"++++++++++++++++++++++++++++++++++++++++++++++++++++++++++++++++++++++++++++++++",
"++++++++++++++++++++++++++++++++++++++++++++++++++++++++++++++++++++++++++++++++",
"++++++++++++++++++++++++++++++++++++++++++++++++++++++++++++++++++++++++++++++++",
"++++++++++++++++++++++++++++++++++++++++++++++++++++++++++++++++++++++++++++++++",
"++++++++++++++++++++++++++++++++++++++++++++++++++++++++++++++++++++++++++++++++",
"++++++++++++++++++++++++++++++++++++++++++++++++++++++++++++++++++++++++++++++++",
"++++++++++++++++++++++++++++++++++++++++++++++++++++++++++++++++++++++++++++++++",
"++++++++++++++++++++++++++++++++++++++++++++++++++++++++++++++++++++++++++++++++",
"++++++++++++++++++++++++++++++++++++++++++++++++++++++++++++++++++++++++++++++++",
"++++++++++++++++++++++++++++++++++++++++++++++++++++++++++++++++++++++++++++++++",
"++++++++++++++++++++++++++++++++++++++++++++++++++++++++++++++++++++++++++++++++",
"++++++++++++++++++++++++++++++++++++++++++++++++++++++++++++++++++++++++++++++++",
"++++++++++++++++++++++++++++++++++++++++++++++++++++++++++++++++++++++++++++++++",
"++++++++++++++++++++++++++++++++++++++++++++++++++++++++++++++++++++++++++++++++",
"++++++++++++++++++++++++++++++++++++++++++++++++++++++++++++++++++++++++++++++++",
"++++++++++++++++++++++++++++++++++++++++++++++++++++++++++++++++++++++++++++++++",
"++++++++++++++++++++++++++++++++++++++++++++++++++++++++++++++++++++++++++++++++",
"++++++++++++++++++++++++++++++++++++++++++++++++++++++++++++++++++++++++++++++++",
"++++++++++++++++++++++++++++++++++++++++++++++++++++++++++++++++++++++++++++++++",
"++++++++++++++++++++++++++++++++++++++++++++++++++++++++++++++++++++++++++++++++",
"++++++++++++++++++++++++++++++++++++++++++++++++++++++++++++++++++++++++++++++++",
"++++++++++++++++++++++++++++++++++++++++++++++++++++++++++++++++++++++++++++++++",
"++++++++++++++++++++++++++++++++++++++++++++++++++++++++++++++++++++++++++++++++",
"++++++++++++++++++++++++++++++++++++++++++++++++++++++++++++++++++++++++++++++++",
"++++++++++++++++++++++++++++++++++++++++++++++++++++++++++++++++++++++++++++++++",
"++++++++++++++++++++++++++++++++++++++++++++++++++++++++++++++++++++++++++++++++",
"++++++++++++++++++++++++++++++++++++++++++++++++++++++++++++++++++++++++++++++++",
"+++++++++++++++++++++++++++++++++++++++++++++ +  + +++++++++++++++++++++++++++++",
"+++++++++++++++++++++++++++++++++++++++++++    +    ++++++++++++++++++++++++++++",
"++++++++++++++++++++++++++++++++++++++++++++        ++++++++++++++++++++++++++++",
"++++++++++++++++++++++++++++++++++++++++++          ++++++++++++++++++++++++++++",
"+++++++++++++++++++++++++++++++++++++++++++         ++++++++++++++++++++++++++++",
"+++++++++++++++++++++++++++++++++++++++++++    X X  ++++++++++++++++++++++++++++",
"+++++++++++++++++++++++++++++++++++++++++++   XXXXX ++++++++++++++++++++++++++++",
"++++++++++++++++++++++++++++++++++++++++++++  XXXXXX++++++++++++++++++++++++++++",
"++++++++++++++++++++++++++++++++++++++++++++ XXXXXX+++++++++++++++++++++++++++++",
"+++++++++++++++++++++++++++++++++++++++++++++XXXXXX+++++++++++++++++++++++++++++",
"+++++++++++++++++++++++++++++++++++++++++...@@XXXXX+++++++++++++++++++++++++++++",
"++++++++++++++++++++++++++++++++++++++++..@@@@@XXX@@@XXX++++++++++++++++++++++++",
"+++++++++++++++++++++++++++++++++++++++..@@@@@@@@X@@XXXXXX++++++++++++++++++++++",
"+++++++++++++++++++++++++++++++++++++++..@@@@@@@@@@@XXXXXXX+++++++++++++++++++++",
"++++++++++++++++++++++++++++++++++++++...@@@@@@@@@@@XXXXXXXX++++++++++++++++++++",
"++++++++++++++++++++++++++++++++++++++...@@@@@@@@@@@@XXXXXXXX+++++++++++++++++++",
"+++++++++++++++++++++++++++++++++++++....@@@@@@@@@@@@XXXXXXXXX++++++++++++++++++",
"+++++++++++++++++++++++++++++++++++++.....@@@@@@@@@@@++++XXXXX++++++++++++++++++",
"++++++++++++++++++++++++++++++++++++......@@@@@@@@@@@+++++XXXX++++++++++++++++++",
"+++++++++++++++++++++++++++++++++++......+@@@@@@@@@@++++++XXXX++++++++++++++++++",
"+++++++++++++++++++++++++++++++++.......+++@@@@@@@@@++++++XXXX++++++++++++++++++",
"+++++++++++++++++++++++++++++++.........+++@@@@@@@@@++++++XXXX++++++++++++++++++",
"++++++++++++++++++++++++++++OOO......+++++@@@@@@@@@+++++++XXXX++++++++++++++++++",
"++++++++++++++++++++++++OOOO####...+++++++@@@@@@@@@++++++XXXX+++++++++++++++++++",
"++++++++++++++++++++OOOO####OOO+++++++++++@@@@@@@@@+++++XXXX++++++++++++++++++++",
"+++++++++++++++OOOO#####OOOO++++++++++++++@@@@@@@@@++++++XXX++++++++++++++++++++",
"+++++++++++OOOO####OOOOO++++++++++++++++++@@   oooo++++++X++++++++++++++++++++++",
"++++++OOOO#####OOOO++++++++++++++++++++++      ooooo++++++++++++++++++++++++++++",
"+++OOO####OOOOO+++++++++++++++++++++++++      ooooooo+++++++++++++++++++++++++++",
"++O###OOOO++++++++++++++++++++++++++++        oooooooo++++++++++++++++++++++++++",
"+++OOO+++++++++++++++++++++++++++++++         ooooooooo+++++++++++++++++++++++++",
"++++++++++++++++++++++++++++++++++++         ooooooooooo++++++++++++++++++++++++",
"++++++++++++++++++++++++++++++++++            ooooooooooo+++++++++++++++++++++++",
"+++++++++++++++++++++++++++++++++            ++ooooooooooo++++++++++++++++++++++",
"++++++++++++++++++++++++++++++++            +++oooooooooooo+++++++++++++++++++++",
"++++++++++++++++++++++++++++++++            +++ooooooooooooo++++++++++++++++++++",
"++++++++++++++++++++++++++++++++++..      ++++++ooooooooooooo+++++++++++++++++++",
"+++++++++++++++++++++++++++++++++......   +++++++ooooooooXooo+++++++++++++++++++",
"+++++++++++++++++++++++++++++++++......  +++++++++oooooXXXXXo+++++++++++++++++++",
"+++++++++++++++++++++++++++++++++......++++++++++++oooXXXXXX++++++++++++++++++++",
"+++++++++++++++++++++++++++++++++.....+++++++++++++oooXXXXXX++++++++++++++++++++",
"+++++++++++++++++++++++++++++++++.....+++++++++++++++++XXXXX++++++++++++++++++++",
"+++++++++++++++++++++++++++++++++....+++++++++++++++++++XXXX++++++++++++++++++++",
"+++++++++++++++++++++++++++++++++....+++++++++++++++++++XXXXX+++++++++++++++++++",
"+++++++++++++++++++++++++++++++++...+++++++++++++++++++++XXXX+++++++++++++++++++",
"+++++++++++++++++++++++++++++++++...+++++++++++++++++++++XXXX+++++++++++++++++++",
"++++++++++++++++++++++++++++++++....++++++++++++++++++++++XXXX++++++++++++++++++",
"++++++++++++++++++++++++++++++++...++++++++++++++++++++++++XXX++++++++++++++++++",
"+++++++++++++++++++++++++++++++....++++++++++++++++++++++++XXXX+++++++++++++++++",
"++++++++++++++++++++++++++++++.....++++++++++++++++++++++++XXXXX++++++++++++++++",
"++++++++++++++++++++++++++++......+++++++++++++++++++++++++XXXXXX+++++++++++++++"
};
