/* XPM */
static char *result[] = {
/* columns rows colors chars-per-pixel */
"80 80 8 1 ",
"  c black",
". c #361414",
"X c #652A2A",
"o c #424043",
"O c #711395",
"+ c #FE11DC",
"@ c #929DA4",
"# c #F389F5",
/* pixels */
"++++++++++++++++++++++++++++++++++++++++++++++++++++++++++++++++++++++++++++++++",
"++++++++++++++++++++++++++++++++++++++++++++++++++++++++++++++++++++++++++++++++",
"++++++++++++++++++++++++++++++++++++++++++++++++++++++++++++++++++++++++++++++++",
"++++++++++++++++++++++++++++++++++++++++++++++++++++++++++++++++++++++++++++++++",
"++++++++++++++++++++++++++++++++++++++++++++++++++++++++++++++++++++++++++++++++",
"++++++++++++++++++++++++++++++++++++++++++++++++++++++++++++++++++++++++++++++++",
"++++++++++++++++++++++++++++++++++++++++++++++++++++++++++++++++++++++++++++++++",
"++++++++++++++++++++++++++++++++++++++++++++++++++++++++++++++++++++++++++++++++",
"++++++++++++++++++++++++++++++++++++++++++++++++++++++++++++++++++++++++++++++++",
"++++++++++++++++++++++++++++++++++++++++++++++++++++++++++++++++++++++++++++++++",
"++++++++++++++++++++++++++++++++++++++++++++++++++++++++++++++++++++++++++++++++",
"++++++++++++++++++++++++++++++++++++++++++++++++++++++++++++++++++++++++++++++++",
"++++++++++++++++++++++++++++++++++++++++++++++++++++++++++++++++++++++++++++++++",
"++++++++++++++++++++++++++++++++++++++++++++++++++++++++++++++++++++++++++++++++",
"++++++++++++++++++++++++++++++++++++++++++++++++++++++++++++++++++++++++++++++++",
"++++++++++++++++++++++++++++++++++++++++++++++++++++++++++++++++++++++++++++++++",
"++++++++++++++++++++++++++++++++++++++++++++++++++++++++++++++++++++++++++++++++",
"++++++++++++++++++++++++++++++++++++++++++++++++++++++++++++++++++++++++++++++++",
"++++++++++++++++++++++++++++++++++++++++++++++++++++++++++++++++++++++++++++++++",
"++++++++++++++++++++++++++++++++++++++++++++++++++++++++++++++++++++++++++++++++",
"++++++++++++++++++++++++++++++++++++++++++++++++++++++++++++++++++++++++++++++++",
"++++++++++++++++++++++++++++++++++++++++++++++++++++++++++++++++++++++++++++++++",
"++++++++++++++++++++++++++++++++++++++++++++++++++++++++++++++++++++++++++++++++",
"++++++++++++++++++++++++++++++++++++++++++++++++++++++++++++++++++++++++++++++++",
"++++++++++++++++++++++++++++++++++++++++++++++++++++++++++++++++++++++++++++++++",
"++++++++++++++++++++++++++++++++++++++++++++++++++++++++++++++++++++++++++++++++",
"++++++++++++++++++++++++++++++++++++++++++++++++++++++++++++++++++++++++++++++++",
"++++++++++++++++++++++++++++++++++++++++++++++++++++++++++++++++++++++++++++++++",
"++++++++++++++++++++++++++++++++++++++++++++++++++++++++++++++++++++++++++++++++",
"++++++++++++++++++++++++++++++++++++++++++++++++++++++++++++++++++++++++++++++++",
"+++++++++++++++++++++++++++++++++++++++++++++ +  + +++++++++++++++++++++++++++++",
"+++++++++++++++++++++++++++++++++++++++++++    +    ++++++++++++++++++++++++++++",
"++++++++++++++++++++++++++++++++++++++++++++        ++++++++++++++++++++++++++++",
"++++++++++++++++++++++++++++++++++++++++++          ++++++++++++++++++++++++++++",
"+++++++++++++++++++++++++++++++++++++++++++         ++++++++++++++++++++++++++++",
"+++++++++++++++++++++++++++++++++++++++++++    X X  ++++++++++++++++++++++++++++",
"+++++++++++++++++++++++++++++++++++++++++++   XXXXX ++++++++++++++++++++++++++++",
"++++++++++++++++++++++++++++++++++++++++++++  XXXXXX++++++++++++++++++++++++++++",
"++++++++++++++++++++++++++++++++++++++++++++ XXXXXX+++++++++++++++++++++++++++++",
"+++++++++++++++++++++++++++++++++++++++++...+XXXXXX+++++++++++++++++++++++++++++",
"++++++++++++++++++++++++++++++++++++++++...@@@XXXXX@@XXX++++++++++++++++++++++++",
"+++++++++++++++++++++++++++++++++++++++...@@@@@XXX@@XXXXX+++++++++++++++++++++++",
"+++++++++++++++++++++++++++++++++++++++...@@@@@@@X@@XXXXXX++++++++++++++++++++++",
"++++++++++++++++++++++++++++++++++++++...@@@@@@@@@@@XXXXXXX+++++++++++++++++++++",
"++++++++++++++++++++++++++++++++++++++...@@@@@@@@@@@@XXXXXX+++++++++++++++++++++",
"++++++++++++++++++++++++++++++++++++++...@@@@@@@@@@@@XXXXXX+++++++++++++++++++++",
"+++++++++++++++++++++++++++++++++++++.....@@@@@@@@@@@++XXXXX++++++++++++++++++++",
"+++++++++++++++++++++++++++++++++++++.....@@@@@@@@@@@+++XXXXX+++++++++++++++++++",
"++++++++++++++++++++++++++++++++++++.....+@@@@@@@@@@+++++XXXX+++++++++++++++++++",
"+++++++++++++++++++++++++++++++++++.....+++@@@@@@@@@+++++XXXX+++++++++++++++++++",
"+++++++++++++++++++++++++++++++++++....++++@@@@@@@@@+++++XXXX+++++++++++++++++++",
"+++++++++++++++++++++++++++++++++.....++++@@@@@@@@@++++++XXXX+++++++++++++++++++",
"++++++++++++++++++++++++++++++OO......++++@@@@@@@@@++++++XXXX+++++++++++++++++++",
"+++++++++++++++++++++++++++OOO##.....+++++@@@@@@@@@++++++XXXX+++++++++++++++++++",
"+++++++++++++++++++++++++OO###OO+...++++++@@@@@@@@@++++++XXX++++++++++++++++++++",
"++++++++++++++++++++++OOO##OOO++++++++++++@@   oooo+++++XXXX++++++++++++++++++++",
"+++++++++++++++++++OOO###OO++++++++++++++      ooooo+++++XXX++++++++++++++++++++",
"++++++++++++++++OOO###OOO+++++++++++++++      ooooooo++++X++++++++++++++++++++++",
"+++++++++++++OOO###OOO++++++++++++++++        oooooooo++++++++++++++++++++++++++",
"+++++++++++OO###OOO++++++++++++++++++         ooooooooo+++++++++++++++++++++++++",
"++++++++OOO##OOO++++++++++++++++++++         ooooooooooo++++++++++++++++++++++++",
"+++++OOO###OO+++++++++++++++++++++            ooooooooooo+++++++++++++++++++++++",
"+++OO###OOO++++++++++++++++++++++            ++ooooooooooo++++++++++++++++++++++",
"++O##OOO++++++++++++++++++++++++            +++oooooooooooo+++++++++++++++++++++",
"+++OO+++++++++++++++++++++++++++            +++ooooooooooooo++++++++++++++++++++",
"++++++++++++++++++++++++++++++++++..      ++++++ooooooooooooo+++++++++++++++++++",
"+++++++++++++++++++++++++++++++++......   +++++++ooooooooXooo+++++++++++++++++++",
"+++++++++++++++++++++++++++++++++......  +++++++++oooooXXXXXo+++++++++++++++++++",
"+++++++++++++++++++++++++++++++++......++++++++++++oooXXXXXX++++++++++++++++++++",
"+++++++++++++++++++++++++++++++++.....+++++++++++++oooXXXXXX++++++++++++++++++++",
"+++++++++++++++++++++++++++++++++.....+++++++++++++++++XXXXX++++++++++++++++++++",
"+++++++++++++++++++++++++++++++++....+++++++++++++++++++XXXX++++++++++++++++++++",
"+++++++++++++++++++++++++++++++++....+++++++++++++++++++XXXXX+++++++++++++++++++",
"+++++++++++++++++++++++++++++++++...+++++++++++++++++++++XXXX+++++++++++++++++++",
"+++++++++++++++++++++++++++++++++...+++++++++++++++++++++XXXX+++++++++++++++++++",
"++++++++++++++++++++++++++++++++....++++++++++++++++++++++XXXX++++++++++++++++++",
"++++++++++++++++++++++++++++++++...++++++++++++++++++++++++XXX++++++++++++++++++",
"+++++++++++++++++++++++++++++++....++++++++++++++++++++++++XXXX+++++++++++++++++",
"++++++++++++++++++++++++++++++.....++++++++++++++++++++++++XXXXX++++++++++++++++",
"++++++++++++++++++++++++++++......+++++++++++++++++++++++++XXXXXX+++++++++++++++"
};
