/* XPM */
static char *result[] = {
/* columns rows colors chars-per-pixel */
"80 80 8 1 ",
"  c black",
". c #361414",
"X c #652A2A",
"o c #424043",
"O c #711395",
"+ c #FE11DC",
"@ c #929DA4",
"# c #F389F5",
/* pixels */
"++++++++++++++++++++++++++++++++++++++++++++++++++++++++++++++++++++++++++++++++",
"++++++++++++++++++++++++++++++++++++++++++++++++++++++++++++++++++++++++++++++++",
"++++++++++++++++++++++++++++++++++++++++++++++++++++++++++++++++++++++++++++++++",
"++++++++++++++++++++++++++++++++++++++++++++++++++++++++++++++++++++++++++++++++",
"++++++++++++++++++++++++++++++++++++++++++++++++++++++++++++++++++++++++++++++++",
"++++++++++++++++++++++++++++++++++++++++++++++++++++++++++++++++++++++++++++++++",
"++++++++++++++++++++++++++++++++++++++++++++++++++++++++++++++++++++++++++++++++",
"++++++++++++++++++++++++++++++++++++++++++++++++++++++++++++++++++++++++++++++++",
"++++++++++++++++++++++++++++++++++++++++++++++++++++++++++++++++++++++++++++++++",
"++++++++++++++++++++++++++++++++++++++++++++++++++++++++++++++++++++++++++++++++",
"++++++++++++++++++++++++++++++++++++++++++++++++++++++++++++++++++++++++++++++++",
"++++++++++++++++++++++++++++++++++++++++++++++++++++++++++++++++++++++++++++++++",
"++++++++++++++++++++++++++++++++++++++++++++++++++++++ ++ ++++++++++++++++++++++",
"++++++++++++++++++++++++++++++++++++++++++++++++++++ +  +  + +++++++++++++++++++",
"+++++++++++++++++++++++++++++++++++++++++++XXXXXX++           ++++++++++++++++++",
"+++++++++++++++++++++++++++++++++++++++XXXXXXXXXXX           +++++++++++++++++++",
"++++++++++++++++++++++++++++++++++++++XXXXXXXXXXXX           +++++++++++++++++++",
"++++++++++++++++++++++++++++++++++++XXXXXXXXXXXXXX           @...+++++++++++++++",
"++++++++++++++++++++++++++++++++++++XXXXXXXXXXXXXX@   XXXXX @.....++++++++++++++",
"+++++++++++++++++++++++++++++++++++XXXXXX+++XXXXXX@@ XXXXXXX@.......++++++++++++",
"++++++++++++++++++++++++++++++++++XXXXXX+++++++XX@@@ XXXXXXX@........+++++++++++",
"++++++++++++++++++++++++++++++++++XXXX+++++++++@@@@@@XXXXXX@@.+++.....++++++++++",
"+++++++++++++++++++++++++++++++++XXXX++++++++++@@@@@@@XXXXX@@+++++....++++++++++",
"++++++++++++++++++++++++++++++++XXXX+++++++++++@@@@@@@@XXX@@@+++++++...+++++++++",
"++++++++++++++++++++++++++++++OXXXX++++++++++++@@@@@@@@@@@@@+++++++++...++++++++",
"++++++++++++++++++++++++++++++OXX++++++++++++++@@@@@@@@@@@@+++++++++++...+++++++",
"+++++++++++++++++++++++++++++O#OX++++++++++++++@@@@@@@@@@@+++++++++++.....++++++",
"+++++++++++++++++++++++++++++O#O+++++++++++++++@@@@@@@@@@@+++++++++++++.+.++++++",
"++++++++++++++++++++++++++++O#O++++++++++++++++@@@@@@@@@@+++++++++++++++++++++++",
"++++++++++++++++++++++++++++O#+++++++++++++++++@@@@@@@@@++++++++++++++++++++++++",
"+++++++++++++++++++++++++++O#O+++++++++++++++++ooo@@@@@@++++++++++++++++++++++++",
"+++++++++++++++++++++++++++O#O++++++++++++++++ooooo@@   ++++++++++++++++++++++++",
"++++++++++++++++++++++++++O#OO+++++++++++++++ooooooo@    +++++++++++++++++++++++",
"++++++++++++++++++++++++++O#O++++++++++++++++oooooooo    +++++++++++++++++++++++",
"+++++++++++++++++++++++++O#O++++++++++++++++ooooooooo     ++++++++++++++++++++++",
"+++++++++++++++++++++++++O#O++++++++++++++++ooooooooo      +++++++++++++++++++++",
"++++++++++++++++++++++++O#O++++++++++++++++ooooooooo        ++++++++++++++++++++",
"++++++++++++++++++++++++O#O++++++++++++++++oXooooooo        ++++++++++++++++++++",
"+++++++++++++++++++++++O#O++++++++++++++++++XXXooooo        ++++++++++++++++++++",
"+++++++++++++++++++++++O#O++++++++++++++++++XXXXoooo  ....+ ++++++++++++++++++++",
"++++++++++++++++++++++O#O+++++++++++++++++++XXXXXooo .....++++++++++++++++++++++",
"+++++++++++++++++++++O##O+++++++++++++++++++XXXXX+o++.....++++++++++++++++++++++",
"+++++++++++++++++++++O#O++++++++++++++++++++XXXXX++++.....++++++++++++++++++++++",
"++++++++++++++++++++O#O+++++++++++++++++++++XXXXX++++.....++++++++++++++++++++++",
"++++++++++++++++++++O#O+++++++++++++++++++++XXXXX+++++....++++++++++++++++++++++",
"+++++++++++++++++++O#O+++++++++++++++++++++XXXXX++++++....++++++++++++++++++++++",
"+++++++++++++++++++O#O+++++++++++++++++++++XXXXX++++++....++++++++++++++++++++++",
"++++++++++++++++++O#O++++++++++++++++++++++XXXX++++++++...++++++++++++++++++++++",
"++++++++++++++++++O#O++++++++++++++++++++++XXXX++++++++...++++++++++++++++++++++",
"+++++++++++++++++O#O++++++++++++++++++++++++XXXX+++++++..+++++++++++++++++++++++",
"+++++++++++++++++O#O++++++++++++++++++++++++XXXX++++++...+++++++++++++++++++++++",
"++++++++++++++++O#O++++++++++++++++++++++++++XXX++++++...+++++++++++++++++++++++",
"++++++++++++++++O#O++++++++++++++++++++++++++XXX++++++..++++++++++++++++++++++++",
"+++++++++++++++O#O++++++++++++++++++++++++++++XX++++++..++++++++++++++++++++++++",
"+++++++++++++++O#O++++++++++++++++++++++++++++XX++++++..++++++++++++++++++++++++",
"++++++++++++++++O+++++++++++++++++++++++++++++XXX+++++..++++++++++++++++++++++++",
"+++++++++++++++++++++++++++++++++++++++++++++++XX++++..+++++++++++++++++++++++++",
"+++++++++++++++++++++++++++++++++++++++++++++++XX++++..+++++++++++++++++++++++++",
"+++++++++++++++++++++++++++++++++++++++++++++++XX++++..+++++++++++++++++++++++++",
"+++++++++++++++++++++++++++++++++++++++++++++++X+++++..+++++++++++++++++++++++++",
"++++++++++++++++++++++++++++++++++++++++++++++++++++++.+++++++++++++++++++++++++",
"++++++++++++++++++++++++++++++++++++++++++++++++++++++++++++++++++++++++++++++++",
"++++++++++++++++++++++++++++++++++++++++++++++++++++++++++++++++++++++++++++++++",
"++++++++++++++++++++++++++++++++++++++++++++++++++++++++++++++++++++++++++++++++",
"++++++++++++++++++++++++++++++++++++++++++++++++++++++++++++++++++++++++++++++++",
"++++++++++++++++++++++++++++++++++++++++++++++++++++++++++++++++++++++++++++++++",
"++++++++++++++++++++++++++++++++++++++++++++++++++++++++++++++++++++++++++++++++",
"++++++++++++++++++++++++++++++++++++++++++++++++++++++++++++++++++++++++++++++++",
"++++++++++++++++++++++++++++++++++++++++++++++++++++++++++++++++++++++++++++++++",
"++++++++++++++++++++++++++++++++++++++++++++++++++++++++++++++++++++++++++++++++",
"++++++++++++++++++++++++++++++++++++++++++++++++++++++++++++++++++++++++++++++++",
"++++++++++++++++++++++++++++++++++++++++++++++++++++++++++++++++++++++++++++++++",
"++++++++++++++++++++++++++++++++++++++++++++++++++++++++++++++++++++++++++++++++",
"++++++++++++++++++++++++++++++++++++++++++++++++++++++++++++++++++++++++++++++++",
"++++++++++++++++++++++++++++++++++++++++++++++++++++++++++++++++++++++++++++++++",
"++++++++++++++++++++++++++++++++++++++++++++++++++++++++++++++++++++++++++++++++",
"++++++++++++++++++++++++++++++++++++++++++++++++++++++++++++++++++++++++++++++++",
"++++++++++++++++++++++++++++++++++++++++++++++++++++++++++++++++++++++++++++++++",
"++++++++++++++++++++++++++++++++++++++++++++++++++++++++++++++++++++++++++++++++",
"++++++++++++++++++++++++++++++++++++++++++++++++++++++++++++++++++++++++++++++++"
};
