/* XPM */
static char *result[] = {
/* columns rows colors chars-per-pixel */
"80 80 8 1 ",
"  c black",
". c #361414",
"X c #652A2A",
"o c #424043",
"O c #711395",
"+ c #FE11DC",
"@ c #929DA4",
"# c #F389F5",
/* pixels */
"++++++++++++++++++++++++++++++++++++++++++++++++++++++++++++++++++++++++++++++++",
"++++++++++++++++++++++++++++++++++++++++++++++++++++++++++++++++++++++++++++++++",
"++++++++++++++++++++++++++++++++++++++++++++++++++++++++++++++++++++++++++++++++",
"++++++++++++++++++++++++++++++++++++++++++++++++++++++++++++++++++++++++++++++++",
"++++++++++++++++++++++++++++++++++++++++++++++++++++++++++++++++++++++++++++++++",
"++++++++++++++++++++++++++++++++++++++++++++++++++++++++++++++++++++++++++++++++",
"++++++++++++++++++++++++++++++++++++++++++++++++++++++++++++++++++++++++++++++++",
"++++++++++++++++++++++++++++++++++++++++++++++++++++++++++++++++++++++++++++++++",
"++++++++++++++++++++++++++++++++++++++++++++++++++++++++++++++++++++++++++++++++",
"++++++++++++++++++++++++++++++++++++++++++++++++++++++++++++++++++++++++++++++++",
"++++++++++++++++++++++++++++++++++++++++++++++++++++++++++++++++++++++++++++++++",
"++++++++++++++++++++++++++++++++++++++++++++++++++++++++++++++++++++++++++++++++",
"++++++++++++++++++++++++++++++++++++++++++++++++++++++++++++++++++++++++++++++++",
"++++++++++++++++++++++++++++++++++++++++++++++++++++++++++++++++++++++++++++++++",
"++++++++++++++++++++++++++++++++++++++++++++++++++++++++++++++++++++++++++++++++",
"++++++++++++++++++++++++++++++++++++++++++++++++++++++++++++++++++++++++++++++++",
"++++++++++++++++++++++++++++++++++++++++++++++++++++++++++++++++++++++++++++++++",
"++++++++++++++++++++++++++++++++++++++++++++++++++++++++++++++++++++++++++++++++",
"++++++++++++++++++++++++++++++++++++++++++++++++++++++++++++++++++++++++++++++++",
"++++++++++++++++++++++++++++++++++++++++++++++++++++++++++++++++++++++++++++++++",
"++++++++++++++++++++++++++++++++++++++++++++++++++++++++++++++++++++++++++++++++",
"++++++++++++++++++++++++++++++++++++++++++++++++++++++++++++++++++++++++++++++++",
"++++++++++++++++++++++++++++++++++++++++++++++++++++++++++++++++++++++++++++++++",
"++++++++++++++++++++++++++++++++++++++++++++++++++++++++++++++++++++++++++++++++",
"++++++++++++++++++++++++++++++++++++++++++++++++++++++++++++++++++++++++++++++++",
"++++++++++++++++++++++++++++++++++++++++++++++++++++++++++++++++++++++++++++++++",
"++++++++++++++++++++++++++++++++++++++++++++++++++++++++++++++++++++++++++++++++",
"++++++++++++++++++++++++++++++++++++++++++++++++++++++++++++++++++++++++++++++++",
"++++++++++++++++++++++++++++++++++++++++++++++++++++++++++++++++++++++++++++++++",
"+++++++++++++++++++++++++++++++++++++++++++++ +  + +++++++++++++++++++++++++++++",
"+++++++++++++++++++++++++++++++++++++++++++    +    ++++++++++++++++++++++++++++",
"++++++++++++++++++++++++++++++++++++++++++++        ++++++++++++++++++++++++++++",
"++++++++++++++++++++++++++++++++++++++++++          ++++++++++++++++++++++++++++",
"+++++++++++++++++++++++++++++++++++++++++++         ++++++++++++++++++++++++++++",
"+++++++++++++++++++++++++++++++++++++++++++    X X  ++++++++++++++++++++++++++++",
"+++++++++++++++++++++++++++++++++++++++++++   XXXXX ++++++++++++++++++++++++++++",
"++++++++++++++++++++++++++++++++++++++++++++  XXXXXX++++++++++++++++++++++++++++",
"++++++++++++++++++++++++++++++++++++++++++++ XXXXXX+++++++++++++++++++++++++++++",
"+++++++++++++++++++++++++++++++++++++++++++++XXXXXX+++++++++++++++++++++++++++++",
"+++++++++++++++++++++++++++++++++++++++++...@@XXXXX+++++++++++++++++++++++++++++",
"++++++++++++++++++++++++++++++++++++++++..@@@@@XXX@@@XXX++++++++++++++++++++++++",
"+++++++++++++++++++++++++++++++++++++++..@@@@@@@@X@@XXXXX+++++++++++++++++++++++",
"+++++++++++++++++++++++++++++++++++++++..@@@@@@@@@@@XXXXXX++++++++++++++++++++++",
"++++++++++++++++++++++++++++++++++++++...@@@@@@@@@@@XXXXXXX+++++++++++++++++++++",
"++++++++++++++++++++++++++++++++++++++...@@@@@@@@@@@@XXXXXX+++++++++++++++++++++",
"+++++++++++++++++++++++++++++++++++++....@@@@@@@@@@@@XXXXXX+++++++++++++++++++++",
"+++++++++++++++++++++++++++++++++++++.....@@@@@@@@@@@++XXXXX++++++++++++++++++++",
"++++++++++++++++++++++++++++++++++++......@@@@@@@@@@@+++XXXXX+++++++++++++++++++",
"+++++++++++++++++++++++++++++++++++......+@@@@@@@@@@+++++XXXX+++++++++++++++++++",
"+++++++++++++++++++++++++++++++++++.....+++@@@@@@@@@+++++XXXX+++++++++++++++++++",
"+++++++++++++++++++++++++++++++++......++++@@@@@@@@@+++++XXXX+++++++++++++++++++",
"++++++++++++++++++++++++++++++OO......++++@@@@@@@@@++++++XXXX+++++++++++++++++++",
"+++++++++++++++++++++++++++OOO##.....+++++@@@@@@@@@++++++XXXX+++++++++++++++++++",
"+++++++++++++++++++++++++OO###OO+...++++++@@@@@@@@@+++++XXXX++++++++++++++++++++",
"++++++++++++++++++++++OOO##OOO++++++++++++@@@@@@@@@++++XXXX+++++++++++++++++++++",
"+++++++++++++++++++OOO###OO+++++++++++++++@@   oooo+++++XXX+++++++++++++++++++++",
"+++++++++++++OOO###OOO+++++++++++++++++++      ooooo++++X+++++++++++++++++++++++",
"+++++++++++OO###OOO+++++++++++++++++++++      ooooooo+++++++++++++++++++++++++++",
"++++++++OOO##OOO++++++++++++++++++++++        oooooooo++++++++++++++++++++++++++",
"+++++OOO###OO++++++++++++++++++++++++         ooooooooo+++++++++++++++++++++++++",
"+++OO###OOO+++++++++++++++++++++++++         ooooooooooo++++++++++++++++++++++++",
"++O##OOO++++++++++++++++++++++++++            ooooooooooo+++++++++++++++++++++++",
"+++OO++++++++++++++++++++++++++++            ++ooooooooooo++++++++++++++++++++++",
"++++++++++++++++++++++++++++++++            +++oooooooooooo+++++++++++++++++++++",
"++++++++++++++++++++++++++++++++            +++ooooooooooooo++++++++++++++++++++",
"++++++++++++++++++++++++++++++++++..      ++++++ooooooooooooo+++++++++++++++++++",
"+++++++++++++++++++++++++++++++++......   +++++++ooooooooXooo+++++++++++++++++++",
"+++++++++++++++++++++++++++++++++......  +++++++++oooooXXXXXo+++++++++++++++++++",
"+++++++++++++++++++++++++++++++++......++++++++++++oooXXXXXX++++++++++++++++++++",
"+++++++++++++++++++++++++++++++++.....+++++++++++++oooXXXXXX++++++++++++++++++++",
"+++++++++++++++++++++++++++++++++.....+++++++++++++++++XXXXX++++++++++++++++++++",
"+++++++++++++++++++++++++++++++++....+++++++++++++++++++XXXX++++++++++++++++++++",
"+++++++++++++++++++++++++++++++++....+++++++++++++++++++XXXXX+++++++++++++++++++",
"+++++++++++++++++++++++++++++++++...+++++++++++++++++++++XXXX+++++++++++++++++++",
"+++++++++++++++++++++++++++++++++...+++++++++++++++++++++XXXX+++++++++++++++++++",
"++++++++++++++++++++++++++++++++....++++++++++++++++++++++XXXX++++++++++++++++++",
"++++++++++++++++++++++++++++++++...++++++++++++++++++++++++XXX++++++++++++++++++",
"+++++++++++++++++++++++++++++++....++++++++++++++++++++++++XXXX+++++++++++++++++",
"++++++++++++++++++++++++++++++.....++++++++++++++++++++++++XXXXX++++++++++++++++",
"++++++++++++++++++++++++++++......+++++++++++++++++++++++++XXXXXX+++++++++++++++"
};
