/* XPM */
static char *result[] = {
/* columns rows colors chars-per-pixel */
"48 48 15 1 ",
"  c black",
". c #1B1111",
"X c #391B1B",
"o c #652E2E",
"O c #774A30",
"+ c #444245",
"@ c #5A5B44",
"# c #696A6A",
"$ c #AA3635",
"% c #8E573D",
"& c #701B94",
"* c #837D86",
"= c #FE11DC",
"- c #919CA3",
"; c #CADAFC",
/* pixels */
"===========================.%==.=%==============",
"========================.===$====$==============",
"========================...%.=.=.%==============",
"====================..=.....$....$==============",
"======================.$%...%.....==============",
"======================%..$..$.....==============",
"====================.==..%..%..%.===============",
"===================%$..%.$%.$%.$.===============",
"=====================%$.....*-;;================",
"=======================%$..%oo--===============&",
"=======================..%$.oooo==============&&",
"========================...oXooo=============&&=",
"==================ooo***X.ooXXXX============&&==",
"================ooooO***XooX**=============&&===",
"================ooooO*-**XoX**o===========&&====",
"================ooooO---**X*-*Oo=========&&=====",
"===============ooooX#---------oo=======&&=======",
"===============oXXXO#;----*--;oo======&&========",
"==============XooOX##*;;;;#-;ooo=====&&=========",
"==============XooOX##*****#**ooo====&&==========",
"==============XooOX#######;##ooo===&&===========",
"==============XXoOX#----;;#-;ooo==&&============",
"===============ooO##--#######ooX=&&=============",
"===============oOX##-#***;#*oooo&&==============",
"===============ooO#-#######oooo&================",
"===============oXO#-****;#oooo&&================",
"===============ooX##*;#;##ooo&&=================",
"================oOX######oo#&&==================",
"================ooX#****oo#&&===================",
"================ oOX+++  #;;====================",
"=============   +ooX +  #;;#====================",
"============  +++ oOX  #;#@@  ==================",
"=========  @@@@@@  ooX##++   @@@ ===============",
"========  @@@    ++oooX   ++    @  =============",
"======= @@@   @@   ==X=    +   +  @ ============",
"====== @   @@@    ========   +  ++++============",
"=====  @@@@     ============    ooo=============",
"======oooo      ================Xoo=============",
"======XXoo=    =================Xoo=============",
"======oooX== ===================Xoo=============",
"=====oooX=======================oXXo============",
"=====ooX========================ooooo===========",
"====oooX========================XXXoooo=========",
"====oooo===========================XXXXo========",
"====ooX=========================================",
"===ooXo=========================================",
"==oooooo========================================",
"oooooXXX========================================"
};
