/* XPM */
static char *e0240e21b8dc4c808054f20a23455631dUiRdEfP0GU7hlh8[] = {
/* columns rows colors chars-per-pixel */
"51 54 16 1 ",
"  c None",
". c black",
"X c #140808",
"o c #361414",
"O c #652A2A",
"+ c #78482C",
"@ c #424043",
"# c #5A5B42",
"$ c #696A6A",
"% c #AC3232",
"& c #8F563B",
"* c #711395",
"= c #847E87",
"- c #FF00DD",
"; c #929DA4",
": c #CBDBFC",
/* pixels */
"----------------------------X&--XX-&---------------",
"-------------------------X---%---X-%---------------",
"-------------------------XXX&X-X-%X&---------------",
"---------------------XX-XXXXX%XXX&X%---------------",
"-----------------------X%&XXX&XXX%XX---------------",
"-----------------------&XX%XX%XXX&XX---------------",
"---------------------X--XX&XX&XX&%X----------------",
"--------------------&%XX&X%&X%&X%XX----------------",
"----------------------%XXXXX&XOOOO-----------------",
"----------------------&%XXXXX=;:::----------------*",
"------------------------&%XX&OO;;;---------------**",
"------------------------XX&%XOOOOO--------------**-",
"-------------------------XXXOoOOOo-------------**--",
"-------------------OOO===oXOOooooo------------**---",
"-----------------OOOO+===oOOo==--------------**----",
"----------------OOOOO+=;==oOo==O------------**-----",
"----------------OOOOO+;;;==o=;=+O----------**------",
"---------------OOOOOO+;;;;;;;;;+OO--------**-------",
"---------------OOOOOo$;;;;;;;;;OOO-------**--------",
"---------------OOooo+$:;;;;=;;:OOO------**---------",
"--------------oOOO+o$$=::::$;:OOOo-----**----------",
"--------------oOOO+o$$=====$==OOOo----**-----------",
"--------------oOOO+o$$$$$$$:$$OOOo---**------------",
"--------------ooOO+o$;;;;::$;:OOOo--**-------------",
"---------------OOO+$$;;$$$$$$$OOo--**--------------",
"---------------OO+o$$;$===:$=OOOO-**---------------",
"---------------OO+o$;$;:=:$ :OOO-**----------------",
"---------------OOO+$;$$$$$$$OOOO**-----------------",
"---------------Ooo+$;====:$OOOO**------------------",
"---------------OOOo$$=:$:$$OOO**-------------------",
"----------------OO+o$$$$$$OO$**--------------------",
"-----------------OOo$====OO$**---------------------",
"----------------..O+o@@@..$::----------------------",
"-------------...@@OOo.@..$::$----------------------",
"------------..@@@@.O+o..$:$##..--------------------",
"----------........@@O+o$:$..###...-----------------",
"---------..#######..OOo$$@@...####.----------------",
"--------..###...#.@@OOOo...@@.....#..--------------",
"-------.###...##....--o-....@...@...#.-------------",
"------.#...###.....--------...@..@@@@@-------------",
"-----..####......------------.....OOO--------------",
"------OOOO......------------------oOO--------------",
"------ooOO-....-------------------oOO--------------",
"------OOOo--.---------------------oOO--------------",
"-----OOOoo------------------------oOO--------------",
"-----OOOo-------------------------OooO-------------",
"-----OOo-------------------------OOOOOO------------",
"----OOOo-------------------------ooooOOOO----------",
"----OOOO-----------------------------ooooO---------",
"----OOo--------------------------------------------",
"---OOoO--------------------------------------------",
"--OOOOOO-------------------------------------------",
"OOOOOooo-------------------------------------------",
"Ooooo----------------------------------------------"
};
