/* XPM */
static char *ac5e6fbb180e4b73b1df26c6ce54f46cgpXawLvhXZsRTr2W[] = {
/* columns rows colors chars-per-pixel */
"32 48 16 1 ",
"  c #280028",
". c #680000",
"X c #204020",
"o c #404000",
"O c #406840",
"+ c #A01800",
"@ c #983000",
"# c #E02800",
"$ c #F07000",
"% c #00F870",
"& c #909000",
"* c #F8C000",
"= c #FE11DC",
"- c #80A080",
"; c #A0C0A0",
": c #F8E0A8",
/* pixels */
"================================",
"================================",
"================================",
"================================",
"================================",
"================================",
"================================",
"================================",
"================================",
"================================",
"================================",
"==============+...==============",
"=============+:#.@@  ===========",
"============+.#.$:$$@ ==========",
"============.%+$**@*$@ =========",
"============%O.$*$@$@@ =========",
"============%.@$@@@@@@ X========",
"============+;@@XX   @ O========",
"============ #X X;-OX  X========",
"============##+X@$$@@X  ========",
"===========#+..X*:$@ X =========",
"=======XXX=+.  @**$    =========",
"======X**$X  + @*$@  X =========",
"==  X X @$@XX@XX@@ &o ==========",
"= -X-X- @$@$*$;X   o  ==========",
"= ;X;X;; @$:* -$@ o   ==========",
"= O O OOO  $$ *$     ===========",
"= X X XXX   @@   o@o ===========",
"==         X     @$$o===========",
"=============o@ @$$*@o==========",
"============o@ o@$**$@==========",
"===========o@ oo@$:*$@==========",
"===========o$ &o@$**$o==========",
"==========o$ &&o @@$@o==========",
"==========o@ o @ @$*$ ==========",
"========= $     = $$@ ==========",
"========= $$&  === @@ o=========",
"========= $@o@@ ==   @@$@=======",
"========== @o@@ === $$@$$@======",
"=========== @@@o=== @$@**@======",
"=========== $@oo==== @@$*$o=====",
"==========  $@@o=====  o$$o=====",
"========== @o@oo=======  @oo====",
"========== $o o@ ====== $oo@====",
"========  @ @ @@ ====== @$@$o===",
"======= @$$@ @   ===== oo@$$ ===",
"=======       ======= @$$@   ===",
"=====================      ====="
};
