/* XPM */
static char *result[] = {
/* columns rows colors chars-per-pixel */
"32 29 8 1 ",
"  c #181818",
". c #2C303B",
"X c #363E52",
"o c #404A60",
"O c #FE11DC",
"+ c #75889C",
"@ c #88A5B5",
"# c #D9EEF2",
/* pixels */
"      OOOOOOOOOOOOOOOOOOOO      ",
" oooX   OOOOOOOOOOOOOOOO   Xooo ",
" ooXX o                  o XXoo ",
" ooX. o ++@@######@@@+++ o .Xoo ",
" ooX. X ++++@@@@@@@@++++ X .Xoo ",
" ooX. .                  . .Xoo ",
" XX..   OOOOOOOOOOOOOOOO   ..XX ",
"      OOOOOOOOOOOOOOOOOOOO      ",
"O ++ OOOOOOOOOOOOOOOOOOOOOO ++ O",
"O ++ OOOOOOOOOOOOOOOOOOOOOO ++ O",
"O @+ OOOOOOOOOOOOOOOOOOOOOO +@ O",
"O @+ OOOOOOOOOOOOOOOOOOOOOO +@ O",
"O @+ OOOOOOOOOOOOOOOOOOOOOO +@ O",
"O @@ OOOOOOOOOOOOOOOOOOOOOO @@ O",
"O #@ OOOOOOOOOOOOOOOOOOOOOO @# O",
"O #@ OOOOOOOOOOOOOOOOOOOOOO @# O",
"O #@                        @# O",
"O #@ +++@@@########@@@@++++ @# O",
"O #@ +++++@@@@@@@@@@@@+++++ @# O",
"O #@                        @# O",
"O #@ OOOOOOOOOOOOOOOOOOOOOO @# O",
"O #@ OOOOOOOOOOOOOOOOOOOOOO @# O",
"O #@ OOOOOOOOOOOOOOOOOOOOOO @# O",
"O #@ OOOOOOOOOOOOOOOOOOOOOO @# O",
"O #@ OOOOOOOOOOOOOOOOOOOOOO @# O",
"O #@ OOOOOOOOOOOOOOOOOOOOOO @# O",
"O #@ OOOOOOOOOOOOOOOOOOOOOO @# O",
"O @+ OOOOOOOOOOOOOOOOOOOOOO +@ O",
"O ++ OOOOOOOOOOOOOOOOOOOOOO ++ O"
};
