/* XPM */
static char *afb7638149384ab8fa3ae609f037fabdeZiExGLR4VzZGZlh[] = {
/* columns rows colors chars-per-pixel */
"32 29 11 1 ",
"  c #111111",
". c #282C38",
"X c #333B51",
"o c #3E4860",
"O c #4C5C76",
"+ c #AE7A32",
"@ c #BEA830",
"# c #60748A",
"$ c #76899D",
"% c #89A7B6",
"& c #DAEFF2",
/* pixels */
"  +++++   +++++   +++++   +++++ ",
" @@@@@   @@@@@   @@@@@   @@@@@  ",
"################################",
"XXXXXXXXXXXXXXXXXXXXXXXXXXXXXXXX",
"XX$%&%%%%$%$XXX%&&&%$%%$$$$$$$XX",
"X&###########X%###########O####X",
"X&#O#######O#X$###########O##O#X",
"X%###########X%##%$%o#####O####X",
"X%OOOOOOOOO##X$#%####o####OOOOOX",
"X%########o#XXX#$####o####O####X",
"X$#######XXXXXXXXXXXXX####O####X",
"X%#######XX&&%%%%$$%$XX###O##O#X",
"X$#######X&######O####X###o###XX",
"X$####%%$X%#O####O####XXXXXXXXXX",
"XoOO#%##oX%###OOOOO#########O##X",
".$#O#$##oX%OOOO###O#########O##X",
".$#O#%##oX$#######O#####OOOOO##.",
".X#o#$ooXXX#######o####o######..",
"...XXXXX.....XXXXXXXXXXXXXXXX...",
".$&&&$%$$#..$%%&&%%$%%$$%$$$$$$.",
".$###OOOOO.$###############O###.",
".$###o####.%#O###OOOOOOOOOOO###.",
"..###o###X.$#####o############..",
"................................",
".OOOOOoOOo...OOOOoO...ooo.OOOOo.",
".Oooooooooo.OoXoooo....oo.ooooo.",
".OoooXXXXXX.ooXXXoo..o....XXooo.",
"............OoooXo...o.oo.......",
"................................"
};
